<?xml version="1.0" encoding="utf-8"?>
<!-- Generator: Adobe Illustrator 20.1.0, SVG Export Plug-In . SVG Version: 6.00 Build 0)  -->
<svg version="1.1" id="Layer_1" xmlns="http://www.w3.org/2000/svg" xmlns:xlink="http://www.w3.org/1999/xlink" x="0px" y="0px"
	 width="22px" height="18.7px" viewBox="0 0 22 18.7" style="enable-background:new 0 0 22 18.7;" xml:space="preserve">
<style type="text/css">
	.st0{fill:#FFFFFF;}
</style>
<g>
	<path class="st0" d="M21.7,0.1H0.3C0.1,0.1,0,0.2,0,0.4v2.1c0,0.2,0.1,0.3,0.3,0.3l0,0v12.7h7.2l3.4,3.2l3.3-3.2h7.2V2.8l0,0
		c0.2,0,0.3-0.1,0.3-0.3V0.4C22,0.2,21.9,0.1,21.7,0.1z M20.6,14.3H1.4V2.8h19.2V14.3z"/>
	<rect x="2.8" y="5.2" class="st0" width="5.5" height="7.4"/>
	<rect x="9.4" y="5.2" class="st0" width="9.9" height="1.9"/>
	<rect x="9.4" y="7.9" class="st0" width="9.9" height="1.9"/>
	<rect x="9.4" y="10.7" class="st0" width="6.9" height="1.9"/>
</g>
</svg>
