<?xml version="1.0" standalone="no"?>
<!DOCTYPE svg PUBLIC "-//W3C//DTD SVG 20010904//EN"
 "http://www.w3.org/TR/2001/REC-SVG-20010904/DTD/svg10.dtd">
<svg version="1.0" xmlns="http://www.w3.org/2000/svg"
 width="700.000000pt" height="700.000000pt" viewBox="0 0 700.000000 700.000000"
 preserveAspectRatio="xMidYMid meet">
<metadata>
Created by potrace 1.11, written by Peter Selinger 2001-2013
</metadata>
<g transform="translate(0.000000,700.000000) scale(0.100000,-0.100000)"
fill="#000000" stroke="none">
<path d="M656 4873 c1 -1888 4 -2260 18 -2354 3 -13 7 -51 11 -84 4 -32 9 -68
11 -80 2 -11 9 -45 15 -75 6 -30 13 -68 15 -85 3 -16 9 -41 14 -55 4 -14 18
-62 30 -107 25 -100 88 -271 135 -371 19 -40 35 -76 35 -79 0 -13 118 -216
173 -297 39 -58 63 -105 69 -134 4 -25 14 -53 22 -61 7 -9 17 -27 21 -41 23
-75 232 -312 385 -437 19 -15 44 -36 55 -46 36 -34 209 -153 304 -211 112 -68
273 -150 396 -201 83 -34 329 -122 365 -130 8 -2 31 -9 50 -14 21 -7 166 -11
377 -11 l342 0 51 45 51 45 97 1 c95 1 163 5 232 13 206 26 264 36 288 52 15
10 37 19 50 20 13 0 30 11 38 22 8 12 22 22 30 22 9 0 36 9 62 19 56 23 127
47 202 67 30 9 60 20 66 25 7 5 22 12 34 14 43 8 59 16 64 33 4 9 62 48 131
85 68 37 127 72 130 77 3 5 20 16 38 25 18 8 85 55 149 103 544 406 912 944
1083 1585 27 102 60 275 70 367 3 30 8 71 12 90 3 19 7 992 8 2163 l3 2127
-154 0 c-151 0 -157 -1 -252 -34 -448 -158 -761 -394 -925 -696 -40 -74 -83
-194 -92 -260 -4 -24 -8 -47 -10 -51 -3 -3 -5 -34 -6 -68 -3 -83 -7 -78 -24
24 -17 111 -81 259 -168 390 -50 75 -233 257 -312 310 -33 22 -62 42 -65 45
-7 7 -42 27 -120 67 -36 19 -72 38 -80 43 -64 40 -396 169 -476 184 -10 2 -46
11 -79 19 -119 30 -133 30 -183 5 -41 -21 -60 -24 -147 -22 -96 1 -101 0 -130
-26 -50 -45 -78 -60 -113 -60 -47 0 -296 -134 -458 -246 -296 -204 -479 -455
-520 -710 -5 -27 -9 -52 -10 -56 -1 -5 -3 -27 -4 -50 -2 -39 -3 -36 -10 22 -5
36 -11 81 -14 100 -26 146 -133 341 -260 474 -25 25 -59 71 -76 101 -18 31
-39 55 -48 56 -83 3 -101 7 -126 27 -16 12 -38 22 -48 22 -11 0 -22 8 -25 19
-10 39 -300 180 -516 252 -66 22 -141 52 -166 67 -35 22 -102 52 -115 52 -1 0
-1 -957 0 -2127z m1573 -2923 c0 -10 -3 -8 -9 5 -12 27 -12 43 0 25 5 -8 9
-22 9 -30z m50 -160 c0 -10 -3 -8 -9 5 -12 27 -12 43 0 25 5 -8 9 -22 9 -30z
m31 -85 c0 -5 -5 -3 -10 5 -5 8 -10 20 -10 25 0 6 5 3 10 -5 5 -8 10 -19 10
-25z m20 -50 c0 -5 -5 -3 -10 5 -5 8 -10 20 -10 25 0 6 5 3 10 -5 5 -8 10 -19
10 -25z m39 -105 c0 -8 -6 0 -14 19 -8 18 -15 36 -15 40 1 13 29 -45 29 -59z
m50 -110 c11 -24 11 -24 -3 -6 -9 11 -16 24 -16 30 0 12 5 7 19 -24z m39 -85
c-3 -3 -9 2 -12 12 -6 14 -5 15 5 6 7 -7 10 -15 7 -18z m32 -59 c0 -6 -7 -1
-15 10 -8 10 -15 23 -15 28 0 6 7 1 15 -10 8 -10 15 -23 15 -28z m19 -46 c11
-24 11 -24 -3 -6 -9 11 -16 24 -16 30 0 12 5 7 19 -24z m41 -74 c0 -12 -5 -7
-19 24 -11 24 -11 24 3 6 9 -11 16 -24 16 -30z m34 -62 c3 -8 2 -12 -4 -9 -6
3 -10 10 -10 16 0 14 7 11 14 -7z m26 -44 c6 -11 8 -20 6 -20 -3 0 -10 9 -16
20 -6 11 -8 20 -6 20 3 0 10 -9 16 -20z m65 -106 c9 -15 12 -23 6 -20 -11 7
-35 46 -28 46 3 0 12 -12 22 -26z m126 -191 c13 -16 12 -17 -3 -4 -17 13 -22
21 -14 21 2 0 10 -8 17 -17z m30 -40 c13 -16 12 -17 -3 -4 -17 13 -22 21 -14
21 2 0 10 -8 17 -17z"/>
<path d="M4225 110 c-10 -11 -16 -22 -14 -24 9 -8 67 15 73 29 8 23 -37 19
-59 -5z"/>
</g>
</svg>
