<?xml version="1.0" standalone="no"?>
<!DOCTYPE svg PUBLIC "-//W3C//DTD SVG 20010904//EN"
 "http://www.w3.org/TR/2001/REC-SVG-20010904/DTD/svg10.dtd">
<svg version="1.0" xmlns="http://www.w3.org/2000/svg"
 width="700.000000pt" height="700.000000pt" viewBox="0 0 700.000000 700.000000"
 preserveAspectRatio="xMidYMid meet">
<metadata>
Created by potrace 1.11, written by Peter Selinger 2001-2013
</metadata>
<g transform="translate(0.000000,700.000000) scale(0.100000,-0.100000)"
fill="#000000" stroke="none">
<path d="M4465 6980 c-27 -11 -59 -20 -71 -20 -11 0 -43 -11 -70 -25 -27 -14
-59 -25 -71 -25 -12 0 -24 -4 -27 -9 -13 -20 -138 -57 -233 -68 -59 -7 -59
-10 -6 -84 18 -26 33 -49 33 -52 0 -4 -18 -16 -41 -27 l-41 -21 -24 28 c-29
34 -31 67 -4 86 16 11 18 16 7 20 -32 12 -55 -29 -64 -113 -5 -54 -8 -61 -26
-58 -36 5 -43 31 -25 102 l15 66 -48 0 c-40 0 -49 -3 -50 -17 -2 -66 -11 -90
-44 -120 -19 -18 -41 -33 -49 -33 -8 0 -25 18 -37 40 -13 22 -25 40 -28 41 -3
0 -16 2 -28 5 -18 3 -28 -5 -48 -36 -14 -22 -25 -43 -25 -48 0 -4 18 -27 41
-49 37 -38 39 -44 28 -65 -7 -12 -18 -29 -26 -36 -12 -12 -11 -17 3 -33 17
-19 17 -19 -19 -4 -80 33 -163 13 -316 -78 -52 -31 -97 -54 -101 -52 -4 3 -18
-20 -30 -50 -26 -63 -78 -115 -117 -115 l-27 0 26 -27 c34 -37 49 -68 42 -87
-11 -29 -32 -25 -58 13 -42 60 -73 71 -166 57 -39 -5 -67 -4 -96 6 -40 14 -41
14 -36 -9 3 -17 -7 -35 -37 -68 -26 -28 -41 -54 -41 -70 l0 -26 -34 35 c-18
20 -37 36 -43 36 -5 0 -16 -13 -26 -29 -22 -38 -100 -76 -197 -96 -41 -9 -82
-18 -92 -20 -22 -5 -78 -34 -104 -54 -25 -20 -19 -44 21 -81 15 -14 31 -33 37
-43 11 -22 9 -21 -120 56 -46 27 -85 47 -87 45 -2 -2 3 -32 12 -66 19 -75 10
-93 -34 -73 l-28 13 23 -25 c37 -39 26 -59 -38 -71 -62 -13 -172 -70 -227
-118 -74 -65 -137 -124 -162 -149 -14 -15 -64 -51 -111 -81 -137 -87 -242
-127 -337 -128 l-42 0 -3 -42 c-2 -33 5 -57 30 -105 18 -35 30 -63 25 -64 -30
-3 -102 5 -139 16 -49 14 -56 11 -48 -20 6 -23 -4 -36 -52 -74 -29 -23 -36
-46 -21 -79 l10 -22 22 20 22 21 27 -55 c19 -40 52 -78 113 -133 47 -43 123
-114 168 -158 l83 -80 -2 35 -1 35 100 -3 c90 -3 102 -1 119 17 14 15 17 32
15 70 -3 30 0 50 6 48 5 -2 18 7 30 19 11 12 35 25 53 28 28 5 32 3 32 -15 0
-19 3 -18 38 10 66 51 132 79 269 112 l132 31 -19 39 c-11 21 -20 41 -20 44 0
3 18 5 40 5 42 0 50 9 25 30 -12 10 -21 10 -41 1 -40 -18 -70 -13 -88 14 -20
30 -21 41 -2 26 34 -28 88 -20 175 25 47 24 93 44 104 44 23 0 60 -19 70 -36
8 -14 47 -20 47 -7 0 4 -10 17 -22 30 -15 16 -18 27 -11 34 7 7 14 5 23 -6 20
-24 29 -18 26 20 -2 19 -1 37 3 39 12 8 67 -24 101 -59 l32 -33 -21 -21 -21
-21 30 0 c21 0 42 12 74 44 48 46 50 57 10 50 -58 -11 -5 32 153 123 135 78
220 147 267 218 31 48 31 46 5 74 l-22 23 30 30 c22 22 42 30 79 34 64 7 109
47 112 101 3 37 41 114 42 82 0 -8 17 -25 39 -37 21 -12 45 -29 52 -38 12 -15
14 -14 20 7 l6 24 13 -28 c13 -26 11 -38 -19 -127 -38 -115 -36 -145 15 -189
40 -36 41 -39 12 -36 -13 1 -30 3 -40 4 -11 1 -15 7 -11 21 7 26 -14 26 -22 0
-8 -26 2 -38 85 -100 37 -28 71 -58 74 -67 8 -21 -19 -50 -54 -58 l-28 -6 15
-45 c17 -51 12 -65 -13 -36 -17 20 -18 20 -56 -39 -26 -40 -37 -66 -33 -79 4
-11 10 -20 14 -20 10 0 35 -52 32 -67 -1 -7 5 -26 14 -43 15 -29 15 -30 -6
-30 -11 0 -34 14 -51 30 -24 25 -29 37 -26 65 l4 35 -46 -4 c-84 -8 -92 -18
-65 -83 23 -54 19 -78 -17 -109 l-33 -27 -3 46 c-3 40 -6 46 -25 45 -57 -1
-104 -29 -155 -93 l-52 -64 47 21 c50 22 146 34 187 24 16 -4 28 -16 32 -31 7
-27 18 -32 30 -13 4 7 -2 18 -14 26 -12 8 -22 21 -22 28 0 17 0 17 44 -1 38
-16 45 -29 21 -39 -8 -3 -15 -12 -15 -20 0 -7 -7 -16 -15 -20 -16 -6 -13 -52
5 -87 17 -31 11 -39 -30 -39 l-40 0 0 -40 c0 -47 -4 -48 -102 -21 -38 10 -68
17 -68 16 0 -2 27 -31 61 -64 35 -36 57 -65 53 -72 -5 -8 -33 -10 -97 -5 -49
4 -94 8 -100 9 -5 1 -12 -4 -14 -10 -6 -17 39 -33 93 -33 46 0 84 -13 84 -30
0 -5 -11 -26 -25 -46 -31 -45 -31 -55 -1 -149 18 -57 21 -75 11 -75 -8 0 -17
4 -20 10 -3 5 -16 15 -28 21 -13 7 -4 -8 23 -36 40 -42 42 -47 20 -42 -24 6
-24 5 -5 -9 11 -8 36 -25 55 -37 19 -13 43 -39 53 -60 9 -20 22 -37 27 -37 6
0 10 -6 10 -14 0 -12 -23 -28 -149 -105 -48 -29 -57 -48 -35 -72 15 -16 9 -16
-42 5 -32 13 -60 23 -62 21 -7 -7 32 -71 88 -143 45 -59 56 -80 49 -94 -13
-24 -11 -28 9 -28 9 0 24 -6 33 -13 16 -12 129 -170 129 -180 0 -3 -30 8 -66
24 -36 17 -88 33 -115 36 -43 5 -49 4 -43 -11 3 -9 11 -16 17 -16 25 0 -12
-19 -73 -39 -36 -11 -58 -20 -50 -20 12 -1 15 -20 15 -110 0 -97 3 -114 24
-152 34 -61 126 -154 187 -189 l50 -29 120 14 c199 23 226 26 314 31 46 2 88
8 92 12 8 8 11 136 5 182 -2 14 -8 50 -12 80 -4 30 -9 64 -11 75 -2 11 6 60
18 109 16 70 19 95 11 117 -9 23 -1 18 45 -29 61 -62 138 -132 146 -132 6 0
50 72 57 95 5 17 10 13 38 -30 21 -34 30 -57 26 -72 -4 -16 -1 -23 10 -23 21
0 19 34 -5 106 -24 74 -26 98 -4 90 9 -3 17 -6 19 -6 2 0 1 -9 -2 -20 -8 -29
4 -24 22 9 19 38 58 35 96 -7 l27 -30 58 38 c113 72 175 152 177 228 1 36 1
36 29 -33 13 -34 15 -41 17 -55 0 -5 5 -10 10 -10 4 0 2 26 -5 58 -7 31 -16
73 -19 92 -3 19 -21 112 -41 205 -19 94 -37 181 -40 195 -2 14 -7 31 -9 38 -3
7 0 10 5 7 6 -3 10 -10 10 -16 0 -5 31 -60 69 -122 39 -63 81 -139 94 -169 14
-31 31 -59 38 -64 7 -4 3 9 -9 29 -12 20 -17 37 -12 37 4 0 10 -3 12 -7 4 -11
108 -96 108 -89 0 3 -7 31 -15 63 -15 59 -20 139 -9 167 4 10 22 -32 47 -105
23 -67 44 -114 47 -105 3 8 5 63 4 122 -1 109 9 121 21 24 4 -30 9 -58 10 -61
2 -3 5 -26 6 -52 2 -26 6 -47 10 -47 37 0 53 41 23 58 -15 9 -15 13 -1 63 9
30 30 108 47 174 34 136 69 232 87 239 9 4 9 -4 -1 -32 -8 -21 -17 -57 -21
-82 -4 -25 -9 -54 -12 -65 -9 -40 -12 -208 -5 -222 6 -10 13 5 21 44 13 57 60
200 86 258 7 17 27 66 43 110 78 206 158 372 232 482 47 70 72 91 65 52 -9
-45 9 -39 72 22 72 71 69 57 -14 -65 -30 -44 -70 -109 -88 -146 -19 -37 -70
-129 -114 -204 -45 -75 -81 -139 -81 -141 0 -3 -11 -28 -24 -57 -57 -128 -62
-156 -10 -53 37 72 98 155 115 155 27 0 -13 -106 -116 -306 -30 -57 -51 -104
-47 -104 4 0 3 -4 -3 -8 -13 -9 -35 -49 -35 -63 0 -7 14 5 30 26 31 40 43 40
13 0 -10 -12 -25 -33 -33 -45 -50 -73 -60 -84 -60 -64 -1 10 -7 1 -15 -21 -18
-50 -18 -57 0 -25 l14 25 1 -33 c0 -18 -9 -58 -20 -89 -11 -32 -20 -66 -20
-78 1 -11 9 5 20 35 10 30 40 93 65 140 25 47 53 108 62 135 30 94 35 103 64
131 l29 28 -24 -70 c-14 -38 -36 -99 -50 -136 -14 -38 -22 -68 -18 -68 18 0
211 326 347 585 37 72 91 169 120 216 30 47 72 124 95 170 24 46 55 103 71
126 32 47 89 106 96 100 2 -3 7 -36 10 -75 6 -78 -10 -157 -34 -171 -11 -6 -7
-10 16 -14 56 -11 51 -21 -179 -312 -25 -32 -66 -85 -92 -119 -26 -33 -53 -67
-60 -75 -27 -30 -88 -127 -88 -138 0 -25 20 -12 86 52 37 35 70 62 74 60 3 -2
12 13 19 33 19 52 39 82 57 82 11 0 14 -6 9 -22 -5 -16 7 -6 37 27 23 28 77
86 118 131 41 44 97 106 123 137 27 32 53 57 60 57 6 0 -3 -15 -21 -33 -17
-18 -39 -54 -48 -81 -9 -26 -28 -69 -41 -94 -63 -118 -122 -240 -132 -277 -8
-28 -33 -62 -93 -122 -45 -46 -76 -83 -67 -83 8 0 19 3 25 8 5 4 -2 -3 -16
-16 -52 -47 -81 -78 -92 -97 l-11 -20 23 20 c16 15 37 20 81 21 64 1 89 15
115 66 18 35 18 36 -8 40 -19 3 -7 15 67 71 50 37 127 86 172 109 71 35 92 41
144 41 48 -1 66 -5 82 -22 20 -20 20 -22 4 -55 -14 -30 -66 -77 -115 -105 -7
-4 -15 -29 -18 -57 -9 -69 11 -85 114 -94 43 -4 84 -10 90 -14 17 -10 15 -58
-5 -86 -74 -111 -173 -167 -326 -185 -27 -3 -57 -10 -67 -15 -41 -22 -24 56
23 108 l20 22 -27 0 c-18 0 -29 7 -34 21 -8 20 -9 19 -21 -8 -7 -15 -15 -59
-18 -98 -6 -103 -19 -158 -56 -238 l-34 -72 59 -23 c54 -21 86 -22 73 -2 -5 9
14 70 23 70 3 0 14 -8 24 -17 17 -15 21 -15 29 -3 8 12 17 7 49 -28 21 -24 41
-56 45 -72 3 -16 13 -34 21 -41 18 -15 18 -42 0 -78 -14 -26 -20 -28 -78 -29
-52 -1 -59 1 -41 10 22 11 40 44 30 55 -8 8 -65 -59 -76 -89 -8 -23 -6 -30 12
-43 29 -20 50 -19 97 5 l39 20 75 -60 c75 -59 112 -109 102 -136 -8 -22 6 -23
59 -3 29 10 41 18 29 18 -31 1 -43 20 -48 75 -2 26 -6 49 -8 50 -1 2 -12 8
-22 13 -18 10 -18 11 5 18 13 4 44 26 69 50 25 23 52 45 60 49 8 3 4 4 -8 2
-21 -4 -23 -2 -18 20 5 18 1 32 -15 48 l-22 23 -39 -21 -39 -21 -39 43 c-25
27 -44 62 -55 100 -9 31 -20 62 -25 67 -31 41 -8 86 35 67 19 -9 23 -8 19 3
-3 7 -12 16 -20 19 -24 9 -16 22 39 58 73 48 84 51 108 27 11 -11 22 -19 23
-17 2 1 11 28 21 58 11 30 29 66 41 80 12 14 35 50 50 80 30 57 35 118 21 235
-8 64 -8 66 -7 158 1 74 2 77 25 77 19 0 26 7 34 35 14 51 4 92 -40 167 -22
36 -41 79 -41 95 -1 39 25 90 70 137 37 38 37 41 20 58 -10 10 -18 30 -19 46
0 15 -2 35 -4 46 -2 11 13 36 38 63 33 36 41 52 42 86 4 88 18 145 55 223 43
92 48 157 17 228 -17 39 -17 39 -65 33 -26 -3 -59 -12 -75 -20 -16 -8 -61 -15
-108 -16 -98 -3 -148 -18 -256 -79 -72 -41 -85 -53 -109 -99 -20 -40 -36 -57
-68 -72 -46 -23 -63 -21 -146 18 -25 11 -58 21 -75 21 l-29 0 22 16 c13 9 31
17 40 19 12 1 16 9 13 26 -9 62 -76 51 -206 -35 -33 -22 -74 -53 -92 -69 -74
-68 -176 -119 -203 -102 -6 4 -30 -2 -53 -14 -23 -11 -54 -23 -70 -26 -15 -3
-45 -21 -66 -41 -22 -19 -41 -31 -44 -27 -2 4 -3 30 -2 56 1 49 -10 70 -26 46
-13 -21 -11 -76 6 -116 19 -45 19 -45 -5 -73 -11 -13 -20 -30 -21 -39 0 -10
-3 -8 -9 7 -13 30 -31 28 -65 -8 -35 -37 -57 -38 -84 -4 -16 20 -21 23 -21 10
0 -26 -28 -75 -77 -135 -57 -70 -89 -127 -97 -172 -5 -31 -10 -36 -29 -32 -24
5 -79 -37 -89 -67 -4 -13 -14 -12 -71 7 -37 11 -68 18 -70 15 -1 -4 -2 -53 -2
-109 l2 -102 -26 14 c-38 20 -81 63 -92 92 -7 20 -6 28 8 39 10 7 21 14 26 14
4 0 7 4 7 9 0 11 -39 26 -107 41 -28 6 -59 20 -69 31 -16 18 -16 19 7 19 13 0
53 -7 89 -16 85 -21 130 -26 130 -16 0 5 -12 22 -26 38 -110 125 -117 142 -75
184 23 23 26 30 13 31 -132 6 -135 44 -8 109 16 8 40 29 53 47 l25 33 -20 39
c-20 39 -20 39 0 33 18 -4 19 0 17 54 -3 82 -16 123 -51 167 l-30 38 39 -8
c110 -22 127 -4 119 129 -5 81 -3 99 10 113 9 9 23 14 31 11 57 -22 60 -21 83
43 21 56 32 67 62 62 7 -1 27 54 33 87 4 23 -22 82 -47 109 -18 20 -19 23 -5
23 9 0 17 -7 17 -15 0 -20 8 -19 47 8 68 46 76 108 28 215 -13 28 -21 52 -17
52 4 0 25 -9 45 -19 35 -18 41 -18 95 -4 125 32 202 97 202 171 0 37 5 39 34
15 12 -10 18 -14 14 -9 -11 14 19 62 54 88 24 16 47 23 82 23 45 0 52 3 72 32
18 27 20 39 13 76 -4 24 -17 60 -28 79 -17 27 -21 53 -22 122 l-1 87 -24 -15
c-40 -27 -61 -21 -69 22 -3 20 -13 48 -22 60 -13 21 -18 56 -14 100 1 8 11 11
29 9 16 -3 26 -10 24 -18 -5 -18 -23 -29 -35 -22 -5 3 -8 0 -5 -8 2 -7 17 -16
33 -21 82 -22 164 129 168 309 l2 67 -150 88 -150 87 -130 0 c-106 0 -139 -4
-180 -19z m101 -265 c15 -11 16 -14 3 -15 -8 0 -24 7 -35 15 -15 11 -16 14 -3
15 8 0 24 -7 35 -15z m-878 -732 c-18 -13 -41 -38 -50 -56 l-17 -32 -1 33 c0
35 12 65 37 94 14 16 17 16 39 1 l24 -16 -32 -24z m-311 -142 c15 -20 39 -49
55 -65 19 -20 28 -40 28 -62 0 -17 13 -60 29 -95 42 -91 45 -123 14 -159 -14
-17 -31 -30 -39 -30 -21 0 -28 27 -16 56 14 29 15 29 -34 5 -47 -24 -53 -19
-78 67 -26 88 -34 102 -55 102 -20 0 -41 60 -41 121 0 32 0 32 21 13 l21 -19
-7 62 c-6 59 -5 64 21 90 l27 27 14 -39 c7 -21 25 -54 40 -74z m257 -139 c-10
-79 -19 -86 -79 -53 l-35 19 30 12 c17 7 40 26 51 41 26 37 39 29 33 -19z
m-360 -1008 c3 -8 2 -12 -4 -9 -6 3 -10 10 -10 16 0 14 7 11 14 -7z m728 -691
c22 -20 23 -50 3 -100 -15 -38 -23 -72 -25 -108 -1 -15 -6 -11 -21 18 -11 20
-24 37 -29 37 -5 0 -21 -23 -35 -50 -24 -48 -26 -50 -48 -36 -34 22 -99 12
-170 -26 l-63 -34 -44 23 c-54 29 -53 28 -46 51 4 11 28 29 54 40 56 24 90 58
94 92 3 23 -1 25 -47 30 -51 5 -45 12 20 24 31 5 39 6 181 26 100 13 125 18
132 25 10 9 25 5 44 -12z m-884 -1068 l22 -35 -32 4 c-37 5 -68 15 -68 23 0 7
41 43 49 43 3 0 16 -16 29 -35z m-76 -200 l60 -65 111 0 111 0 -64 -65 -64
-65 -66 63 c-36 35 -81 75 -100 89 -49 35 -75 86 -65 124 8 27 9 27 13 6 2
-13 31 -52 64 -87z"/>
<path d="M4837 4713 c-2 -5 -3 -21 -3 -38 1 -25 6 -31 28 -33 22 -3 26 0 21
17 -3 12 -9 21 -14 21 -5 0 -9 6 -9 14 0 17 -17 30 -23 19z"/>
<path d="M1428 4453 c5 -21 7 -23 10 -9 2 10 0 22 -6 28 -6 6 -7 0 -4 -19z"/>
<path d="M4896 3775 c-9 -26 -7 -32 5 -12 6 10 9 21 6 23 -2 3 -7 -2 -11 -11z"/>
<path d="M4871 3694 c0 -11 3 -14 6 -6 3 7 2 16 -1 19 -3 4 -6 -2 -5 -13z"/>
<path d="M4856 3655 c-3 -9 -6 -24 -5 -33 0 -9 5 -4 10 12 9 32 6 48 -5 21z"/>
<path d="M4831 3569 c-6 -18 -9 -34 -7 -36 2 -2 9 10 15 28 6 18 9 34 7 36 -2
2 -9 -10 -15 -28z"/>
<path d="M4455 3366 c8 -24 11 -54 8 -65 -4 -17 -1 -21 21 -21 36 0 35 34 -5
88 -17 23 -32 42 -34 42 -2 0 3 -20 10 -44z"/>
<path d="M4728 3357 c-7 -37 3 -52 16 -25 13 23 10 48 -4 48 -4 0 -10 -10 -12
-23z"/>
<path d="M5391 3316 c-16 -19 -11 -29 8 -17 7 5 12 14 9 21 -3 9 -8 7 -17 -4z"/>
<path d="M4330 3314 c0 -13 33 -119 39 -126 3 -4 7 13 8 38 0 24 -3 44 -8 44
-5 0 -9 11 -9 25 0 16 -6 25 -15 25 -8 0 -15 -3 -15 -6z"/>
<path d="M6144 3115 c0 -14 4 -25 8 -25 4 0 8 11 8 25 0 14 -4 25 -8 25 -4 0
-8 -11 -8 -25z"/>
<path d="M3693 2929 c-28 -10 -43 -40 -59 -114 -7 -33 -16 -68 -19 -77 -5 -13
-2 -18 9 -18 9 0 21 -9 28 -20 7 -11 15 -20 18 -20 3 0 5 45 5 100 0 55 1 100
3 100 2 0 18 -11 35 -24 28 -21 70 -26 85 -11 2 2 -8 19 -22 38 -14 19 -26 38
-26 43 0 13 -29 14 -57 3z"/>
<path d="M5806 2574 c-7 -18 0 -34 15 -34 12 0 12 37 0 44 -5 3 -12 -1 -15
-10z"/>
<path d="M5635 2420 c4 -6 -7 -10 -24 -10 -34 0 -36 -2 -20 -31 10 -19 9 -20
-12 -9 -21 12 -21 12 -5 -11 20 -29 20 -53 1 -69 -21 -17 -11 -27 37 -35 87
-15 227 -7 338 19 45 11 54 16 52 32 -10 59 -64 61 -131 5 -55 -46 -87 -52
-100 -18 -11 28 4 47 35 47 30 0 32 15 3 17 -12 1 -53 18 -92 37 -72 37 -93
43 -82 26z"/>
<path d="M6066 2335 c3 -8 15 -17 26 -21 32 -10 32 3 -1 20 -26 14 -30 14 -25
1z"/>
<path d="M5841 2050 c9 -5 31 -12 49 -15 19 -3 40 -11 47 -17 11 -8 12 -7 7 8
-6 15 -4 17 6 7 15 -14 40 -6 40 13 0 11 -19 14 -82 14 -56 -1 -78 -4 -67 -10z"/>
<path d="M6200 1951 c0 -11 39 -25 47 -18 3 3 2 10 -2 16 -8 13 -45 15 -45 2z"/>
<path d="M6105 1650 c-3 -5 -1 -10 4 -10 6 0 11 5 11 10 0 6 -2 10 -4 10 -3 0
-8 -4 -11 -10z"/>
<path d="M5990 1540 c0 -5 10 -10 23 -10 18 0 19 2 7 10 -19 13 -30 13 -30 0z"/>
<path d="M5729 1528 c-6 -21 -5 -38 2 -38 5 0 9 9 9 20 0 16 -7 28 -11 18z"/>
<path d="M5830 1401 c0 -12 9 -20 24 -23 28 -6 41 13 23 31 -18 18 -47 13 -47
-8z"/>
<path d="M5890 1376 c0 -2 9 -6 20 -9 11 -3 20 -1 20 4 0 5 -9 9 -20 9 -11 0
-20 -2 -20 -4z"/>
<path d="M5933 675 c0 -8 4 -15 9 -15 4 0 8 4 8 9 0 6 -4 12 -8 15 -5 3 -9 -1
-9 -9z"/>
</g>
</svg>
