<?xml version="1.0" standalone="no"?>
<!DOCTYPE svg PUBLIC "-//W3C//DTD SVG 20010904//EN"
 "http://www.w3.org/TR/2001/REC-SVG-20010904/DTD/svg10.dtd">
<svg version="1.0" xmlns="http://www.w3.org/2000/svg"
 width="700.000000pt" height="700.000000pt" viewBox="0 0 700.000000 700.000000"
 preserveAspectRatio="xMidYMid meet">
<metadata>
Created by potrace 1.11, written by Peter Selinger 2001-2013
</metadata>
<g transform="translate(0.000000,700.000000) scale(0.100000,-0.100000)"
fill="#000000" stroke="none">
<path d="M3315 6994 c-362 -28 -625 -77 -915 -174 -1047 -348 -1872 -1174
-2220 -2220 -121 -365 -174 -698 -174 -1100 0 -403 53 -735 174 -1100 348
-1047 1174 -1872 2220 -2220 365 -121 698 -174 1100 -174 402 0 735 53 1100
174 1046 348 1872 1173 2220 2220 121 365 174 697 174 1100 0 241 -9 362 -45
580 -175 1068 -866 2019 -1833 2521 -392 204 -779 322 -1221 374 -127 15 -481
27 -580 19z m395 -304 c832 -59 1577 -416 2141 -1027 458 -496 741 -1110 825
-1794 23 -182 23 -556 0 -739 -144 -1171 -893 -2154 -1976 -2594 -387 -157
-765 -229 -1200 -229 -410 0 -743 59 -1110 195 -1446 539 -2303 2029 -2039
3548 90 520 319 1024 655 1447 100 126 371 397 497 497 631 502 1421 751 2207
696z"/>
<path d="M3470 5983 c-80 -53 -210 -187 -268 -275 -49 -76 -112 -212 -112
-243 0 -8 -6 -17 -12 -20 -7 -2 -51 -15 -98 -30 -100 -31 -300 -126 -384 -183
l-58 -40 -57 19 c-108 37 -243 59 -369 59 -189 0 -310 -21 -479 -82 l-85 -31
4 -166 c6 -171 23 -278 70 -421 30 -93 99 -237 147 -308 l41 -61 -20 -63 c-33
-109 -68 -259 -86 -370 l-17 -107 -66 -40 c-155 -92 -273 -197 -374 -334 -61
-83 -146 -234 -171 -305 l-15 -43 79 -79 c108 -107 232 -197 360 -264 116 -60
285 -121 367 -132 50 -6 53 -8 89 -68 54 -89 150 -222 211 -293 l53 -62 -20
-72 c-56 -204 -46 -451 26 -646 l16 -43 71 0 c215 0 484 80 653 193 l71 47 40
-14 c119 -42 414 -86 580 -86 l92 0 89 -87 c123 -122 260 -197 434 -238 l58
-13 58 68 c31 37 72 93 90 123 64 107 122 278 122 363 0 67 9 81 111 164 104
85 230 221 302 326 l42 61 70 6 c142 13 310 76 400 151 l39 33 -22 84 c-40
150 -120 289 -212 373 l-43 38 2 162 c2 179 -11 268 -58 407 -107 316 -336
582 -629 728 -89 45 -251 97 -356 116 -130 22 -350 20 -448 -5 -342 -86 -622
-352 -707 -672 -85 -317 -31 -570 167 -780 78 -83 185 -151 290 -186 115 -37
295 -43 392 -12 115 37 200 102 185 142 -4 9 -17 20 -31 27 -20 9 -32 7 -62
-8 -61 -31 -142 -44 -243 -39 -85 3 -102 8 -172 43 -97 47 -199 144 -244 230
-86 165 -85 350 5 535 27 58 56 95 122 161 130 130 262 189 425 189 384 0 701
-244 795 -611 31 -118 24 -320 -14 -459 -85 -307 -281 -544 -557 -675 -137
-64 -222 -85 -369 -92 -418 -19 -793 132 -1080 434 -276 289 -406 663 -371
1062 41 459 235 866 531 1113 455 380 1224 438 1780 135 160 -87 244 -150 381
-286 230 -230 365 -449 464 -758 37 -114 51 -137 81 -131 67 13 52 321 -28
568 -88 276 -223 506 -413 709 l-50 53 -1 142 c0 151 -15 219 -70 329 l-24 47
-83 0 c-130 0 -264 -35 -374 -96 l-48 -27 -125 41 c-118 39 -302 82 -350 82
-14 0 -24 8 -27 21 -12 46 -83 177 -126 235 -60 79 -173 186 -250 235 -33 21
-63 39 -66 39 -4 0 -31 -16 -61 -37z"/>
</g>
</svg>
