<?xml version="1.0" standalone="no"?>
<!DOCTYPE svg PUBLIC "-//W3C//DTD SVG 20010904//EN"
 "http://www.w3.org/TR/2001/REC-SVG-20010904/DTD/svg10.dtd">
<svg version="1.0" xmlns="http://www.w3.org/2000/svg"
 width="700.000000pt" height="700.000000pt" viewBox="0 0 700.000000 700.000000"
 preserveAspectRatio="xMidYMid meet">
<metadata>
Created by potrace 1.11, written by Peter Selinger 2001-2013
</metadata>
<g transform="translate(0.000000,700.000000) scale(0.100000,-0.100000)"
fill="#000000" stroke="none">
<path d="M3368 6035 c-2 -2 -39 -5 -83 -8 -91 -6 -298 -33 -362 -47 -24 -6
-60 -13 -81 -16 -137 -21 -450 -108 -780 -216 l-183 -60 -602 -3 c-331 -1
-613 -5 -627 -8 -14 -2 -40 -8 -58 -11 -160 -31 -342 -142 -448 -274 -43 -53
-110 -181 -120 -227 -3 -11 -9 -40 -14 -65 -5 -26 -9 -481 -9 -1075 0 -1095
-1 -1077 48 -1189 24 -54 34 -68 123 -169 170 -193 280 -286 524 -448 113 -75
114 -76 294 -177 195 -110 570 -281 895 -409 313 -122 477 -184 600 -227 367
-127 819 -277 904 -300 52 -14 107 -33 124 -41 28 -14 34 -13 86 9 31 14 97
39 146 56 124 43 359 128 420 151 103 39 561 210 590 220 17 6 39 15 50 20 11
4 67 27 125 49 58 22 114 45 125 50 11 5 65 28 120 51 907 376 1460 748 1649
1109 60 114 109 256 125 355 5 34 8 485 7 1045 l-1 985 -23 65 c-84 231 -295
396 -575 447 -18 3 -302 7 -632 8 l-601 3 -254 81 c-140 45 -273 87 -295 93
-22 6 -51 14 -65 19 -37 13 -223 56 -363 85 -126 25 -147 29 -232 39 -27 3
-86 10 -130 16 -68 9 -410 20 -417 14z"/>
</g>
</svg>
