<?xml version="1.0" encoding="utf-8"?>
<!-- Generator: Adobe Illustrator 19.0.1, SVG Export Plug-In . SVG Version: 6.00 Build 0)  -->
<!DOCTYPE svg PUBLIC "-//W3C//DTD SVG 1.1//EN" "http://www.w3.org/Graphics/SVG/1.1/DTD/svg11.dtd">
<svg version="1.1" id="Layer_1" xmlns="http://www.w3.org/2000/svg" xmlns:xlink="http://www.w3.org/1999/xlink" x="0px" y="0px"
	 width="33px" height="33px" viewBox="-108 39 33 33" style="enable-background:new -108 39 33 33;" xml:space="preserve">
<style type="text/css">
	.st0{fill:#FFFFFF;}
</style>
<title>Github icon</title>
<path class="st0" d="M-91.5,39.6c-9,0-16.3,7.3-16.3,16.3c0,7,4.5,13.2,11.1,15.5c0.8,0.2,1.1-0.4,1.1-0.8c0-0.4,0-1.4,0-2.8
	c-4.5,1-5.5-2.2-5.5-2.2c-0.3-1-0.9-1.8-1.8-2.4c-1.5-1,0.1-1,0.1-1c1,0.1,2,0.8,2.5,1.7c0.9,1.7,3,2.3,4.7,1.4c0,0,0,0,0,0
	c0.1-0.8,0.4-1.6,1-2.2c-3.6-0.4-7.4-1.8-7.4-8c0-1.6,0.6-3.2,1.7-4.4c-0.5-1.4-0.4-2.9,0.2-4.3c0,0,1.4-0.4,4.5,1.7
	c2.7-0.7,5.5-0.7,8.2,0c3.1-2.1,4.5-1.7,4.5-1.7c0.6,1.4,0.7,2.9,0.2,4.3c1.1,1.2,1.7,2.8,1.7,4.4c0,6.3-3.8,7.6-7.4,8
	c0.8,0.8,1.2,1.9,1.1,3c0,2.2,0,3.9,0,4.5c0,0.4,0.3,0.9,1.1,0.8c8.5-2.8,13.1-12.1,10.3-20.6C-78.3,44.1-84.5,39.6-91.5,39.6z"/>
</svg>
