<svg xmlns="http://www.w3.org/2000/svg" width="33" height="33" viewBox="0 0 33 33">
    <title>
        Github icon
    </title>
    <path fill="444" d="M16.5.613a16.291 16.291 0 0 0-5.148 31.746c.815.15 1.112-.353 1.112-.785 0-.387-.014-1.411-.022-2.77-4.531.984-5.487-2.184-5.487-2.184a4.315 4.315 0 0 0-1.809-2.383c-1.479-1.011.112-.99.112-.99a3.42 3.42 0 0 1 2.5 1.679 3.469 3.469 0 0 0 4.741 1.353 3.48 3.48 0 0 1 1.028-2.179c-3.617-.411-7.42-1.808-7.42-8.05a6.294 6.294 0 0 1 1.677-4.37 5.856 5.856 0 0 1 .159-4.311s1.368-.438 4.48 1.669a15.447 15.447 0 0 1 8.156 0c3.11-2.107 4.475-1.669 4.475-1.669a5.847 5.847 0 0 1 .162 4.311 6.283 6.283 0 0 1 1.675 4.371c0 6.257-3.809 7.634-7.438 8.038a3.887 3.887 0 0 1 1.106 3.016c0 2.178-.02 3.935-.02 4.469 0 .436.293.942 1.12.783A16.291 16.291 0 0 0 16.5.613z" />
</svg>
