<?xml version="1.0" encoding="utf-8"?>
<!-- Generator: Adobe Illustrator 19.0.1, SVG Export Plug-In . SVG Version: 6.00 Build 0)  -->
<!DOCTYPE svg PUBLIC "-//W3C//DTD SVG 1.1//EN" "http://www.w3.org/Graphics/SVG/1.1/DTD/svg11.dtd">
<svg version="1.1" id="Layer_1" xmlns:sketch="http://www.bohemiancoding.com/sketch/ns"
	 xmlns="http://www.w3.org/2000/svg" xmlns:xlink="http://www.w3.org/1999/xlink" x="0px" y="0px" width="33px" height="33px"
	 viewBox="-181.8 69 33 33" style="enable-background:new -181.8 69 33 33;" xml:space="preserve">
<style type="text/css">
	.st0{fill:#FFFFFF;}
</style>
<g>
	<path d="M-165.3,69.5c-8.8,0-16,7.2-16,16s7.2,16,16,16c8.8,0,16-7.2,16-16S-156.5,69.5-165.3,69.5z M-153.3,88.2l-12,8.7l-12-8.7
		c-0.1-0.1-0.1-0.1-0.2-0.2c-0.1-0.2-0.1-0.5-0.1-0.8l0.7-2.2l0.7-2.1l2.8-8.5c0.1-0.1,0.1-0.1,0.1-0.2c0.1-0.1,0.4-0.1,0.5-0.1
		c0.1,0.1,0.1,0.1,0.2,0.2v0.1l0.5,1.7l2.2,6.7h9.1l2.8-8.5c0-0.1,0.1-0.2,0.2-0.3c0.2-0.1,0.5,0,0.6,0.3l2.8,8.5l1.3,4.3
		c0.1,0.2,0.1,0.5-0.1,0.7C-153.1,88.1-153.2,88.1-153.3,88.2z"/>
	<path class="st0" d="M-153,87.2l-1.3-4.3l-2.8-8.5c-0.1-0.3-0.4-0.4-0.6-0.3c-0.1,0.1-0.2,0.1-0.2,0.3l-2.8,8.5h-9.1l-2.2-6.7
		l-0.5-1.7v-0.1c-0.1-0.1-0.1-0.1-0.2-0.2c-0.1-0.1-0.4-0.1-0.5,0.1c-0.1,0.1-0.1,0.1-0.1,0.2l-2.8,8.5l-0.7,2.1l-0.7,2.2
		c-0.1,0.3-0.1,0.6,0.1,0.8c0.1,0.1,0.1,0.1,0.2,0.2l12,8.7l12-8.7c0.1-0.1,0.2-0.1,0.2-0.3C-152.9,87.7-152.9,87.4-153,87.2z"/>
</g>
</svg>
