<?xml version="1.0" encoding="utf-8"?>
<!-- Generator: Adobe Illustrator 19.0.1, SVG Export Plug-In . SVG Version: 6.00 Build 0)  -->
<!DOCTYPE svg PUBLIC "-//W3C//DTD SVG 1.1//EN" "http://www.w3.org/Graphics/SVG/1.1/DTD/svg11.dtd">
<svg version="1.1" id="Layer_1" xmlns:sketch="http://www.bohemiancoding.com/sketch/ns"
	 xmlns="http://www.w3.org/2000/svg" xmlns:xlink="http://www.w3.org/1999/xlink" x="0px" y="0px" width="33px" height="33px"
	 viewBox="-108 39 33 33" style="enable-background:new -108 39 33 33;" xml:space="preserve">
<style type="text/css">
	.st0{fill:#FFFFFF;}
</style>
<g>
	<path class="st0" d="M-91.5,39.5c-8.8,0-16,7.2-16,16s7.2,16,16,16s16-7.2,16-16S-82.7,39.5-91.5,39.5z M-79.5,58.2l-12,8.7
		l-12-8.7c-0.1-0.1-0.1-0.1-0.2-0.2c-0.1-0.2-0.1-0.5-0.1-0.8l0.7-2.2l0.7-2.1l2.8-8.5c0.1-0.1,0.1-0.1,0.1-0.2
		c0.1-0.1,0.4-0.1,0.5-0.1c0.1,0.1,0.1,0.1,0.2,0.2v0.1l0.5,1.7l2.2,6.7h9.1l2.8-8.5c0-0.1,0.1-0.2,0.2-0.3c0.2-0.1,0.5,0,0.6,0.3
		l2.8,8.5l1.3,4.3c0.1,0.2,0.1,0.5-0.1,0.7C-79.3,58.1-79.4,58.1-79.5,58.2z"/>
	<path d="M-79.2,57.2l-1.3-4.3l-2.8-8.5c-0.1-0.3-0.4-0.4-0.6-0.3c-0.1,0.1-0.2,0.1-0.2,0.3l-2.8,8.5H-96l-2.2-6.7l-0.5-1.7v-0.1
		c-0.1-0.1-0.1-0.1-0.2-0.2c-0.1-0.1-0.4-0.1-0.5,0.1c-0.1,0.1-0.1,0.1-0.1,0.2l-2.8,8.5l-0.7,2.1l-0.7,2.2
		c-0.1,0.3-0.1,0.6,0.1,0.8c0.1,0.1,0.1,0.1,0.2,0.2l12,8.7l12-8.7c0.1-0.1,0.2-0.1,0.2-0.3C-79.1,57.7-79.1,57.4-79.2,57.2z"/>
</g>
</svg>
