<?xml version="1.0" encoding="utf-8"?>
<!-- Generator: Adobe Illustrator 19.0.1, SVG Export Plug-In . SVG Version: 6.00 Build 0)  -->
<!DOCTYPE svg PUBLIC "-//W3C//DTD SVG 1.1//EN" "http://www.w3.org/Graphics/SVG/1.1/DTD/svg11.dtd">
<svg version="1.1" id="Layer_1" xmlns="http://www.w3.org/2000/svg" xmlns:xlink="http://www.w3.org/1999/xlink" x="0px" y="0px"
	 width="33px" height="33px" viewBox="-108 39 33 33" style="enable-background:new -108 39 33 33;" xml:space="preserve">
<style type="text/css">
	.st0{fill:#FFFFFF;}
</style>
<title>Twitter icon</title>
<path class="st0" d="M-75,55.5c0,9.1-7.4,16.5-16.5,16.5S-108,64.6-108,55.5S-100.6,39-91.5,39S-75,46.4-75,55.5z M-94.5,64.2
	c7.3,0,11.3-6.1,11.3-11.3c0-0.2,0-0.3,0-0.5c0.8-0.6,1.5-1.3,2-2.1c-0.7,0.3-1.5,0.5-2.3,0.6c0.8-0.5,1.5-1.3,1.7-2.2
	c-0.8,0.5-1.6,0.8-2.5,1c-0.7-0.8-1.8-1.3-2.9-1.3c-2.2,0-4,1.8-4,4c0,0.3,0,0.6,0.1,0.9c-3.3-0.2-6.2-1.7-8.2-4.2
	c-0.3,0.6-0.5,1.3-0.5,2c0,1.4,0.7,2.6,1.8,3.3c-0.7,0-1.3-0.2-1.8-0.5v0c0,1.9,1.4,3.5,3.2,3.9c-0.3,0.1-0.7,0.1-1,0.1
	c-0.3,0-0.5,0-0.8-0.1c0.5,1.6,2,2.7,3.7,2.8c-1.4,1.1-3.1,1.7-4.9,1.7c-0.3,0-0.6,0-0.9-0.1C-98.9,63.5-96.8,64.2-94.5,64.2"/>
</svg>
