<?xml version="1.0" encoding="utf-8"?>
<!-- Generator: Adobe Illustrator 19.0.1, SVG Export Plug-In . SVG Version: 6.00 Build 0)  -->
<!DOCTYPE svg PUBLIC "-//W3C//DTD SVG 1.1//EN" "http://www.w3.org/Graphics/SVG/1.1/DTD/svg11.dtd">
<svg version="1.1" id="Layer_1" xmlns="http://www.w3.org/2000/svg" xmlns:xlink="http://www.w3.org/1999/xlink" x="0px" y="0px"
	 width="250px" height="110px" viewBox="0 0 250 110" style="enable-background:new 0 0 250 110;" xml:space="preserve">
<style type="text/css">
	.st0{fill:#FFFFFF;}
</style>
<g>
	<g>
		<path class="st0" d="M53.7,43.7H57c3,0,4.3,0.9,4.3,2.9c0,1.7-1.3,2.8-4,2.8h-3.6V43.7z M49.7,62.6h8c4.2,0,8.4-1.5,8.4-6.4
			c0-2.9-2-5.1-4.8-5.4v-0.1c2.3-0.7,3.9-2.4,3.9-4.9c0-4.1-3.5-5.6-6.8-5.6h-8.7V62.6z M53.7,52.8h3.8c3.2,0,4.7,0.8,4.7,3.1
			c0,2.9-2.8,3.3-4.9,3.3h-3.6V52.8z"/>
	</g>
	<g>
		<rect x="68.8" y="39.8" class="st0" width="3.8" height="22.8"/>
	</g>
	<g>
		<path class="st0" d="M78.8,55.1c0-2.4,1.7-4.5,4.4-4.5s4.4,2.2,4.4,4.5s-1.7,4.5-4.4,4.5C80.5,59.6,78.8,57.4,78.8,55.1
			 M75.1,55.1c0,4.7,3.6,7.9,8.2,7.9c4.6,0,8.2-3.2,8.2-7.9s-3.7-7.9-8.2-7.9C78.7,47.1,75.1,50.3,75.1,55.1"/>
	</g>
	<g>
		<path class="st0" d="M97,55.1c0-2.4,1.7-4.5,4.4-4.5c2.8,0,4.4,2.2,4.4,4.5s-1.7,4.5-4.4,4.5S97,57.4,97,55.1 M93.2,55.1
			c0,4.7,3.6,7.9,8.2,7.9c4.6,0,8.2-3.2,8.2-7.9s-3.7-7.9-8.2-7.9C96.8,47.1,93.2,50.3,93.2,55.1"/>
	</g>
	<g>
		<path class="st0" d="M111.9,47.5h3.6v2.4h0.1c0.7-1.4,2.1-2.7,4.6-2.7c2.3,0,3.9,0.9,4.7,2.8c1.1-1.9,2.7-2.8,5-2.8
			c4,0,5.4,2.9,5.4,6.5v9h-3.8v-8.6c0-1.9-0.6-3.5-2.8-3.5c-2.4,0-3.2,1.9-3.2,3.9v8.2h-3.8v-9c0-1.9-0.8-3.1-2.6-3.1
			c-2.5,0-3.5,1.8-3.5,3.8v8.2h-3.8C111.9,62.6,111.9,47.5,111.9,47.5z"/>
	</g>
	<g>
		<path class="st0" d="M150.9,55.1c0,2.4-1.7,4.5-4.4,4.5c-2.8,0-4.4-2.2-4.4-4.5c0-2.4,1.7-4.5,4.4-4.5
			C149.2,50.5,150.9,52.7,150.9,55.1 M138.4,62.6h3.6v-2.3h0.1c1.1,1.8,3.1,2.6,5.2,2.6c4.6,0,7.5-3.5,7.5-7.9c0-4.5-3-7.9-7.3-7.9
			c-2.8,0-4.3,1.3-5.1,2.3h-0.1v-9.6h-3.8L138.4,62.6L138.4,62.6z"/>
	</g>
	<g>
		<path class="st0" d="M160.1,53.6c0.3-2.2,1.7-3.6,3.9-3.6c2.4,0,3.8,1.4,3.8,3.6H160.1z M171.7,56.4v-1c0-5.3-2.9-8.2-7.1-8.2
			c-4.6,0-8.2,3.2-8.2,7.9s3.6,7.9,8.2,7.9c2.4,0,4.6-0.8,6.4-3l-2.7-2c-0.9,1.2-2.2,2-4.1,2c-2.1,0-3.8-1.4-4.1-3.6H171.7z"/>
	</g>
	<g>
		<path class="st0" d="M174.1,47.5h3.8v2.4h0.1c0.8-1.7,2.5-2.8,4.5-2.8c0.5,0,0.9,0.1,1.4,0.2V51c-0.6-0.2-1.2-0.3-1.8-0.3
			c-3.6,0-4.1,3-4.1,3.8v8.1h-3.8L174.1,47.5L174.1,47.5z"/>
	</g>
	<g>
		<path class="st0" d="M192.2,50.5c2.7,0,4.5,1.8,4.5,4.4c0,2.5-1.7,4.4-4.5,4.4c-2.5,0-4.4-2-4.4-4.4
			C187.8,52.4,189.6,50.5,192.2,50.5 M196.7,47.5v2.3h-0.1c-1.1-1.8-3.1-2.6-5.2-2.6c-4.7,0-7.5,3.5-7.5,7.9c0,4.3,3,7.7,7.5,7.7
			c1.9,0,3.8-0.7,4.9-2.2h0.1v1.1c0,3-1.1,5.1-4.8,5.1c-2.1,0-3.7-0.8-5.2-2.2l-2.3,3.1c2.1,1.9,4.7,2.5,7.5,2.5
			c5.9,0,8.5-3.5,8.5-8.9V47.5H196.7z"/>
	</g>
</g>
</svg>
