<?xml version="1.0" encoding="utf-8"?>
<!-- Generator: Adobe Illustrator 19.0.1, SVG Export Plug-In . SVG Version: 6.00 Build 0)  -->
<!DOCTYPE svg PUBLIC "-//W3C//DTD SVG 1.1//EN" "http://www.w3.org/Graphics/SVG/1.1/DTD/svg11.dtd">
<svg version="1.1" id="Layer_1" xmlns="http://www.w3.org/2000/svg" xmlns:xlink="http://www.w3.org/1999/xlink" x="0px" y="0px"
	 width="238px" height="100px" viewBox="0 0 238 100" style="enable-background:new 0 0 238 100;" xml:space="preserve">
<style type="text/css">
	.st0{fill:#FFFFFF;}
	.st1{fill:#E9BB1F;}
	.st2{fill:#56C0AA;}
	.st3{fill:none;stroke:#4DA6DC;stroke-width:0;stroke-linecap:round;stroke-linejoin:round;}
	.st4{fill:#4DA6DC;}
	.st5{fill:#201B1C;}
	.st6{fill:#D19C2A;}
	.st7{fill:#359E8D;}
</style>
<g>
	<path class="st0" d="M105.1,46.6L105.1,46.6c1.1,0,2.6,0.1,4.5,0.4l0.1-1.6l-0.7-0.1c-1.6-0.2-2.9-0.4-3.9-0.4
		c-1.3,0-2.4,0.3-3.3,0.9c-0.9,0.6-1.3,1.5-1.3,2.7c0,1.2,0.3,2.1,0.9,2.5c0.6,0.5,1.7,0.8,3.2,1c1.5,0.2,2.5,0.5,2.9,0.8
		c0.4,0.3,0.7,0.8,0.7,1.5c0,0.7-0.3,1.3-0.8,1.6c-0.5,0.3-1.3,0.5-2.3,0.5c-1,0-2.4-0.1-4.4-0.4l-0.1,1.7l0.8,0.1
		c1.4,0.2,2.7,0.4,3.7,0.4c1.6,0,2.8-0.3,3.7-0.9c0.8-0.6,1.3-1.6,1.3-2.9c0-1.3-0.3-2.2-0.9-2.7c-0.6-0.5-1.7-0.8-3.2-1.1
		c-1.5-0.3-2.5-0.5-2.9-0.8c-0.4-0.2-0.6-0.7-0.6-1.3C102.3,47.3,103.2,46.6,105.1,46.6z"/>
	<path class="st0" d="M113.5,41.3v3.9h-1.8v1.7h1.8v6.7c0,1.8,0.3,3,0.8,3.7c0.5,0.6,1.4,1,2.7,1c0.6,0,1.5-0.1,2.6-0.3l-0.1-1.6
		l-2.3,0.2c-0.8,0-1.3-0.2-1.5-0.7c-0.2-0.5-0.3-1.4-0.3-2.9v-6.1h4l0,0v-1.7h-4v-3.9H113.5z"/>
	<path class="st0" d="M128,46.4c-0.8,1-1.2,2.7-1.2,5.1c0,2.4,0.4,4.1,1.1,5.2c0.8,1,2.1,1.5,4.1,1.5c0.8,0,2-0.1,3.5-0.4l-0.1-1.6
		l-3,0.2c-1.5,0-2.5-0.4-3-1.1c-0.5-0.7-0.7-2-0.7-3.9c0-1.9,0.3-3.1,0.8-3.8c0.5-0.7,1.5-1,2.9-1c0.6,0,1.6,0.1,3,0.2l0.1-1.6
		l-0.6-0.1c-1.3-0.2-2.3-0.3-2.9-0.3l0,0C130.2,44.9,128.8,45.4,128,46.4z"/>
	<polygon class="st0" points="123.7,40.1 121.8,40.1 121.8,42.3 121.8,42.3 123.7,42.3 	"/>
	<path class="st0" d="M91.4,50.5c-1.3,0.1-2.3,0.5-3,1.1c-0.6,0.6-0.9,1.5-0.9,2.7c0,1.2,0.3,2.2,0.9,2.9c0.6,0.7,1.5,1,2.7,1
		c1.5,0,3.1-0.3,4.6-1c0.7,0.7,1.7,1,3,1l0.1-1.5c-0.9-0.1-1.4-0.5-1.5-1.1V49l0,0c0-1.4-0.3-2.4-1-3.1c-0.7-0.7-1.7-1-3.1-1
		c-1.4,0-3.1,0.2-5,0.6l0.1,1.5l0.8-0.1c1.5-0.2,2.9-0.3,4.2-0.3c0.6,0,1.2,0.2,1.5,0.6c0.4,0.4,0.6,1,0.6,1.9v1.1L91.4,50.5z
		 M95.4,55.8L94.8,56c-1.1,0.4-2.3,0.6-3.4,0.6c-1.3,0-1.9-0.8-1.9-2.3l0,0c0-0.7,0.2-1.3,0.5-1.6c0.3-0.4,0.9-0.6,1.7-0.7l3.8-0.4
		V55.8z"/>
	<path class="st0" d="M79.5,50.9c0-2.1-0.4-3.6-1.3-4.5c-0.8-1-2.1-1.4-3.8-1.4c-3.5,0-5.3,2.2-5.3,6.7c0,2.2,0.4,3.9,1.1,5
		c0.8,1.1,2.1,1.6,3.9,1.6c1.4,0,3-0.1,5-0.4L79,56.3l-0.7,0.1l0,0c-1.3,0.1-2.6,0.2-3.9,0.2c-1.3,0-2.2-0.3-2.7-1
		c-0.5-0.7-0.8-1.7-0.8-3.1h8.4L79.5,50.9z M71,50.8c0-1.5,0.3-2.6,0.9-3.3c0.6-0.7,1.4-1,2.5-1c1.1,0,1.9,0.3,2.4,1
		c0.5,0.6,0.8,1.7,0.8,3.3L71,50.8z"/>
	<rect x="82.5" y="39.6" class="st0" width="1.9" height="18.3"/>
	<path class="st0" d="M185.2,46.4c-0.8,1-1.2,2.7-1.2,5.1c0,2.4,0.4,4.1,1.1,5.2c0.8,1,2.1,1.5,4.1,1.5c0.8,0,2-0.1,3.5-0.4
		l-0.1-1.6l-3,0.2c-1.5,0-2.5-0.4-3-1.1c-0.5-0.7-0.7-2-0.7-3.9c0-1.9,0.3-3.1,0.8-3.8c0.5-0.7,1.5-1,2.9-1c0.6,0,1.6,0.1,3,0.2
		l0.1-1.6l-0.6-0.1c-1.3-0.2-2.3-0.3-2.9-0.3l0,0C187.3,44.9,186,45.4,185.2,46.4z"/>
	<path class="st0" d="M175.9,45.2v12.7l0,0h1.9v-9.3l0.6-0.3c0.4-0.2,1-0.5,1.8-0.8c0.8-0.3,1.5-0.5,2.2-0.6v-1.9
		c-1.6,0.3-3.2,1-4.7,2v-1.7H175.9z"/>
	<path class="st0" d="M201.4,44.9c-1.3,0-2.6,0.3-3.9,1v-6.3h-1.9v18.3h1.9l0,0V47.4l0.5-0.2c1-0.4,2-0.6,3.1-0.6
		c1.1,0,1.9,0.3,2.2,1c0.3,0.7,0.5,1.9,0.5,3.6v6.7h1.9v-6.7c0-2.3-0.3-4-0.9-4.9C204.2,45.4,203.1,44.9,201.4,44.9z"/>
	<path class="st0" d="M166.3,50.5c-1.3,0.1-2.3,0.5-3,1.1c-0.6,0.6-0.9,1.5-0.9,2.7c0,1.2,0.3,2.2,0.9,2.9c0.6,0.7,1.5,1,2.7,1
		c1.5,0,3.1-0.3,4.6-1c0.7,0.7,1.7,1,3,1l0.1-1.5c-0.9-0.1-1.4-0.5-1.5-1.1V49h0c0-1.4-0.3-2.4-1-3.1c-0.7-0.7-1.7-1-3.1-1
		c-1.4,0-3.1,0.2-5,0.6l0.1,1.5l0.8-0.1c1.5-0.2,2.9-0.3,4.2-0.3c0.6,0,1.2,0.2,1.5,0.6c0.4,0.4,0.6,1,0.6,1.9v1.1L166.3,50.5z
		 M170.3,55.8l-0.6,0.2c-1.1,0.4-2.3,0.6-3.4,0.6c-1.3,0-1.9-0.8-1.9-2.3l0,0c0-0.7,0.2-1.3,0.5-1.6c0.3-0.4,0.9-0.6,1.7-0.7
		l3.8-0.4V55.8z"/>
	<path class="st0" d="M160.2,50.9c0-2.1-0.4-3.6-1.3-4.5c-0.8-1-2.1-1.4-3.8-1.4c-3.5,0-5.3,2.2-5.3,6.7c0,2.2,0.4,3.9,1.1,5
		c0.8,1.1,2.1,1.6,3.9,1.6c1.4,0,3-0.1,5-0.4l-0.1-1.5l-0.7,0.1l0,0c-1.3,0.1-2.6,0.2-3.9,0.2c-1.3,0-2.2-0.3-2.7-1
		c-0.5-0.7-0.8-1.7-0.8-3.1h8.4L160.2,50.9z M151.7,50.8c0-1.5,0.3-2.6,0.9-3.3c0.6-0.7,1.4-1,2.5-1s1.9,0.3,2.4,1
		c0.5,0.6,0.8,1.7,0.8,3.3H151.7z"/>
	<path class="st0" d="M142.5,46.6L142.5,46.6c1.1,0,2.6,0.1,4.5,0.4l0.1-1.6l-0.7-0.1c-1.6-0.2-2.9-0.4-3.9-0.4
		c-1.3,0-2.4,0.3-3.3,0.9c-0.9,0.6-1.3,1.5-1.3,2.7s0.3,2.1,0.9,2.5c0.6,0.5,1.7,0.8,3.2,1c1.5,0.2,2.5,0.5,2.9,0.8
		c0.4,0.3,0.7,0.8,0.7,1.5c0,0.7-0.3,1.3-0.8,1.6c-0.5,0.3-1.3,0.5-2.3,0.5s-2.4-0.1-4.4-0.4l-0.1,1.7l0.8,0.1
		c1.4,0.2,2.7,0.4,3.7,0.4c1.6,0,2.8-0.3,3.7-0.9c0.8-0.6,1.3-1.6,1.3-2.9c0-1.3-0.3-2.2-0.9-2.7c-0.6-0.5-1.7-0.8-3.2-1.1
		c-1.5-0.3-2.5-0.5-2.9-0.8c-0.4-0.2-0.6-0.7-0.6-1.3C139.7,47.3,140.6,46.6,142.5,46.6z"/>
	<rect x="121.8" y="45.2" class="st0" width="1.9" height="12.7"/>
	<path class="st1" d="M45.4,43.1H33.9c0,0,0,0,0,0h20.8v0c2.3,0,4.3-1,5.7-2.7c-2.7-3.5-6.9-5.9-11.6-6.1h-1.6
		c-2.6,0.1-5,0.9-7.1,2.1C42.4,38.2,44.2,40.5,45.4,43.1z"/>
	<path class="st2" d="M54.7,56.8h-9c-1.1,2.7-2.9,5.1-5.2,6.9c-2.9-1.5-5.2-4-6.7-6.9h0c2.5,5.2,7.9,8.8,14.1,8.8
		c5.1,0,9.6-2.4,12.4-6.2C59,57.9,57,56.8,54.7,56.8z"/>
	<line class="st3" x1="52.8" y1="54.4" x2="52.8" y2="54.4"/>
	<path class="st4" d="M46,45.6h-13c0,0,0,0,0,0L46,45.6L46,45.6z"/>
	<path class="st4" d="M46,54.4h6.8c2.4,0,4.4-2,4.4-4.4c0-2.4-2-4.4-4.4-4.4H46c0.3,1.3,0.6,2.8,0.6,4.4
		C46.5,51.6,46.3,53.1,46,54.4z"/>
	<path class="st5" d="M46.5,50c0-1.6-0.2-3.1-0.6-4.4l0,0H32.9c-0.4,1.4-0.6,2.9-0.6,4.4c0,1.5,0.2,3,0.6,4.4H46
		C46.3,53.1,46.5,51.6,46.5,50z"/>
	<path class="st6" d="M40.1,36.5C40.1,36.5,40.1,36.5,40.1,36.5c-2.7,1.6-4.8,3.9-6.2,6.7h0h11.5C44.2,40.5,42.4,38.2,40.1,36.5z"/>
	<path class="st7" d="M40.6,63.8c2.3-1.8,4-4.2,5.2-6.9c0,0,0,0,0,0H33.9c0,0,0,0,0,0C35.4,59.8,37.7,62.2,40.6,63.8z"/>
</g>
</svg>
