<?xml version="1.0" encoding="utf-8"?>
<!-- Generator: Adobe Illustrator 19.0.1, SVG Export Plug-In . SVG Version: 6.00 Build 0)  -->
<!DOCTYPE svg PUBLIC "-//W3C//DTD SVG 1.1//EN" "http://www.w3.org/Graphics/SVG/1.1/DTD/svg11.dtd">
<svg version="1.1" id="Layer_1" xmlns="http://www.w3.org/2000/svg" xmlns:xlink="http://www.w3.org/1999/xlink" x="0px" y="0px"
	 width="250px" height="110px" viewBox="0 0 250 110" style="enable-background:new 0 0 250 110;" xml:space="preserve">
<style type="text/css">
	.st0{fill:none;}
	.st1{fill:#8C929D;}
	.st2{fill:#FC6D26;}
	.st3{fill:#E24329;}
	.st4{fill:#FCA326;}
</style>
<g>
	<path class="st0" d="M194.8,62.9c0,1.9,1.4,3.3,4.3,3.3c2.2,0,3.9-1,4.9-2V59c-1-0.1-2.1-0.2-2.9-0.2
		C196.9,58.8,194.8,60.1,194.8,62.9z"/>
	<polygon class="st0" points="101.2,45.9 101.2,45.9 101.2,45.9 	"/>
	<path class="st0" d="M220.9,50.7c-2,0-3.9,0.8-4.9,1.9V54v11.8c1,0.4,2.2,0.6,3.6,0.6c4.1,0,6.4-2.8,6.4-8.8
		C226.1,53.3,224.6,50.7,220.9,50.7z"/>
	<polygon class="st1" points="177.2,41 173.4,41 173.4,69 189,69 189,66 177.2,66 	"/>
	<path class="st1" d="M199.5,47c-3.1,0-5.8,1.1-8,2.9l1.4,2.3c1.6-0.9,3.7-1.8,6.4-1.8c3.1,0,4.7,1.6,4.7,4.3v1.4
		c-1-0.1-2.1-0.2-2.9-0.2c-6.7,0-10.2,2.3-10.2,7.2c0,4.4,2.6,6.6,6.7,6.6c2.7,0,5.4-1.4,6.3-3.4l0.7,2.7h2.4V54.7
		C207,50.1,205.2,47,199.5,47z M204,64.2c-1,1-2.8,2-4.9,2c-2.9,0-4.2-1.4-4.2-3.3c0-2.8,2.1-4.2,6.3-4.2c0.8,0,1.8,0.1,2.8,0.2
		V64.2z"/>
	<path class="st1" d="M221.2,47c-3.4,0-5.2,2.3-5.2,2.3v-3.7l0-4.7h-1.7h-2l0,27.6c1.9,0.8,4.4,1.2,7.2,1.2
		c7.1,0,10.5-4.6,10.5-12.4C230,51.1,226.8,47,221.2,47z M219.6,66.3c-1.4,0-2.6-0.2-3.6-0.6V54v-1.4c1-1.1,2.9-1.9,4.9-1.9
		c3.7,0,5.1,2.6,5.1,6.8C226.1,63.5,223.8,66.3,219.6,66.3z"/>
	<path class="st1" d="M135.7,43.9c3.4,0,5.6,1.1,7,2.3l1.6-2.8c-2.2-2-5.2-3-8.5-3c-8.1,0-13.8,4.9-13.8,14.9
		c0,10.5,6.1,14.5,13.1,14.5c3.5,0,6.7-0.8,8.6-1.6l0.1-11.2v-1.3V53h-11v4h6.9l0.1,8.4c-0.9,0.4-2.4,0.8-4.4,0.8
		c-5.6,0-9.4-3.6-9.4-11C126.1,47.6,130,43.9,135.7,43.9z"/>
	<path class="st1" d="M162.6,41h-3.7l0.1,4.6v2v1.1v2V62v0c0,4.6,2,7.7,7.7,7.7c0.8,0,1.3-0.1,2.3-0.2v-3.3c-1,0.1-1,0.1-1.6,0.1
		c-3.1,0-4.4-1.6-4.4-4.3V51h6v-3h-6.4L162.6,41z"/>
	<rect x="149" y="48" class="st1" width="4" height="21"/>
	<rect x="149" y="41" class="st1" width="4" height="4"/>
	<path class="st2" d="M104.8,64.4L63.1,94.7v0l0,0l0,0L104.8,64.4c0.4-0.3,0.8-0.7,1-1.2C105.5,63.6,105.2,64,104.8,64.4z"/>
	<path class="st2" d="M36.8,15.5c0.2,0.1,0.4,0.2,0.6,0.5C37.2,15.8,37,15.6,36.8,15.5z"/>
	<path class="st2" d="M71,70.3l-7.9,24.4l38.1-48.7l0,0.1H78.9l9.6-29.5c0.2-0.5,0.5-0.8,0.8-1c-0.4,0.2-0.7,0.5-0.8,0.9l-9.6,29.4
		l0,0L71,70.3z"/>
	<polygon class="st2" points="25,46 63.1,94.7 55.1,70.3 47.2,45.9 47.2,45.9 41.2,27.3 47.2,46 	"/>
	<path class="st2" d="M34.5,16.5c0.1-0.2,0.1-0.4,0.3-0.5C34.7,16.1,34.6,16.3,34.5,16.5L25,45.9l-1.6,4.9l1.6-4.9L34.5,16.5z"/>
	<rect x="63.1" y="94.7" class="st3" width="0" height="0"/>
	<polygon class="st3" points="63.1,94.7 63.1,94.7 63.1,94.7 63.1,94.7 63.1,94.7 63.1,94.7 	"/>
	<polygon class="st3" points="55.1,70.3 63.1,94.7 63.1,94.7 63.1,94.7 71,70.3 78.9,45.9 78.9,46 47.2,46 47.2,45.9 	"/>
	<path class="st2" d="M63.1,94.7L63.1,94.7L21.4,64.4c-0.4-0.3-0.8-0.7-1-1.2c0.2,0.5,0.6,0.9,1,1.2L63.1,94.7L63.1,94.7L63.1,94.7
		L63.1,94.7z"/>
	<path class="st4" d="M21.4,64.4l41.7,30.3l0,0l0,0L25,45.9l-1.6,4.9l-3.2,9.9c-0.2,0.7-0.2,1.4,0,2c0.1,0.2,0.1,0.3,0.2,0.5
		C20.6,63.6,20.9,64,21.4,64.4z"/>
	<path class="st3" d="M25,46h22.2l-6-18.7l-3.5-10.8c-0.1-0.2-0.1-0.4-0.3-0.5c-0.2-0.2-0.4-0.4-0.6-0.5c-0.7-0.3-1.5-0.2-2,0.5
		c-0.1,0.1-0.2,0.4-0.3,0.6L25,46z"/>
	<path class="st4" d="M101.2,45.9L101.2,45.9L63.1,94.7l0,0l0,0l41.7-30.3c0.4-0.3,0.8-0.7,1-1.2c0.1-0.2,0.1-0.3,0.2-0.5
		c0.2-0.6,0.2-1.4,0-2L101.2,45.9z"/>
	<path class="st3" d="M88.5,16.5L78.9,46h22.2l0-0.1l-9.6-29.4c-0.3-1-1.5-1.3-2.3-0.9C88.9,15.7,88.6,16.1,88.5,16.5z"/>
</g>
</svg>
