<?xml version="1.0" encoding="utf-8"?>
<!-- Generator: Adobe Illustrator 19.0.1, SVG Export Plug-In . SVG Version: 6.00 Build 0)  -->
<!DOCTYPE svg PUBLIC "-//W3C//DTD SVG 1.1//EN" "http://www.w3.org/Graphics/SVG/1.1/DTD/svg11.dtd">
<svg version="1.1" id="Layer_1" xmlns="http://www.w3.org/2000/svg" xmlns:xlink="http://www.w3.org/1999/xlink" x="0px" y="0px"
	 width="238px" height="100px" viewBox="0 0 238 100" style="enable-background:new 0 0 238 100;" xml:space="preserve">
<style type="text/css">
	.st0{fill:#E6E7E8;}
	.st1{fill:url(#SVGID_1_);}
</style>
<g>
	<g>
		<path class="st0" d="M105.2,51.4c-0.2,6.3-5.2,11.1-11.3,11.1c-6.5,0-11.3-5.2-11.3-11.6c0-6.4,5.2-11.6,11.6-11.6
			c2.9,0,5.7,1.2,8,3.5l-1.8,2.3c-1.8-1.6-4-2.6-6.2-2.6c-4.7,0-8.5,3.8-8.5,8.5c0,4.8,3.6,8.5,8.2,8.5c4.1,0,7.4-3,8-6.9h-9.4v-2.7
			h12.7V51.4z"/>
		<path class="st0" d="M116,49.9h-1.7c-1.9,0-3.5,1.5-3.5,3.5v9h-3.1V46.9h2.5v1.3c0.8-0.8,2.2-1.3,3.6-1.3h3.3L116,49.9z"/>
		<path class="st0" d="M132.7,62.4h-2.6v-1.9c-2,2-5.2,2.9-8.5,1.5c-2.4-1.1-4.2-3.2-4.7-5.8c-0.9-5,2.9-9.4,7.8-9.4
			c2.1,0,3.9,0.8,5.3,2.2v-1.9h2.6V62.4z M129.6,55.8c0.7-3.1-1.6-6-4.7-6c-2.7,0-4.8,2.2-4.8,4.8c0,3,2.6,5.3,5.7,4.8
			C127.6,59.1,129.2,57.6,129.6,55.8z"/>
		<path class="st0" d="M138.9,46.1v0.9h4.9v2.7h-4.9v12.7h-3V46.2c0-3.4,2.4-5.4,5.5-5.4h3.7l-1.2,2.9h-2.5
			C140,43.7,138.9,44.8,138.9,46.1z"/>
		<path class="st0" d="M160.2,62.4h-2.6v-1.9c-2,2-5.2,2.9-8.5,1.5c-2.4-1.1-4.2-3.2-4.7-5.8c-0.9-5,2.9-9.4,7.8-9.4
			c2.1,0,3.9,0.8,5.3,2.2v-1.9h2.6V62.4z M157,55.8c0.7-3.1-1.6-6-4.7-6c-2.7,0-4.8,2.2-4.8,4.8c0,3,2.6,5.3,5.7,4.8
			C155,59.1,156.6,57.6,157,55.8z"/>
		<path class="st0" d="M176.6,53.2v9.1h-3.1v-9.1c0-1.9-1.6-3.5-3.5-3.5c-1.9,0-3.5,1.5-3.5,3.5v9.1h-3.1V46.9h2.6v1.3
			c1.1-1,2.6-1.6,4.1-1.6C173.8,46.7,176.6,49.6,176.6,53.2z"/>
		<path class="st0" d="M194.7,62.4h-2.6v-1.9c-2,2-5.2,2.9-8.5,1.5c-2.4-1.1-4.2-3.2-4.7-5.8c-0.9-5,2.9-9.4,7.8-9.4
			c2.1,0,3.9,0.8,5.3,2.2v-1.9h2.6V62.4z M191.6,55.8c0.7-3.1-1.6-6-4.7-6c-2.7,0-4.8,2.2-4.8,4.8c0,3,2.6,5.3,5.7,4.8
			C189.6,59.1,191.2,57.6,191.6,55.8z"/>
	</g>
	<linearGradient id="SVGID_1_" gradientUnits="userSpaceOnUse" x1="59.748" y1="75.9675" x2="59.748" y2="43.2399">
		<stop  offset="0" style="stop-color:#FFF100"/>
		<stop  offset="1" style="stop-color:#F05A28"/>
	</linearGradient>
	<path class="st1" d="M76.2,47.9c-0.1-0.6-0.2-1.3-0.4-2.1c-0.2-0.8-0.5-1.6-0.9-2.5c-0.4-0.9-1-1.8-1.7-2.6c-0.3-0.3-0.6-0.7-0.9-1
		c0.5-2-0.6-3.7-0.6-3.7c-1.9-0.1-3.2,0.6-3.6,0.9c-0.1,0-0.2-0.1-0.2-0.1c-0.3-0.1-0.7-0.3-1-0.4c-0.3-0.1-0.7-0.2-1.1-0.3
		c-0.4-0.1-0.7-0.2-1.1-0.2c-0.1,0-0.1,0-0.2,0c-0.8-2.7-3.3-3.8-3.3-3.8c-2.7,1.7-3.2,4.1-3.2,4.1s0,0.1,0,0.1
		c-0.1,0-0.3,0.1-0.4,0.1c-0.2,0.1-0.4,0.1-0.6,0.2c-0.2,0.1-0.4,0.2-0.6,0.2c-0.4,0.2-0.8,0.4-1.2,0.6c-0.4,0.2-0.8,0.5-1.1,0.7
		c-0.1,0-0.1,0-0.1,0c-3.7-1.4-7,0.3-7,0.3c-0.3,4,1.5,6.5,1.8,6.9c-0.1,0.2-0.2,0.5-0.2,0.7c-0.3,0.9-0.5,1.8-0.6,2.8
		c0,0.1,0,0.3,0,0.4c-3.4,1.7-4.5,5.2-4.5,5.2c2.9,3.3,6.2,3.5,6.2,3.5c0,0,0,0,0,0c0.4,0.8,0.9,1.5,1.5,2.2
		c0.2,0.3,0.5,0.6,0.7,0.8c-1,3,0.1,5.5,0.1,5.5c3.2,0.1,5.3-1.4,5.7-1.8c0.3,0.1,0.6,0.2,1,0.3c1,0.3,2,0.4,3,0.4
		c0.3,0,0.5,0,0.8,0l0.1,0l0.1,0l0.2,0l0.2,0l0,0c1.5,2.2,4.2,2.5,4.2,2.5c1.9-2,2-4,2-4.4l0,0c0,0,0,0,0,0c0,0,0-0.1,0-0.1
		c0,0,0,0,0,0c0,0,0-0.1,0-0.1c0.4-0.3,0.8-0.6,1.1-0.9c0.8-0.7,1.4-1.5,2-2.3c0.1-0.1,0.1-0.2,0.2-0.2c2.1,0.1,3.6-1.3,3.6-1.3
		c-0.4-2.2-1.6-3.3-1.9-3.5l0,0c0,0,0,0,0,0c0,0,0,0,0,0s0,0,0,0c0,0,0,0,0,0c0-0.1,0-0.3,0-0.4c0-0.2,0-0.5,0-0.7l0-0.2l0-0.1l0,0
		c0-0.1,0,0,0-0.1l0-0.1l0-0.2c0-0.1,0-0.1,0-0.2c0-0.1,0-0.1,0-0.2l0-0.2l0-0.2c0-0.2-0.1-0.5-0.1-0.7c-0.2-1-0.6-1.9-1.1-2.7
		c-0.5-0.8-1.1-1.5-1.8-2.2c-0.7-0.6-1.5-1.1-2.3-1.5c-0.8-0.4-1.7-0.6-2.5-0.7c-0.4-0.1-0.9-0.1-1.3-0.1l-0.2,0l0,0
		c0,0-0.1,0-0.1,0l-0.1,0l-0.2,0c-0.1,0-0.1,0-0.2,0c-0.2,0-0.4,0.1-0.6,0.1c-0.8,0.2-1.6,0.5-2.3,0.9c-0.7,0.4-1.3,0.9-1.8,1.5
		c-0.5,0.6-0.9,1.3-1.1,1.9c-0.3,0.7-0.4,1.4-0.5,2.1c0,0.2,0,0.3,0,0.5c0,0,0,0.1,0,0.1l0,0.1c0,0.1,0,0.2,0,0.2
		c0,0.3,0.1,0.7,0.2,1c0.2,0.6,0.5,1.2,0.9,1.7c0.4,0.5,0.8,0.9,1.3,1.2c0.5,0.3,1,0.5,1.5,0.7c0.5,0.1,1,0.2,1.4,0.2
		c0.1,0,0.1,0,0.2,0c0,0,0.1,0,0.1,0c0,0,0.1,0,0.1,0c0,0,0.1,0,0.1,0c0,0,0,0,0,0l0,0c0,0,0.1,0,0.1,0c0.1,0,0.1,0,0.2,0
		c0.1,0,0.1,0,0.2,0c0.1,0,0.2-0.1,0.3-0.1c0.2-0.1,0.4-0.1,0.6-0.2c0.2-0.1,0.3-0.2,0.5-0.3c0,0,0.1-0.1,0.1-0.1
		c0.2-0.1,0.2-0.4,0.1-0.5c-0.1-0.1-0.3-0.2-0.5-0.1c0,0-0.1,0-0.1,0.1c-0.1,0.1-0.3,0.1-0.4,0.2c-0.1,0-0.3,0.1-0.5,0.1
		c-0.1,0-0.2,0-0.2,0c0,0-0.1,0-0.1,0c0,0-0.1,0-0.1,0c0,0-0.1,0-0.1,0c0,0-0.1,0-0.2,0c0,0,0,0,0,0l0,0l0,0c0,0,0,0-0.1,0
		c0,0-0.1,0-0.1,0c-0.4-0.1-0.7-0.2-1.1-0.3c-0.4-0.2-0.7-0.4-1-0.7c-0.3-0.3-0.6-0.6-0.8-1c-0.2-0.4-0.4-0.8-0.4-1.2
		c0-0.2,0-0.4,0-0.7c0-0.1,0-0.1,0-0.2c0,0,0,0,0,0l0,0l0,0c0,0,0-0.1,0-0.1c0-0.1,0-0.2,0.1-0.4c0.2-0.9,0.6-1.9,1.4-2.6
		c0.2-0.2,0.4-0.3,0.6-0.5c0.2-0.1,0.4-0.3,0.7-0.4c0.2-0.1,0.5-0.2,0.7-0.3c0.3-0.1,0.5-0.1,0.8-0.1c0.1,0,0.3,0,0.4,0
		c0,0,0.1,0,0.1,0l0.1,0l0.1,0c0,0,0,0,0,0l0,0l0.1,0c0.3,0,0.6,0.1,0.8,0.1c0.6,0.1,1.1,0.3,1.6,0.6c1,0.6,1.9,1.4,2.4,2.5
		c0.3,0.5,0.5,1.1,0.5,1.7c0,0.1,0,0.3,0.1,0.4l0,0.1l0,0.1c0,0,0,0.1,0,0.1c0,0,0,0.1,0,0.1l0,0.1l0,0.1c0,0.1,0,0.2,0,0.3
		c0,0.2,0,0.3,0,0.5c0,0.2,0,0.3-0.1,0.5c0,0.2-0.1,0.3-0.1,0.5c-0.1,0.3-0.2,0.6-0.3,0.9c-0.2,0.6-0.6,1.2-0.9,1.7
		c-0.8,1-1.8,1.9-3,2.4c-0.6,0.3-1.2,0.5-1.9,0.6c-0.3,0.1-0.6,0.1-1,0.1l-0.1,0l-0.1,0l-0.1,0l-0.2,0l-0.1,0c0,0,0,0,0,0l0,0
		c-0.2,0-0.3,0-0.5,0c-0.7-0.1-1.4-0.2-2-0.4c-0.7-0.2-1.3-0.4-1.9-0.8c-1.2-0.7-2.3-1.5-3.2-2.6c-0.4-0.5-0.8-1.1-1.1-1.7
		c-0.3-0.6-0.6-1.2-0.7-1.9c-0.2-0.6-0.3-1.3-0.3-2l0-0.1l0,0l0,0l0-0.1l0-0.1l0,0l0,0l0-0.1l0-0.2l0,0c0,0,0,0,0,0l0-0.1
		c0-0.1,0-0.2,0-0.2c0-0.3,0-0.7,0.1-1c0-0.3,0.1-0.7,0.2-1c0.1-0.3,0.2-0.7,0.2-1c0.2-0.7,0.4-1.3,0.7-1.9c0.6-1.2,1.3-2.3,2.2-3.1
		c0.2-0.2,0.4-0.4,0.7-0.6c0.2-0.2,0.5-0.4,0.7-0.5c0.3-0.2,0.5-0.3,0.8-0.5c0.1-0.1,0.3-0.1,0.4-0.2c0.1,0,0.1-0.1,0.2-0.1
		c0.1,0,0.1-0.1,0.2-0.1c0.3-0.1,0.6-0.2,0.9-0.3c0.1,0,0.1,0,0.2-0.1c0.1,0,0.1,0,0.2-0.1c0.1,0,0.3-0.1,0.4-0.1c0.1,0,0.1,0,0.2,0
		c0.1,0,0.1,0,0.2,0c0.1,0,0.2,0,0.2,0l0.1,0l0.1,0c0.1,0,0.2,0,0.2,0c0.1,0,0.2,0,0.3,0c0.1,0,0.2,0,0.3,0c0.1,0,0.1,0,0.2,0l0.1,0
		l0.1,0l0.1,0c0.1,0,0.2,0,0.3,0l0.1,0c0,0,0,0,0,0l0,0l0.1,0c0.1,0,0.1,0,0.2,0c0.3,0,0.6,0,0.9,0c0.6,0,1.1,0.1,1.7,0.2
		c1.1,0.2,2.1,0.6,3.1,1c0.9,0.5,1.8,1,2.5,1.6c0,0,0.1,0.1,0.1,0.1c0,0,0.1,0.1,0.1,0.1c0.1,0.1,0.2,0.2,0.3,0.2
		c0.1,0.1,0.2,0.2,0.2,0.2c0.1,0.1,0.2,0.2,0.2,0.2c0.3,0.3,0.6,0.7,0.8,1c0.5,0.7,0.9,1.3,1.3,2c0,0,0,0.1,0.1,0.1
		c0,0,0,0.1,0.1,0.1c0,0.1,0.1,0.2,0.1,0.2c0,0.1,0.1,0.2,0.1,0.2c0,0.1,0.1,0.2,0.1,0.2c0.1,0.3,0.2,0.6,0.3,0.8
		c0.2,0.4,0.3,0.8,0.3,1.2c0,0.1,0.2,0.2,0.3,0.2c0.1,0,0.3-0.1,0.3-0.3C76.2,48.8,76.2,48.4,76.2,47.9z"/>
</g>
</svg>
