<?xml version="1.0" encoding="utf-8"?>
<!-- Generator: Adobe Illustrator 19.0.1, SVG Export Plug-In . SVG Version: 6.00 Build 0)  -->
<!DOCTYPE svg PUBLIC "-//W3C//DTD SVG 1.1//EN" "http://www.w3.org/Graphics/SVG/1.1/DTD/svg11.dtd">
<svg version="1.1" id="Layer_1" xmlns="http://www.w3.org/2000/svg" xmlns:xlink="http://www.w3.org/1999/xlink" x="0px" y="0px"
	 width="250px" height="110px" viewBox="0 0 250 110" style="enable-background:new 0 0 250 110;" xml:space="preserve">
<style type="text/css">
	.st0{fill:#FFFFFF;}
</style>
<g>
	<path class="st0" d="M56.4,59.3l-4-17.5c-0.2-1-1.1-1.9-2.1-2.2L32,34c-0.2-0.1-0.5-0.1-0.8-0.1c-0.8,0-1.6,0.3-2.1,0.8L15.9,46.9
		c-0.7,0.6-1.1,1.9-0.9,2.8l4.3,18.7c0.2,1,1.1,1.9,2.1,2.2L38.6,76c0.2,0.1,0.5,0.1,0.8,0.1c0.8,0,1.6-0.3,2.1-0.8l14-13
		C56.3,61.5,56.6,60.3,56.4,59.3z M33.9,38.2L46.5,42c0.5,0.1,0.5,0.4,0,0.5l-6.6,1.5c-0.5,0.1-1.2-0.1-1.6-0.5l-4.6-5
		C33.3,38.2,33.4,38,33.9,38.2z M41.7,60.7c0.1,0.5-0.2,0.8-0.7,0.6l-13.6-4.2c-0.5-0.1-0.6-0.5-0.2-0.9l10.4-9.7
		c0.4-0.4,0.8-0.2,0.9,0.3L41.7,60.7z M19.4,48.4l11-10.3c0.4-0.4,1-0.3,1.3,0l5.5,6c0.4,0.4,0.3,1,0,1.3l-11,10.3
		c-0.4,0.4-1,0.3-1.3,0l-5.5-6C18.9,49.3,19,48.8,19.4,48.4z M22,64.7l-2.9-12.8c-0.1-0.5,0.1-0.6,0.4-0.2l4.6,5
		c0.4,0.4,0.5,1.1,0.4,1.6l-2,6.5C22.4,65.2,22.1,65.2,22,64.7z M38.2,72.2l-14.4-4.5c-0.5-0.1-0.8-0.7-0.6-1.2l2.4-7.8
		c0.1-0.5,0.7-0.8,1.2-0.6l14.4,4.4c0.5,0.1,0.8,0.7,0.6,1.2l-2.4,7.8C39.2,72.1,38.7,72.3,38.2,72.2z M51,61.8l-9.6,8.9
		c-0.4,0.4-0.5,0.2-0.4-0.3l2-6.5c0.1-0.5,0.7-1,1.2-1.1l6.6-1.5C51.2,61.2,51.3,61.4,51,61.8z M52,59.8l-7.9,1.8
		c-0.5,0.1-1-0.2-1.1-0.7l-3.4-14.7c-0.1-0.5,0.2-1,0.7-1.1l7.9-1.8c0.5-0.1,1,0.2,1.1,0.7l3.4,14.7C52.8,59.2,52.5,59.7,52,59.8z"
		/>
	<g>
		<path class="st0" d="M175,65.5c0,0.5,0.1,0.5,0.3,0.5h1.1c0.4,0,0.5-0.4,0.5-0.5l4.5-25.4c0.1-0.5-0.2-0.5-0.5-0.5l0,0l-1.2,0.2
			c-0.3,0-0.5,0.3-0.5,0.5l0,0l-1.3,7.4c-1.1-0.4-3.3-0.6-4.5-0.6c-4.7,0-7,1.8-7.9,6.9l-1.4,8c-0.1,0.5-0.1,1-0.1,1.4
			c0,2.3,1.3,3.1,3.6,3.1c2.7,0,5.5-1.3,7.6-3.1L175,65.5z M167.9,64.5c-1.1,0-1.7-0.3-1.7-1.5c0-0.3,0-0.6,0.1-1.1l1.3-7.6
			c0.7-4.2,2.1-5.3,5.6-5.3c1.5,0,3,0.2,4.5,0.6l-2,11.3C173.2,63,170.2,64.5,167.9,64.5z"/>
		<path class="st0" d="M193.9,65.5c0,0.5,0.1,0.5,0.4,0.5h1.1c0.4,0,0.5-0.4,0.5-0.5l0,0l3.1-17.2c-2.2-0.8-4.7-1.2-6.4-1.2
			c-5,0-7,2-7.9,6.9l-1.4,8c-0.1,0.5-0.1,1-0.1,1.4c0,2.3,1.3,3.1,3.6,3.1c2.7,0,5.3-1.3,7.5-3.1L193.9,65.5z M186.8,64.5
			c-1.1,0-1.7-0.3-1.7-1.5c0-0.3,0-0.6,0.1-1.1l1.3-7.6c0.7-4.1,2.1-5.3,5.6-5.3c1.6,0,3.3,0.3,4.4,0.6l-2,11.3
			C192.1,63,189.2,64.5,186.8,64.5z"/>
		<path class="st0" d="M224.4,65.5c0,0.5,0.1,0.5,0.3,0.5h1.1c0.4,0,0.5-0.4,0.5-0.5l0,0l3.1-17.2c-2.2-0.8-4.7-1.2-6.4-1.2
			c-5,0-7,2-7.9,6.9l-1.4,8c-0.1,0.5-0.1,1-0.1,1.4c0,2.3,1.3,3.1,3.6,3.1c2.7,0,5.3-1.3,7.5-3.1L224.4,65.5z M217.4,64.5
			c-1.1,0-1.7-0.3-1.7-1.5c0-0.3,0-0.6,0.1-1.1l1.3-7.6c0.7-4.1,2.1-5.3,5.6-5.3c1.6,0,3.3,0.3,4.4,0.6l-2,11.3
			C222.6,63,219.7,64.5,217.4,64.5z"/>
		<g>
			<path class="st0" d="M206.4,42.9L206.4,42.9L206.4,42.9z"/>
			<path class="st0" d="M212.8,49L212.8,49l0.3-1.2c0.1-0.3-0.1-0.3-0.3-0.3h-5.2l0.7-4.3l0,0c0.1-0.5-0.2-0.5-0.5-0.5l0,0l-1.2,0.2
				l0,0c-0.3,0-0.5,0.3-0.5,0.5l0,0l-0.7,4.1h-3.2c-0.1,0-0.4,0-0.4,0.3l-0.2,1.2l0,0c0,0.1,0,0.3,0.3,0.3h3.2l-2.5,14
				c0,0.3-0.1,0.5-0.1,0.7c0,1.7,1.2,2.5,3.1,2.5c1.5,0,4.1-0.4,5.4-1c0.4-0.2,0.4-0.5,0.3-0.7l0,0l-0.3-0.7c0-0.2-0.3-0.1-0.4-0.1
				l0,0c-1.3,0.5-2,0.8-4.6,0.8c-0.9,0-1.3-0.2-1.3-0.9c0-0.2,0-0.4,0.1-0.7l2.4-13.7h5.2C212.7,49.3,212.7,49.2,212.8,49z"/>
		</g>
		<path class="st0" d="M162.5,47.4h-5.3c-0.2,0-0.5,0.2-0.6,0.4l-3.8,5.5l-2.2-5.7c-0.1-0.3-0.4-0.4-0.7-0.4l-4.7,0.7l4,8.8
			l-7.4,9.4h5c0.3,0,0.8-0.2,1-0.5l3.5-4.2l2,4.2c0.1,0.2,0.4,0.5,0.7,0.5h4.9l-3.9-8.6L162.5,47.4z"/>
		<path class="st0" d="M139.5,65.7l3.2-18.2c0-0.4-0.2-0.4-0.5-0.3l-4.5,0.6c-0.5,0.1-0.6,0.4-0.6,0.6l0,0l-1.9,11
			c-1.4,0.7-3.8,1.8-4.8,1.8c-0.5,0-0.7-0.2-0.7-0.6c0-0.1,0-0.4,0.1-0.6l2.2-12.5l0,0c0-0.4-0.2-0.4-0.4-0.3l-4.5,0.6l0,0
			c-0.5,0.1-0.6,0.4-0.6,0.6l0,0l-2.1,12.1c-0.1,0.8-0.2,1.4-0.2,2.1c0,2.3,1,3.8,3.4,3.8c2.1,0,4.4-0.7,7.3-2.1l0,1.4
			c0,0.1,0,0.3,0.2,0.3h4.1C139.4,66,139.5,65.9,139.5,65.7z"/>
		<path class="st0" d="M95.3,47.1c-2.1,0-4.4,0.7-7.3,2.1l0-1.6c0-0.4-0.3-0.4-0.5-0.3l-3.5,0.6l0,0c-0.6,0.1-0.8,0.5-0.8,0.6
			l-2.9,16.8l0,0C80.1,66,80.1,66,80.7,66h4c0.5,0,0.7,0,0.8-0.8l2-11.2c1.5-0.8,3.8-1.8,4.8-1.8c0.5,0,0.7,0.1,0.7,0.5
			c0,0.1,0,0.4-0.1,0.6L91,65.2l0,0C90.8,66,90.9,66,91.5,66h4c0.5,0,0.7,0,0.8-0.8L98.5,53c0.1-1,0.2-1.5,0.2-2.1
			C98.7,48.5,97.8,47.1,95.3,47.1z"/>
		<g>
			<path class="st0" d="M79.8,38.9l-4.5,0.6c-0.5,0-0.6,0.4-0.6,0.6l-0.8,4.7c-0.1,0.5,0,0.5,0.5,0.5l4.4-0.6l0,0
				c0.5,0,0.5-0.1,0.6-0.7l0,0l0.9-4.8C80.3,38.9,80.2,38.9,79.8,38.9z"/>
			<path class="st0" d="M73.3,47.8L73.3,47.8L73.3,47.8z"/>
			<path class="st0" d="M75.6,65.2L75.6,65.2l3.1-17.7c0-0.4-0.2-0.4-0.5-0.3l-4.5,0.6l0,0c-0.5,0.1-0.6,0.4-0.6,0.6l0,0l-3,17
				c-0.1,0.6,0,0.7,0.6,0.7h4C75.2,66,75.5,66,75.6,65.2z"/>
		</g>
		<path class="st0" d="M119.8,65.2l4.5-25.7c0-0.4-0.1-0.4-0.4-0.3l-5.2,0.9c-2.3-0.6-5-0.9-6.5-0.9c-4.8,0-6.4,1.6-7.2,5.9
			l-0.4,2.5h-2.1c-0.5,0-0.6,0.3-0.6,0.5l0,0l-0.6,3.6c0,0.1,0,0.3,0.3,0.3h2.3l-2.5,14.2c-0.3,1.7-0.5,2.7-2.1,4.4l0,0
			c-0.3,0.3-0.2,0.4,0,0.6l0,0l2.8,2.6l0,0c0.3,0.3,0.4,0.2,0.7-0.1c2.6-2.6,3.4-4.4,3.9-6.9l2.6-14.8h4.2c0.2,0,0.3,0,0.4-0.3l0,0
			l1-3.7l0,0c0.1-0.3-0.2-0.4-0.4-0.4h-4.3l0.5-2.7c0.2-1,0.6-1.3,1.8-1.3c1.6,0,4.2,0.3,5.7,0.7l-3.7,21.1l0,0
			c-0.1,0.8-0.1,0.8,0.5,0.8h4C119.5,66,119.7,66,119.8,65.2z"/>
	</g>
	<path class="st0" d="M232.7,41.8h-0.5l-0.1,0.9h-0.5L232,40h1c0.5,0,0.8,0.2,0.8,0.6c0,0,0,0.1,0,0.2l0,0.4c0,0.4-0.2,0.5-0.5,0.6
		l0.5,1h-0.5L232.7,41.8z M233.3,40.8C233.3,40.8,233.3,40.7,233.3,40.8c0-0.3-0.1-0.3-0.3-0.3h-0.5l-0.1,0.9h0.5
		c0.3,0,0.4-0.1,0.4-0.3L233.3,40.8z M232.7,43.6c-1.3,0-2.3-1-2.3-2.3s1-2.3,2.3-2.3c1.3,0,2.3,1,2.3,2.3S234,43.6,232.7,43.6z
		 M232.7,39.5c-1,0-1.9,0.8-1.9,1.9c0,1,0.8,1.9,1.9,1.9c1,0,1.9-0.8,1.9-1.9C234.6,40.3,233.7,39.5,232.7,39.5z"/>
</g>
</svg>
