<?xml version="1.0" encoding="utf-8"?>
<!-- Generator: Adobe Illustrator 19.0.1, SVG Export Plug-In . SVG Version: 6.00 Build 0)  -->
<!DOCTYPE svg PUBLIC "-//W3C//DTD SVG 1.1//EN" "http://www.w3.org/Graphics/SVG/1.1/DTD/svg11.dtd">
<svg version="1.1" id="Layer_1" xmlns="http://www.w3.org/2000/svg" xmlns:xlink="http://www.w3.org/1999/xlink" x="0px" y="0px"
	 width="238px" height="100px" viewBox="0 0 238 100" style="enable-background:new 0 0 238 100;" xml:space="preserve">
<style type="text/css">
	.st0{fill:none;}
	.st1{fill:#476BB2;}
	.st2{fill:#FFFFFF;}
</style>
<g>
	<path class="st0" d="M135.4,52.2c-0.2-0.2-0.4-0.4-0.7-0.5c-0.3-0.1-0.6-0.2-1-0.2c-0.4,0-0.7,0.1-1,0.2c-0.3,0.1-0.5,0.3-0.7,0.5
		c-0.2,0.2-0.3,0.1-0.4,0.4c-0.1,0.3-0.2,0.5-0.2,0.5h4.5c0,0-0.1-0.2-0.2-0.5C135.8,52.2,135.6,52.4,135.4,52.2z"/>
	<path class="st0" d="M120,51.6c-0.4,0-0.8,0-1.1,0.1c-0.3,0.1,0.1,0.2-0.9,0.3v6.2c0,0,0.5,0.1,0.7,0.1c0.3,0,0.6,0,0.9,0
		c0.9,0,1.7-0.3,2.1-1c0.5-0.6,0.7-1.5,0.7-2.5C122.4,52.7,121.7,51.6,120,51.6z"/>
	<path class="st0" d="M171.9,52.2c-0.2-0.2-0.4-0.4-0.7-0.5c-0.3-0.1-0.6-0.2-1-0.2c-0.4,0-0.7,0.1-1,0.2c-0.3,0.1-0.5,0.3-0.7,0.5
		c-0.2,0.2-0.3,0.1-0.4,0.4c-0.1,0.3-0.2,0.5-0.2,0.5h4.5c0,0-0.1-0.2-0.2-0.5C172.2,52.2,172.1,52.4,171.9,52.2z"/>
	<path class="st0" d="M195,52.2c-0.2-0.2-0.4-0.4-0.7-0.5c-0.3-0.1-0.6-0.2-1-0.2c-0.4,0-0.7,0.1-1,0.2c-0.3,0.1-0.5,0.3-0.7,0.5
		c-0.2,0.2-0.3,0.1-0.4,0.4c-0.1,0.3-0.2,0.5-0.2,0.5h4.5c0,0-0.1-0.2-0.2-0.5C195.3,52.2,195.2,52.4,195,52.2z"/>
	<path class="st1" d="M70.4,38.4c-0.2-0.9-0.8-1.6-1.6-2l-15.7-7.5c-0.5-0.2-1-0.3-1.5-0.3c-0.4,0-0.8,0.1-1.1,0.3l-15.7,7.5
		c-0.8,0.4-1.4,1.1-1.6,2l-3.9,16.8c-0.2,0.8,0,1.6,0.4,2.3c0.1,0.1,0.1,0.2,0.2,0.2l10.9,13.5c0.6,0.7,1.4,1.1,2.3,1.1l17.4,0
		c0.9,0,1.8-0.4,2.3-1.1l10.9-13.5c0.6-0.7,0.8-1.6,0.6-2.5L70.4,38.4z M58.2,62.2c-0.1,0.2-0.1,0.3-0.1,0.6
		c0.2,0.5,0.5,0.9,0.8,1.5c0.2,0.3,0.3,0.5,0.5,0.7c0,0.1,0.1,0.2,0.1,0.3c0.2,0.5,0.1,1.1-0.4,1.3c-0.5,0.2-1,0-1.3-0.5
		c0-0.1-0.1-0.2-0.1-0.2c-0.1-0.3-0.2-0.6-0.3-0.9c-0.2-0.6-0.4-1.1-0.6-1.6c-0.1-0.2-0.3-0.2-0.5-0.3c0-0.1-0.1-0.3-0.2-0.4
		c-0.5,0.2-1.1,0.4-1.6,0.5c-2.4,0.6-4.9,0.3-7.1-0.5L47.3,63c-0.2,0-0.3,0.1-0.4,0.2c-0.3,0.4-0.5,1.1-0.7,1.7
		c-0.1,0.3,0,0.6-0.1,0.9c0,0.1,0,0.2,0,0.2c0,0,0,0,0,0c0,0-0.1,0-0.1,0c-0.3,0.5-0.9,0.8-1.4,0.5c-0.5-0.2-0.7-0.8-0.4-1.3
		c0-0.1,0.1-0.2,0.1-0.3c0.2-0.3,0.3-0.5,0.5-0.8c0.4-0.6,0.7-1.1,0.8-1.5c0-0.2,0-0.4-0.1-0.5l0.2-0.4c-2.5-1.5-4.5-3.8-5.4-6.8
		l-0.4,0.1c-0.1-0.1-0.3-0.2-0.5-0.2c-0.5,0.1-1,0.3-1.6,0.5c-0.3,0.1-0.5,0.2-0.8,0.3c-0.1,0-0.2,0-0.2,0.1c0,0,0,0,0,0
		c0,0,0,0,0,0c-0.6,0.1-1.1-0.2-1.2-0.7c-0.1-0.5,0.2-1,0.8-1.1c0,0,0,0,0,0c0,0,0,0,0,0c0.1,0,0.2,0,0.3-0.1c0.3-0.1,0.6,0,0.9-0.1
		c0.7-0.1,1.2-0.1,1.7-0.3c0.2-0.1,0.3-0.3,0.4-0.4l0.4-0.1c-0.4-3.1,0.3-6,1.9-8.5l-0.3-0.3c0-0.1,0-0.4-0.2-0.5
		c-0.4-0.3-0.8-0.6-1.4-1c-0.3-0.2-0.5-0.3-0.8-0.5c-0.1,0-0.1-0.1-0.2-0.2c0,0,0,0,0,0c-0.5-0.4-0.6-1-0.2-1.4
		c0.2-0.2,0.5-0.3,0.7-0.3c0.2,0,0.5,0.1,0.7,0.2c0.1,0.1,0.2,0.1,0.2,0.2c0.3,0.2,0.4,0.4,0.6,0.7c0.5,0.5,0.8,0.9,1.3,1.1
		c0.2,0.1,0.4,0.1,0.6,0.1c0.1,0,0.2,0.2,0.3,0.2c1.6-1.7,3.7-3,6.1-3.5c0.6-0.1,1.1-0.2,1.7-0.3l0-0.4c0.1-0.1,0.3-0.3,0.3-0.5
		c0-0.5,0-1-0.1-1.7c0-0.3-0.1-0.6-0.1-0.9c0-0.1,0-0.2,0-0.2c0,0,0,0,0,0c0-0.6,0.4-1,0.9-1c0.5,0,0.9,0.5,0.9,1c0,0.1,0,0.2,0,0.3
		c0,0.3-0.1,0.6-0.1,0.9c-0.1,0.7-0.1,1.2-0.1,1.7c0,0.3,0.2,0.4,0.3,0.5c0,0.1,0,0.3,0,0.4c3,0.3,5.8,1.6,7.8,3.8l0.4-0.3
		c0.1,0,0.4,0,0.6-0.1c0.4-0.3,0.8-0.7,1.3-1.1c0.2-0.2,0.4-0.4,0.6-0.7c0.1,0,0.1-0.1,0.2-0.2c0.5-0.4,1.1-0.3,1.4,0.1
		c0.3,0.4,0.2,1-0.2,1.4c-0.1,0.1-0.1,0.1-0.2,0.2c-0.3,0.2-0.5,0.3-0.8,0.5c-0.6,0.3-1,0.6-1.4,1c-0.2,0.2-0.2,0.4-0.2,0.5
		c-0.1,0-0.2,0.2-0.3,0.3c0.8,1.2,1.4,2.6,1.8,4.1c0.3,1.5,0.4,3,0.2,4.4l0.4,0.1c0.1,0.1,0.2,0.3,0.4,0.4c0.5,0.2,1,0.2,1.7,0.3
		c0.3,0,0.6,0,0.9,0.1c0.1,0,0.2,0,0.3,0.1c0.6,0.1,0.9,0.6,0.8,1.1c-0.1,0.5-0.7,0.8-1.2,0.7c0,0,0,0,0,0c0,0,0,0,0,0
		c-0.1,0-0.2,0-0.2-0.1c-0.3-0.1-0.6-0.2-0.8-0.3c-0.6-0.2-1.1-0.4-1.6-0.5c-0.3,0-0.4,0.1-0.5,0.2c-0.1,0-0.3-0.1-0.4-0.1
		c-0.9,2.8-2.8,5.3-5.4,6.8C58,61.9,58.1,62.1,58.2,62.2z"/>
	<path class="st1" d="M49,47.2c0.1,0.1,0.3,0.2,0.5,0.2c0.4,0,0.8-0.4,0.8-0.8l0,0l0.3-4.9c-0.3,0-0.7,0.1-1,0.2
		c-1.8,0.4-3.4,1.3-4.7,2.5L49,47.2L49,47.2z"/>
	<path class="st1" d="M53.2,46.5c0,0.2,0.1,0.3,0.2,0.5c0.3,0.3,0.8,0.4,1.1,0.2l0,0l4-2.8c-1.5-1.5-3.5-2.4-5.6-2.7L53.2,46.5
		L53.2,46.5z"/>
	<polygon class="st1" points="50.4,52.3 51.8,53 53.1,52.4 53.5,51 52.5,50 51,50 50.1,51 	"/>
	<path class="st1" d="M56.4,49.5c-0.1,0.1-0.2,0.3-0.3,0.4c-0.1,0.4,0.2,0.9,0.6,1l0,0l4.8,1.4c0.1-1,0-2.1-0.2-3.1
		c-0.2-1.1-0.7-2.1-1.2-3L56.4,49.5L56.4,49.5z"/>
	<path class="st1" d="M56.1,53.7L56.1,53.7c-0.1,0-0.1,0-0.2,0c-0.1,0-0.2,0-0.3,0.1c-0.4,0.2-0.6,0.7-0.4,1.1l0,0l1.9,4.6
		c1.8-1.2,3.2-2.9,3.9-4.9L56.1,53.7z"/>
	<path class="st1" d="M46.8,50.9c0.2,0,0.3-0.1,0.4-0.3c0.3-0.3,0.2-0.9-0.1-1.1l0,0l-3.7-3.3c-1.1,1.8-1.6,3.9-1.4,6.1L46.8,50.9
		L46.8,50.9z"/>
	<path class="st1" d="M52.5,56c-0.1-1-0.2-0.2-0.4-0.3c-0.1-0.1-0.3-0.1-0.4-0.1c-0.3,0-0.6-0.6-0.7,0.4h0l-2.4,4.4
		c1.6,0.6,3.5,0.7,5.3,0.3c0.3-0.1,0.6-0.2,1-0.3L52.5,56L52.5,56z"/>
	<path class="st1" d="M48.5,54.4c-0.1-0.4-0.4-0.6-0.8-0.6c-0.1,0-0.1,0-0.2,0l0,0l-4.8,0.8c0.7,2.1,2.1,3.8,3.9,4.9l1.9-4.5l0,0
		C48.5,54.7,48.5,54.6,48.5,54.4z"/>
	<path class="st2" d="M63.4,55c0.1,0,0.3,0.1,0.4,0.1c0.1-0.1,0.3-0.2,0.5-0.2c0.5,0.1,1,0.3,1.6,0.5c0.3,0.1,0.5,0.2,0.8,0.3
		c0.1,0,0.2,0,0.2,0.1c0,0,0,0,0,0c0,0,0,0,0,0c0.6,0.1,1.1-0.2,1.2-0.7c0.1-0.5-0.2-1-0.8-1.1c-0.1,0-0.2,0-0.3-0.1
		c-0.3-0.1-0.6,0-0.9-0.1c-0.7-0.1-1.2-0.1-1.7-0.3c-0.2-0.1-0.3-0.3-0.4-0.4L63.9,53c0.2-1.4,0.1-2.9-0.2-4.4
		c-0.3-1.5-1-2.9-1.8-4.1c0.1-0.1,0.3-0.3,0.3-0.3c0-0.2,0-0.3,0.2-0.5c0.4-0.3,0.8-0.6,1.4-1c0.3-0.2,0.5-0.3,0.8-0.5
		c0.1,0,0.1-0.1,0.2-0.2c0.5-0.4,0.6-1,0.2-1.4c-0.3-0.4-1-0.4-1.4-0.1c-0.1,0.1-0.2,0.1-0.2,0.2c-0.3,0.2-0.4,0.4-0.6,0.7
		c-0.5,0.5-0.8,0.9-1.3,1.1c-0.2,0.1-0.4,0.1-0.6,0.1l-0.4,0.3c-2-2.1-4.8-3.5-7.8-3.8c0-0.1,0-0.4,0-0.4c-0.1-0.1-0.3-0.2-0.3-0.5
		c0-0.5,0-1,0.1-1.7c0-0.3,0.1-0.6,0.1-0.9c0-0.1,0-0.2,0-0.3c0-0.6-0.4-1-0.9-1c-0.5,0-0.9,0.5-0.9,1c0,0,0,0,0,0
		c0,0.1,0,0.2,0,0.2c0,0.3,0.1,0.6,0.1,0.9c0.1,0.7,0.1,1.2,0.1,1.7c0,0.2-0.2,0.4-0.3,0.5l0,0.4c-0.6,0-1.1,0.1-1.7,0.3
		c-2.4,0.6-4.5,1.8-6.1,3.5c-0.1-0.1-0.3-0.2-0.3-0.2c-0.2,0-0.3,0.1-0.6-0.1c-0.4-0.3-0.8-0.7-1.3-1.1c-0.2-0.2-0.4-0.4-0.6-0.7
		c-0.1,0-0.1-0.1-0.2-0.2c-0.2-0.2-0.4-0.2-0.7-0.2c-0.3,0-0.6,0.1-0.7,0.3c-0.3,0.4-0.2,1,0.2,1.4c0,0,0,0,0,0
		c0.1,0.1,0.1,0.1,0.2,0.2c0.3,0.2,0.5,0.3,0.8,0.5c0.6,0.3,1,0.6,1.4,1c0.1,0.2,0.2,0.4,0.2,0.5l0.3,0.3c-1.6,2.4-2.4,5.4-1.9,8.5
		l-0.4,0.1c-0.1,0.1-0.3,0.3-0.4,0.4c-0.5,0.2-1,0.2-1.7,0.3c-0.3,0-0.6,0-0.9,0.1c-0.1,0-0.2,0-0.3,0.1c0,0,0,0,0,0c0,0,0,0,0,0
		c-0.6,0.1-0.9,0.6-0.8,1.1c0.1,0.5,0.7,0.8,1.2,0.7c0,0,0,0,0,0c0,0,0,0,0,0c0.1,0,0.2,0,0.2-0.1c0.3-0.1,0.6-0.2,0.8-0.3
		c0.6-0.2,1.1-0.4,1.6-0.5c0.2,0,0.4,0.1,0.5,0.2l0.4-0.1c0.9,2.9,2.9,5.3,5.4,6.8l-0.2,0.4c0.1,0.2,0.1,0.4,0.1,0.5
		c-0.2,0.5-0.5,1-0.8,1.5c-0.2,0.3-0.3,0.5-0.5,0.8c0,0.1-0.1,0.2-0.1,0.3c-0.2,0.5-0.1,1.1,0.4,1.3c0.5,0.2,1.2,0,1.4-0.5
		c0,0,0.1,0,0.1,0c0,0,0,0,0,0c0-0.1,0-0.2,0-0.2c0.1-0.3,0.1-0.6,0.2-0.9c0.2-0.6,0.4-1.3,0.7-1.7c0.1-0.1,0.2-0.2,0.4-0.2l0.2-0.4
		c2.2,0.8,4.6,1.1,7.1,0.5c0.6-0.1,1.1-0.3,1.6-0.5c0.1,0.1,0.2,0.3,0.2,0.4c0.2,0.1,0.3,0.1,0.5,0.3c0.3,0.4,0.4,1,0.6,1.6
		c0.1,0.3,0.1,0.6,0.3,0.9c0,0.1,0.1,0.2,0.1,0.2c0.3,0.5,0.8,0.8,1.3,0.5c0.5-0.2,0.6-0.8,0.4-1.3c0-0.1-0.1-0.2-0.1-0.3
		c-0.2-0.3-0.3-0.5-0.5-0.7c-0.4-0.6-0.7-1-0.8-1.5c-0.1-0.2,0-0.4,0.1-0.6c0,0-0.1-0.3-0.2-0.4C60.6,60.2,62.5,57.8,63.4,55z
		 M61.3,49.1c0.2,1.1,0.3,2.1,0.2,3.1l-4.8-1.4l0,0c-0.4-0.1-0.7-0.5-0.6-1c0-0.2,0.1-0.3,0.3-0.4l0,0l3.7-3.3
		C60.6,47,61,48,61.3,49.1z M58.6,44.3l-4,2.8l0,0c-0.4,0.3-0.9,0.2-1.1-0.2c-0.1-0.1-0.2-0.3-0.2-0.5l0,0L53,41.6
		C55.1,41.9,57.1,42.8,58.6,44.3z M51,50h1.5l0.9,1l-0.3,1.4L51.8,53l-1.4-0.7L50.1,51L51,50z M49.6,41.8c0.3-0.1,0.7-0.1,1-0.2
		l-0.3,4.9l0,0c0,0.4-0.4,0.8-0.8,0.8c-0.2,0-0.4-0.1-0.5-0.2l0,0l-4-2.9C46.2,43.1,47.8,42.2,49.6,41.8z M43.5,46.2l3.7,3.3l0,0
		c0.3,0.3,0.4,0.8,0.1,1.1c-0.1,0.1-0.3,0.2-0.4,0.3l0,0l-4.7,1.4C41.9,50.1,42.4,47.9,43.5,46.2z M48.4,54.9l-1.9,4.5
		c-1.8-1.1-3.2-2.8-3.9-4.9l4.8-0.8l0,0c0.1,0,0.1,0,0.2,0c0.4,0,0.7,0.3,0.8,0.6C48.5,54.6,48.5,54.7,48.4,54.9L48.4,54.9z
		 M54,60.8c-1.8,0.4-3.6,0.2-5.3-0.4l2.4-4.4h0c0.1-1,0.4-0.3,0.7-0.3c0.1,0,0.3,0,0.4,0c0.2,0.1,0.3-0.7,0.4,0.3h0l2.4,4.4
		C54.6,60.5,54.3,60.7,54,60.8z M57,59.5l-1.9-4.6l0,0c-0.2-0.4,0-0.9,0.4-1.1c0.1,0,0.2-0.1,0.3-0.1c0.1,0,0.1,0,0.2,0l0,0l4.9,0.8
		C60.2,56.6,58.9,58.3,57,59.5z"/>
	<path class="st2" d="M97.5,57.5c-0.5-0.6-0.9-1.2-1.4-1.8c-0.5-0.6-1-1.1-1.4-1.5c0.9-0.9,1.8-1.7,2.5-2.6c0.8-0.9,1.6-1.6,2.4-2.6
		h-4c-0.2,0-0.5,0.5-0.8,0.9c-0.3,0.4-0.6,0.7-0.9,1.1c-0.3,0.4-0.5,0.8-0.9,1.2c-0.4,0.4-0.9,0.8-0.9,1.1V43.2l-3,0.5V61h3v-5.3
		c0,0.3,0.6,0.7,1,1.1c0.4,0.4,0.7,0.9,1,1.4c0.4,0.5,0.6,1,0.9,1.5c0.3,0.5,0.6,0.3,0.8,1.3h3.9c-0.3-1-0.6-1.1-1-1.7
		C98.3,58.7,97.9,58.1,97.5,57.5z"/>
	<path class="st2" d="M108,58.2c0,0-0.4,0.1-0.7,0.1c-0.3,0-0.5,0-0.7,0c-0.8,0-1.6-0.2-1.9-0.7c-0.3-0.5-0.7-1.3-0.7-2.4V49h-3v6.6
		c0,0.8,0.2,1.6,0.3,2.3c0.2,0.7,0.5,1.3,0.9,1.8c0.4,0.5,0.9,0.9,1.6,1.1c0.7,0.3,1.5,0.4,2.6,0.4c1,0,1.7-0.1,2.6-0.2
		c0.9-0.1,2-0.3,2-0.5V49h-3V58.2z"/>
	<path class="st2" d="M124.6,50.4c-0.4-0.5-1-1-1.6-1.3c-0.7-0.3-1.4-0.5-2.3-0.5c-0.5,0-1,0-1.4,0.1S119,49,118,49.2v-6l-3,0.5
		v16.8c1,0.1,0.5,0.2,0.9,0.3c0.4,0.1,0.7,0.1,1.2,0.2c0.4,0.1,0.9,0.1,1.3,0.1c0.5,0,0.9,0.1,1.3,0.1c1,0,1.9-0.1,2.6-0.4
		c0.8-0.3,1.4-0.7,2-1.3c0.5-0.5,0.9-1.2,1.2-2c0.3-0.8,0.4-1.6,0.4-2.6c0-0.9-0.1-1.8-0.3-2.6C125.4,51.6,125,50.9,124.6,50.4z
		 M121.8,57.4c-0.5,0.6-1.2,1-2.1,1c-0.3,0-0.7,0-0.9,0c-0.3,0-0.7-0.1-0.7-0.1V52c1-0.1,0.6-0.3,0.9-0.3c0.4-0.1,0.7-0.1,1.1-0.1
		c1.6,0,2.4,1.1,2.4,3.3C122.4,55.9,122.2,56.7,121.8,57.4z"/>
	<path class="st2" d="M133.7,48.6c-0.7,0-1.4,0.1-2.1,0.4c-0.7,0.3-1.3,0.7-1.8,1.2c-0.5,0.5-1,1.2-1.3,2C128.1,53,128,54,128,55
		c0,0.9,0.1,1.7,0.4,2.5c0.3,0.8,0.6,1.4,1.2,2c0.5,0.5,1.2,1,2,1.3c0.8,0.3,1.8,0.5,2.8,0.5c0.4,0,0.9,0,1.3-0.1
		c0.4,0,0.8-0.1,1.2-0.2c0.4-0.1,0.7-0.1,1-0.2s0.5-0.2,0.7-0.3l-0.5-2.8c-0.4,0.2-0.9,0.3-1.5,0.4c-0.6,0.1-1.2,0.2-1.8,0.2
		c-1,0-1.8-0.7-2.3-1.1c-0.6-0.4-0.9-1.2-1-2.2h7.7c0,0,0,0.1,0-0.1c0-0.2,0-0.2,0-0.4c0-2-0.5-3.4-1.5-4.5
		C136.8,49,135.5,48.6,133.7,48.6z M131.5,53c0,0,0.1-0.2,0.2-0.5c0.1-0.3,0.3-0.4,0.4-0.6c0.2-0.2,0.4-0.3,0.7-0.4
		c0.3-0.1,0.6-0.2,1-0.2c0.4,0,0.7,0.1,1,0.2c0.3,0.1,0.5,0.3,0.7,0.5c0.2,0.2,0.3,0.1,0.4,0.4c0.1,0.3,0.1,0.5,0.2,0.5H131.5z"/>
	<path class="st2" d="M148.3,48.8c-0.3,0-0.5-0.1-0.8-0.1c-0.3,0-0.5,0-0.7,0c-1,0-1.9,0.1-2.7,0.3c-0.8,0.2-1.1,0.4-2.1,0.6V61h3
		v-9.2c1,0,0.5-0.1,0.8-0.1c0.3,0,0.6-0.1,0.9-0.1c0.5,0,1,0,1.4,0.1c0.4,0.1,0.8,0.2,1.1,0.2l0.6-2.8c-0.2-0.1-0.4-0.1-0.7-0.2
		C148.8,48.9,148.5,48.8,148.3,48.8z"/>
	<path class="st2" d="M160.8,50.2c-0.4-0.5-0.9-0.9-1.6-1.1c-0.7-0.3-1.5-0.4-2.5-0.4c-1,0-2.2,0.1-3.2,0.2
		c-0.9,0.1-1.5,0.3-2.5,0.5V61h4v-9.3c0,0,0.4-0.1,0.7-0.1c0.3,0,0.5,0,0.8,0c0.8,0,1.6,0.2,1.9,0.7c0.3,0.5,0.7,1.2,0.7,2.3V61h3
		v-6.8c0-0.8-0.1-1.6-0.3-2.2C161.6,51.3,161.2,50.7,160.8,50.2z"/>
	<path class="st2" d="M170.2,48.6c-0.7,0-1.4,0.1-2.1,0.4c-0.7,0.3-1.3,0.7-1.8,1.2c-0.5,0.5-1,1.2-1.3,2c-0.3,0.8-0.5,1.7-0.5,2.8
		c0,0.9,0.1,1.7,0.4,2.5c0.3,0.8,0.6,1.4,1.2,2c0.5,0.5,1.2,1,2,1.3c0.8,0.3,1.8,0.5,2.8,0.5c0.4,0,0.9,0,1.3-0.1
		c0.4,0,0.8-0.1,1.2-0.2c0.4-0.1,0.7-0.1,1-0.2s0.5-0.2,0.7-0.3l-0.5-2.8c-0.4,0.2-0.9,0.3-1.5,0.4c-0.6,0.1-1.2,0.2-1.8,0.2
		c-1,0-1.8-0.7-2.3-1.1c-0.6-0.4-0.9-1.2-1-2.2h7.7c0,0,0,0.1,0-0.1c0-0.2,0-0.2,0-0.4c0-2-0.5-3.4-1.5-4.5
		C173.3,49,171.9,48.6,170.2,48.6z M168,53c0,0,0.1-0.2,0.2-0.5c0.1-0.3,0.3-0.4,0.4-0.6c0.2-0.2,0.4-0.3,0.7-0.4
		c0.3-0.1,0.6-0.2,1-0.2c0.4,0,0.7,0.1,1,0.2c0.3,0.1,0.5,0.3,0.7,0.5c0.2,0.2,0.3,0.1,0.4,0.4c0.1,0.3,0.1,0.5,0.2,0.5H168z"/>
	<path class="st2" d="M184.7,58.3c-0.4,0.1-0.8,0.1-1.1,0.1c-0.8,0-1.6-0.2-1.9-0.6c-0.2-0.4-0.7-1-0.7-1.7v-4h5v-3h-5v-3.6l-3,0.5
		V56c0,0.8,0.2,1.5,0.3,2.1c0.2,0.6,0.5,1.2,0.8,1.6c0.4,0.4,0.9,0.8,1.5,1.1c0.6,0.2,1.4,0.4,2.3,0.4c0.7,0,1.4-0.1,1.9-0.2
		c0.5-0.1,1-0.3,1.4-0.4l-0.5-2.7C185.5,58.1,185.1,58.2,184.7,58.3z"/>
	<path class="st2" d="M193.3,48.6c-0.7,0-1.4,0.1-2.1,0.4c-0.7,0.3-1.3,0.7-1.8,1.2c-0.5,0.5-1,1.2-1.3,2c-0.3,0.8-0.5,1.7-0.5,2.8
		h0c0,0.9,0.1,1.7,0.4,2.5c0.3,0.8,0.6,1.4,1.2,2c0.5,0.5,1.2,1,2,1.3c0.8,0.3,1.8,0.5,2.8,0.5c0.4,0,0.9,0,1.3-0.1
		c0.4,0,0.8-0.1,1.2-0.2c0.4-0.1,0.7-0.1,1-0.2c0.3-0.1,0.5-0.2,0.7-0.3l-0.5-2.8c-0.4,0.2-0.9,0.3-1.5,0.4
		c-0.6,0.1-1.2,0.2-1.8,0.2c-1,0-1.8-0.7-2.3-1.1c-0.6-0.4-0.9-1.2-1-2.2h7.7c0,0,0,0.1,0-0.1c0-0.2,0-0.2,0-0.4
		c0-2-0.5-3.4-1.5-4.5C196.3,49,195,48.6,193.3,48.6z M191,53c0,0,0.1-0.2,0.2-0.5c0.1-0.3,0.3-0.4,0.4-0.6c0.2-0.2,0.4-0.3,0.7-0.4
		c0.3-0.1,0.6-0.2,1-0.2c0.4,0,0.7,0.1,1,0.2c0.3,0.1,0.5,0.3,0.7,0.5c0.2,0.2,0.3,0.1,0.4,0.4c0.1,0.3,0.1,0.5,0.2,0.5H191z"/>
	<path class="st2" d="M209.8,56.3c-0.1-0.4-0.3-0.7-0.6-1c-0.3-0.3-0.7-0.6-1.1-0.9c-0.5-0.3-1.1-0.5-1.9-0.8
		c-0.4-0.1-0.7-0.3-0.9-0.4c-0.2-0.1-0.4-0.2-0.5-0.3c-0.1-0.1-0.2-0.2-0.3-0.3c0-0.1-0.1-0.2-0.1-0.4c0-0.6,0.5-0.9,1.6-0.9
		c0.6,0,1.1,0.1,1.6,0.2c0.5,0.1,0.9,0.2,1.3,0.4l0.6-2.7c-0.4-0.2-0.9-0.3-1.6-0.4c-0.7-0.1-1.4-0.2-2.1-0.2c-1.5,0-2.6,0.3-3.5,1
		c-0.8,0.7-1.3,1.5-1.3,2.7c0,0.6,0.1,1.1,0.3,1.5c0.2,0.4,0.4,0.8,0.7,1.1c0.3,0.3,0.7,0.5,1.1,0.8c0.4,0.2,0.9,0.4,1.5,0.6
		c0.7,0.3,1.2,0.5,1.5,0.7c0.3,0.2,0.5,0.4,0.5,0.7c0,0.4-0.1,0.6-0.4,0.7c-0.3,0.1-0.7,0.2-1.3,0.2c-0.6,0-1.2-0.1-1.8-0.2
		c-0.6-0.1-1.2-0.3-1.8-0.5l-0.6,2.8c0.3,0.1,0.8,0.3,1.5,0.5c0.7,0.2,1.6,0.3,2.7,0.3c1.6,0,2.9-0.3,3.8-0.9
		c0.9-0.6,1.3-1.5,1.3-2.7C210,57.2,209.9,56.7,209.8,56.3z"/>
</g>
</svg>
