<?xml version="1.0" encoding="utf-8"?>
<!-- Generator: Adobe Illustrator 19.0.1, SVG Export Plug-In . SVG Version: 6.00 Build 0)  -->
<!DOCTYPE svg PUBLIC "-//W3C//DTD SVG 1.1//EN" "http://www.w3.org/Graphics/SVG/1.1/DTD/svg11.dtd">
<svg version="1.1" id="Layer_1" xmlns="http://www.w3.org/2000/svg" xmlns:xlink="http://www.w3.org/1999/xlink" x="0px" y="0px"
	 width="250px" height="110px" viewBox="0 0 250 110" style="enable-background:new 0 0 250 110;" xml:space="preserve">
<style type="text/css">
	.st0{fill:#FFFFFF;}
	.st1{fill:#F1511B;}
	.st2{fill:#80CC28;}
	.st3{fill:#00ADEF;}
	.st4{fill:#FBBC09;}
</style>
<g>
	<path id="path5056" class="st0" d="M216.3,53.1v-3.2h-4v-5l-0.1,0l-3.7,1.1l-0.1,0v3.8h-5.9v-2.1c0-1,0.2-1.7,0.7-2.2
		c0.4-0.5,1-0.7,1.8-0.7c0.6,0,1.1,0.1,1.7,0.4l0.1,0.1v-3.4l-0.1,0c-0.5-0.2-1.3-0.3-2.2-0.3c-1.2,0-2.2,0.3-3.1,0.8
		c-0.9,0.5-1.6,1.2-2.2,2.1c-0.5,0.9-0.8,2-0.8,3.1v2.3h-2.8v3.2h2.8v13.5h4V53.1h5.9v8.6c0,3.5,1.7,5.3,5,5.3
		c0.5,0,1.1-0.1,1.7-0.2c0.6-0.1,1-0.3,1.2-0.4l0.1,0v-3.2l-0.2,0.1c-0.2,0.1-0.5,0.3-0.8,0.3c-0.3,0.1-0.6,0.1-0.8,0.1
		c-0.8,0-1.3-0.2-1.7-0.6c-0.4-0.4-0.5-1.1-0.5-2.2v-7.9L216.3,53.1L216.3,53.1z M186.8,63.8c-1.4,0-2.6-0.5-3.4-1.4
		c-0.8-0.9-1.2-2.3-1.2-4c0-1.8,0.4-3.2,1.2-4.1c0.8-1,1.9-1.4,3.4-1.4c1.4,0,2.5,0.5,3.3,1.4c0.8,0.9,1.2,2.3,1.2,4.1
		c0,1.8-0.4,3.2-1.1,4.1C189.3,63.3,188.2,63.8,186.8,63.8 M186.9,49.5c-2.8,0-5,0.8-6.5,2.4c-1.6,1.6-2.4,3.8-2.4,6.6
		c0,2.6,0.8,4.7,2.3,6.3c1.5,1.5,3.6,2.3,6.2,2.3c2.7,0,4.8-0.8,6.4-2.4c1.6-1.6,2.4-3.8,2.4-6.5c0-2.7-0.7-4.8-2.2-6.3
		C191.6,50.3,189.5,49.5,186.9,49.5 M171.6,49.5c-1.9,0-3.4,0.5-4.6,1.4c-1.2,1-1.8,2.2-1.8,3.7c0,0.8,0.1,1.5,0.4,2.1
		c0.3,0.6,0.7,1.1,1.2,1.6c0.5,0.4,1.3,0.9,2.4,1.4c0.9,0.4,1.6,0.7,2,0.9c0.4,0.2,0.7,0.5,0.9,0.7c0.2,0.2,0.2,0.6,0.2,0.9
		c0,1.1-0.8,1.7-2.6,1.7c-0.6,0-1.4-0.1-2.2-0.4c-0.8-0.3-1.6-0.6-2.2-1.1l-0.2-0.1v3.8l0.1,0c0.6,0.3,1.3,0.5,2.1,0.7
		c0.8,0.2,1.6,0.3,2.3,0.3c2,0,3.7-0.5,4.9-1.4c1.2-1,1.8-2.2,1.8-3.8c0-1.1-0.3-2.1-1-2.9c-0.6-0.8-1.8-1.5-3.3-2.1
		c-1.2-0.5-2-0.9-2.4-1.2c-0.3-0.3-0.5-0.7-0.5-1.3c0-0.5,0.2-0.9,0.6-1.2c0.4-0.3,1-0.5,1.7-0.5c0.7,0,1.3,0.1,2,0.3
		c0.7,0.2,1.3,0.5,1.8,0.8l0.2,0.1v-3.6l-0.1,0c-0.5-0.2-1.1-0.4-1.8-0.5C172.9,49.6,172.2,49.5,171.6,49.5 M154.8,63.8
		c-1.4,0-2.6-0.5-3.4-1.4c-0.8-0.9-1.2-2.3-1.2-4c0-1.8,0.4-3.2,1.2-4.1c0.8-1,1.9-1.4,3.4-1.4c1.4,0,2.5,0.5,3.3,1.4
		c0.8,0.9,1.2,2.3,1.2,4.1c0,1.8-0.4,3.2-1.1,4.1C157.4,63.3,156.3,63.8,154.8,63.8 M155,49.5c-2.8,0-5,0.8-6.5,2.4
		c-1.6,1.6-2.4,3.8-2.4,6.6c0,2.6,0.8,4.7,2.3,6.3c1.5,1.5,3.6,2.3,6.2,2.3c2.7,0,4.8-0.8,6.4-2.4c1.6-1.6,2.4-3.8,2.4-6.5
		c0-2.7-0.7-4.8-2.2-6.3C159.7,50.3,157.6,49.5,155,49.5 M140.1,52.8v-2.9h-3.9v16.7h3.9v-8.6c0-1.5,0.3-2.7,1-3.6
		c0.6-0.9,1.5-1.3,2.5-1.3c0.4,0,0.8,0.1,1.2,0.2c0.4,0.1,0.7,0.2,0.9,0.4l0.2,0.1v-4l-0.1,0c-0.4-0.2-0.9-0.2-1.5-0.2
		c-1,0-1.9,0.3-2.6,0.9C141,51.1,140.5,51.9,140.1,52.8C140.1,52.8,140.1,52.8,140.1,52.8z M129.1,49.5c-1.8,0-3.4,0.4-4.8,1.2
		c-1.4,0.8-2.4,1.9-3.2,3.2c-0.7,1.4-1.1,3-1.1,4.8c0,1.6,0.4,3,1.1,4.3c0.7,1.3,1.7,2.3,2.9,3c1.3,0.7,2.7,1,4.3,1
		c1.9,0,3.5-0.4,4.7-1.1l0.1,0v-3.6l-0.2,0.1c-0.6,0.4-1.2,0.8-1.9,1c-0.7,0.2-1.3,0.4-1.9,0.4c-1.5,0-2.8-0.5-3.7-1.4
		c-0.9-1-1.4-2.3-1.4-4c0-1.7,0.5-3.1,1.4-4.1c0.9-1,2.2-1.5,3.7-1.5c1.3,0,2.6,0.4,3.7,1.3l0.2,0.1v-3.8l-0.1,0
		c-0.4-0.3-1.1-0.5-1.8-0.6C130.6,49.6,129.8,49.5,129.1,49.5 M117.4,49.9h-3.9v16.7h3.9V49.9z M115.5,42.8c-0.6,0-1.2,0.2-1.7,0.7
		c-0.5,0.4-0.7,1-0.7,1.6c0,0.6,0.2,1.2,0.7,1.6c0.5,0.4,1,0.6,1.7,0.6c0.7,0,1.2-0.2,1.7-0.6c0.5-0.4,0.7-1,0.7-1.6
		c0-0.6-0.2-1.2-0.7-1.6C116.7,43,116.1,42.8,115.5,42.8 M105.6,48.7v18h4V43.3h-5.6L97,60.7l-6.9-17.3h-5.8v23.3h3.8v-18h0.1
		l7.2,18h2.8l7.1-18L105.6,48.7L105.6,48.7z"/>
	<path id="path5058" class="st1" d="M52.3,54H33.7V35.5h18.5V54z"/>
	<path id="path5060" class="st2" d="M72.7,54H54.2V35.5h18.5V54z"/>
	<path id="path5062" class="st3" d="M52.3,74.5H33.7V56h18.5V74.5z"/>
	<path id="path5064" class="st4" d="M72.7,74.5H54.2V56h18.5V74.5z"/>
</g>
</svg>
