<?xml version="1.0" encoding="utf-8"?>
<!-- Generator: Adobe Illustrator 19.0.1, SVG Export Plug-In . SVG Version: 6.00 Build 0)  -->
<!DOCTYPE svg PUBLIC "-//W3C//DTD SVG 1.1//EN" "http://www.w3.org/Graphics/SVG/1.1/DTD/svg11.dtd">
<svg version="1.1" id="Layer_1" xmlns="http://www.w3.org/2000/svg" xmlns:xlink="http://www.w3.org/1999/xlink" x="0px" y="0px"
	 width="238px" height="100px" viewBox="0 0 238 100" style="enable-background:new 0 0 238 100;" xml:space="preserve">
<style type="text/css">
	.st0{fill:#F05A28;}
	.st1{fill:#FFFFFF;}
</style>
<g>
	<g>
		<path class="st0" d="M83,41.4c2.2,0,3.8,0.5,4.9,1.4c1.1,0.9,1.6,2.3,1.6,4c0,0.8-0.2,1.5-0.5,2.2c-0.3,0.7-0.7,1.3-1.3,1.7
			c-0.6,0.5-1.2,0.9-2.1,1.1C85,52.2,84,52.4,83,52.4h-3.4v7.4h-1.3V41.4H83z M83,51.3c0.8,0,1.5-0.1,2.2-0.3
			c0.6-0.2,1.2-0.5,1.6-0.9c0.4-0.4,0.8-0.9,1-1.4c0.2-0.5,0.4-1.1,0.4-1.8c0-1.4-0.4-2.5-1.3-3.3c-0.9-0.8-2.2-1.1-3.9-1.1h-3.4
			v8.9H83z"/>
		<path class="st0" d="M93.6,50c0.2-0.5,0.4-1,0.7-1.4c0.3-0.4,0.6-0.8,0.9-1c0.3-0.3,0.7-0.5,1.1-0.7c0.4-0.2,0.9-0.2,1.4-0.2
			c0.3,0,0.5,0,0.8,0.1c0.3,0,0.5,0.1,0.7,0.3l-0.1,0.9c0,0.1-0.1,0.2-0.2,0.2c-0.1,0-0.3,0-0.5-0.1c-0.2-0.1-0.5-0.1-0.8-0.1
			c-0.5,0-0.9,0.1-1.3,0.2c-0.4,0.2-0.7,0.4-1,0.7c-0.3,0.3-0.6,0.7-0.8,1.1c-0.2,0.4-0.4,1-0.6,1.5v8.4h-1.2V46.8h0.7
			c0.1,0,0.3,0,0.3,0.1c0.1,0.1,0.1,0.2,0.1,0.3L93.6,50z"/>
		<path class="st0" d="M106,46.6c0.9,0,1.8,0.2,2.5,0.5c0.7,0.3,1.3,0.8,1.9,1.3c0.5,0.6,0.9,1.3,1.2,2.1c0.3,0.8,0.4,1.7,0.4,2.7
			c0,1-0.1,1.9-0.4,2.7c-0.3,0.8-0.6,1.5-1.2,2.1c-0.5,0.6-1.1,1-1.9,1.3c-0.7,0.3-1.6,0.5-2.5,0.5s-1.8-0.2-2.5-0.5
			c-0.7-0.3-1.4-0.8-1.9-1.3c-0.5-0.6-0.9-1.3-1.2-2.1c-0.3-0.8-0.4-1.7-0.4-2.7c0-1,0.1-1.9,0.4-2.7c0.3-0.8,0.6-1.5,1.2-2.1
			c0.5-0.6,1.1-1,1.9-1.3C104.3,46.8,105.1,46.6,106,46.6z M106,59c0.8,0,1.4-0.1,2-0.4c0.6-0.3,1.1-0.6,1.4-1.1
			c0.4-0.5,0.7-1.1,0.9-1.8c0.2-0.7,0.3-1.5,0.3-2.3c0-0.9-0.1-1.6-0.3-2.3c-0.2-0.7-0.5-1.3-0.9-1.8c-0.4-0.5-0.9-0.9-1.4-1.2
			c-0.6-0.3-1.2-0.4-2-0.4c-0.8,0-1.4,0.1-2,0.4c-0.6,0.3-1.1,0.7-1.4,1.2c-0.4,0.5-0.7,1.1-0.9,1.8s-0.3,1.5-0.3,2.3
			c0,0.9,0.1,1.6,0.3,2.3c0.2,0.7,0.5,1.3,0.9,1.8c0.4,0.5,0.9,0.9,1.4,1.1C104.6,58.8,105.3,59,106,59z"/>
		<path class="st0" d="M115.4,59.8V46.8h0.7c0.2,0,0.3,0.1,0.4,0.3l0.1,1.9c0.5-0.7,1.1-1.3,1.7-1.7c0.6-0.4,1.4-0.7,2.2-0.7
			c0.9,0,1.7,0.3,2.3,0.8c0.6,0.5,1,1.3,1.2,2.3c0.2-0.5,0.4-1,0.7-1.4c0.3-0.4,0.6-0.7,1-1c0.4-0.3,0.8-0.4,1.2-0.6
			c0.4-0.1,0.9-0.2,1.3-0.2c0.6,0,1.2,0.1,1.7,0.3c0.5,0.2,0.9,0.5,1.3,0.9c0.4,0.4,0.6,0.9,0.8,1.5c0.2,0.6,0.3,1.3,0.3,2.1v8.3
			H131v-8.3c0-1.3-0.3-2.2-0.8-2.9c-0.5-0.7-1.3-1-2.3-1c-0.5,0-0.9,0.1-1.3,0.2c-0.4,0.2-0.8,0.4-1.1,0.7c-0.3,0.3-0.6,0.7-0.8,1.2
			c-0.2,0.5-0.3,1-0.3,1.7v8.3h-1.2v-8.3c0-1.3-0.2-2.2-0.7-2.9s-1.2-1-2.2-1c-0.7,0-1.4,0.2-1.9,0.6c-0.6,0.4-1.1,1-1.6,1.7v9.8
			H115.4z"/>
		<path class="st0" d="M136.8,52.8V53c0,1,0.1,1.8,0.3,2.6c0.2,0.7,0.5,1.4,1,1.9c0.4,0.5,0.9,0.9,1.5,1.1c0.6,0.3,1.2,0.4,2,0.4
			c0.6,0,1.2-0.1,1.7-0.2c0.5-0.1,0.9-0.3,1.2-0.5c0.3-0.2,0.6-0.3,0.8-0.5c0.2-0.1,0.3-0.2,0.4-0.2c0.1,0,0.2,0,0.3,0.1l0.3,0.4
			c-0.2,0.3-0.5,0.5-0.8,0.7s-0.7,0.4-1.1,0.6c-0.4,0.2-0.9,0.3-1.4,0.4c-0.5,0.1-1,0.1-1.4,0.1c-0.9,0-1.7-0.2-2.4-0.5
			c-0.7-0.3-1.4-0.8-1.9-1.3c-0.5-0.6-0.9-1.3-1.2-2.2c-0.3-0.9-0.4-1.8-0.4-2.9c0-0.9,0.1-1.8,0.4-2.6c0.3-0.8,0.6-1.5,1.1-2
			c0.5-0.6,1.1-1,1.8-1.3c0.7-0.3,1.5-0.5,2.5-0.5c0.7,0,1.4,0.1,2,0.4c0.6,0.3,1.2,0.6,1.6,1.1c0.5,0.5,0.8,1.1,1.1,1.8
			c0.3,0.7,0.4,1.5,0.4,2.4c0,0.2,0,0.3-0.1,0.4c-0.1,0.1-0.1,0.1-0.3,0.1H136.8z M145.4,52c0-0.7-0.1-1.3-0.3-1.9
			c-0.2-0.6-0.5-1-0.8-1.4c-0.4-0.4-0.8-0.7-1.3-0.9c-0.5-0.2-1-0.3-1.6-0.3c-0.7,0-1.3,0.1-1.8,0.3s-1,0.5-1.4,0.9
			c-0.4,0.4-0.7,0.9-0.9,1.4c-0.2,0.5-0.4,1.2-0.5,1.8H145.4z"/>
		<path class="st0" d="M153.4,60c-0.9,0-1.6-0.2-2-0.7c-0.5-0.5-0.7-1.2-0.7-2.2v-8.8h-1.9c-0.1,0-0.2,0-0.2-0.1
			c-0.1-0.1-0.1-0.1-0.1-0.2v-0.5l2.2-0.2l0.3-4.6c0-0.1,0.1-0.1,0.1-0.2c0.1-0.1,0.1-0.1,0.2-0.1h0.6v4.9h4.1v0.9h-4.1v8.8
			c0,0.4,0,0.7,0.1,0.9c0.1,0.3,0.2,0.5,0.4,0.6c0.2,0.2,0.3,0.3,0.6,0.4c0.2,0.1,0.5,0.1,0.7,0.1c0.3,0,0.6,0,0.8-0.1
			c0.2-0.1,0.4-0.2,0.6-0.3c0.2-0.1,0.3-0.2,0.4-0.3c0.1-0.1,0.2-0.1,0.2-0.1c0.1,0,0.1,0,0.2,0.1l0.3,0.5c-0.3,0.4-0.7,0.7-1.3,0.9
			C154.5,59.9,153.9,60,153.4,60z"/>
		<path class="st0" d="M160,49c0.6-0.7,1.3-1.3,2-1.7c0.8-0.4,1.6-0.6,2.6-0.6c0.7,0,1.3,0.1,1.9,0.3c0.5,0.2,1,0.6,1.3,1
			c0.4,0.4,0.6,0.9,0.8,1.5c0.2,0.6,0.3,1.3,0.3,2v8.3h-1.2v-8.3c0-1.2-0.3-2.2-0.8-2.9c-0.6-0.7-1.4-1-2.5-1
			c-0.8,0-1.6,0.2-2.4,0.6c-0.7,0.4-1.4,1-2,1.8v9.7h-1.2V40.9h1.2V49z"/>
		<path class="st0" d="M173.5,52.8V53c0,1,0.1,1.8,0.3,2.6c0.2,0.7,0.5,1.4,1,1.9c0.4,0.5,0.9,0.9,1.5,1.1c0.6,0.3,1.2,0.4,2,0.4
			c0.6,0,1.2-0.1,1.7-0.2c0.5-0.1,0.9-0.3,1.2-0.5c0.3-0.2,0.6-0.3,0.8-0.5c0.2-0.1,0.3-0.2,0.4-0.2c0.1,0,0.2,0,0.3,0.1l0.3,0.4
			c-0.2,0.3-0.5,0.5-0.8,0.7s-0.7,0.4-1.1,0.6c-0.4,0.2-0.9,0.3-1.4,0.4c-0.5,0.1-1,0.1-1.4,0.1c-0.9,0-1.7-0.2-2.4-0.5
			c-0.7-0.3-1.4-0.8-1.9-1.3c-0.5-0.6-0.9-1.3-1.2-2.2c-0.3-0.9-0.4-1.8-0.4-2.9c0-0.9,0.1-1.8,0.4-2.6c0.3-0.8,0.6-1.5,1.1-2
			c0.5-0.6,1.1-1,1.8-1.3c0.7-0.3,1.5-0.5,2.5-0.5c0.7,0,1.4,0.1,2,0.4c0.6,0.3,1.2,0.6,1.6,1.1c0.5,0.5,0.8,1.1,1.1,1.8
			c0.3,0.7,0.4,1.5,0.4,2.4c0,0.2,0,0.3-0.1,0.4c-0.1,0.1-0.1,0.1-0.3,0.1H173.5z M182.1,52c0-0.7-0.1-1.3-0.3-1.9
			c-0.2-0.6-0.5-1-0.8-1.4c-0.4-0.4-0.8-0.7-1.3-0.9c-0.5-0.2-1-0.3-1.6-0.3c-0.7,0-1.3,0.1-1.8,0.3s-1,0.5-1.4,0.9
			c-0.4,0.4-0.7,0.9-0.9,1.4c-0.2,0.5-0.4,1.2-0.5,1.8H182.1z"/>
		<path class="st0" d="M196.6,46.8v12.9H196c-0.2,0-0.3-0.1-0.4-0.3l-0.1-1.9c-0.6,0.7-1.3,1.3-2.1,1.8c-0.8,0.5-1.7,0.7-2.6,0.7
			c-0.7,0-1.3-0.1-1.9-0.3c-0.5-0.2-1-0.6-1.3-1c-0.4-0.4-0.6-0.9-0.8-1.5c-0.2-0.6-0.3-1.3-0.3-2v-8.3h1.2v8.3
			c0,1.2,0.3,2.2,0.8,2.9c0.6,0.7,1.4,1,2.5,1c0.8,0,1.6-0.2,2.4-0.6c0.7-0.4,1.4-1,2-1.8v-9.7H196.6z"/>
		<path class="st0" d="M208,48.4c-0.1,0.1-0.2,0.2-0.3,0.2c-0.1,0-0.2-0.1-0.4-0.2c-0.1-0.1-0.3-0.2-0.6-0.4
			c-0.2-0.1-0.6-0.3-0.9-0.4c-0.4-0.1-0.8-0.2-1.3-0.2c-0.5,0-0.9,0.1-1.3,0.2c-0.4,0.1-0.7,0.3-1,0.5c-0.3,0.2-0.5,0.5-0.6,0.8
			c-0.1,0.3-0.2,0.6-0.2,0.9c0,0.4,0.1,0.7,0.3,1c0.2,0.3,0.5,0.5,0.8,0.7c0.3,0.2,0.7,0.4,1.2,0.5c0.4,0.1,0.9,0.3,1.3,0.4
			c0.4,0.1,0.9,0.3,1.3,0.5c0.4,0.2,0.8,0.4,1.2,0.6c0.3,0.3,0.6,0.6,0.8,0.9c0.2,0.4,0.3,0.8,0.3,1.3c0,0.6-0.1,1.1-0.3,1.6
			c-0.2,0.5-0.5,0.9-0.9,1.3c-0.4,0.4-0.9,0.6-1.4,0.8c-0.6,0.2-1.2,0.3-1.9,0.3c-0.9,0-1.7-0.1-2.4-0.4c-0.7-0.3-1.2-0.7-1.8-1.1
			l0.3-0.4c0-0.1,0.1-0.1,0.1-0.2c0.1,0,0.1-0.1,0.2-0.1c0.1,0,0.2,0.1,0.4,0.2c0.2,0.1,0.4,0.3,0.6,0.4c0.3,0.2,0.6,0.3,1,0.4
			c0.4,0.1,0.9,0.2,1.5,0.2c0.5,0,1-0.1,1.4-0.2c0.4-0.2,0.8-0.4,1-0.6c0.3-0.3,0.5-0.6,0.6-0.9c0.1-0.4,0.2-0.7,0.2-1.1
			c0-0.4-0.1-0.8-0.3-1.1c-0.2-0.3-0.5-0.5-0.8-0.7c-0.3-0.2-0.7-0.4-1.2-0.5c-0.4-0.1-0.9-0.3-1.3-0.4c-0.5-0.1-0.9-0.3-1.3-0.5
			c-0.4-0.2-0.8-0.4-1.2-0.6c-0.3-0.3-0.6-0.6-0.8-0.9c-0.2-0.4-0.3-0.8-0.3-1.3c0-0.5,0.1-0.9,0.3-1.3c0.2-0.4,0.5-0.8,0.9-1.1
			c0.4-0.3,0.8-0.6,1.3-0.8c0.5-0.2,1.1-0.3,1.8-0.3c0.8,0,1.5,0.1,2.1,0.3c0.6,0.2,1.2,0.6,1.7,1L208,48.4z"/>
	</g>
	<g>
		<rect x="40.4" y="57.7" class="st1" width="19" height="3.5"/>
		<path class="st1" d="M56,62.7H43.8c0,2.7,2.7,4.9,6.1,4.9C53.3,67.6,56,65.4,56,62.7z"/>
		<path class="st1" d="M57.5,48.3c0.7-3.7-1.2-6.5-2.3-8.2c-1.1-1.8-0.5-4.9-0.5-4.9c-3.4,2.2-2.3,9-2.3,9c-0.2,0-0.4-0.2-0.5-0.3
			c-0.1-0.2-0.2-0.6-0.2-0.9c-0.2-2.5-0.2-4.7-1.5-6.8c-1.3-2.2-0.4-4.4-0.4-4.4s-2.4,1.2-2.2,4.9c0.1,3.7-1.6,5.5-1.6,5.5
			c-0.5-5.7-2.5-5.7-2.5-5.7s0.8,2.6-0.7,5.7c-1.5,3.1-1.2,4.3-1.2,4.3c-0.1,2.7,0.9,4.6,1.7,5.6l-5.7-1.1c0,0,0.5,2.3,2.8,5h19
			c0,0,2.3-2,3.1-5l-6.7,1.3C56.4,51.2,57.1,50.4,57.5,48.3z"/>
		<path class="st0" d="M49.9,29.6c-11.3,0-20.4,9.1-20.4,20.4s9.1,20.4,20.4,20.4S70.3,61.3,70.3,50S61.2,29.6,49.9,29.6z
			 M43.8,62.7H56c0,2.7-2.7,4.9-6.1,4.9C46.5,67.6,43.8,65.4,43.8,62.7z M40.4,61.1v-3.5h19v3.5H40.4z M59.3,55.8h-19
			c-2.3-2.7-2.8-5-2.8-5l5.7,1.1c-0.8-1-1.8-2.8-1.7-5.6c0,0-0.3-1.2,1.2-4.3c1.5-3.1,0.7-5.7,0.7-5.7s2,0,2.5,5.7
			c0,0,1.7-1.9,1.6-5.5c-0.1-3.7,2.2-4.9,2.2-4.9s-0.9,2.2,0.4,4.4c1.3,2.2,1.3,4.3,1.5,6.8c0,0.3,0.1,0.6,0.2,0.9
			c0.1,0.2,0.3,0.3,0.5,0.3c0,0-1.1-6.8,2.3-9c0,0-0.6,3.2,0.5,4.9c1.1,1.8,3,4.5,2.3,8.2c-0.4,2.1-1.1,3-1.8,3.9l6.7-1.3
			C61.6,53.8,59.3,55.8,59.3,55.8z"/>
	</g>
</g>
</svg>
