<?xml version="1.0" encoding="utf-8"?>
<!-- Generator: Adobe Illustrator 22.1.0, SVG Export Plug-In . SVG Version: 6.00 Build 0)  -->
<svg version="1.1" id="Layer_1" xmlns="http://www.w3.org/2000/svg" xmlns:xlink="http://www.w3.org/1999/xlink" x="0px" y="0px"
	 width="400px" height="52.5px" viewBox="0 0 400 52.5" style="enable-background:new 0 0 400 52.5;" xml:space="preserve">
<style type="text/css">
	.st0{fill:#EC247C;}
	.st1{fill:url(#SVGID_1_);}
	.st2{fill:url(#SVGID_2_);}
	.st3{fill:url(#SVGID_3_);}
	.st4{fill:#FFFFFF;}
</style>
<g>
	<path class="st0" d="M308.9,20.6c-0.1-0.6-0.1-1.2-0.3-1.9c-0.2-0.7-0.5-1.5-0.9-2.3c-0.4-0.8-0.9-1.6-1.6-2.4
		c-0.3-0.3-0.6-0.6-0.9-0.9c0.5-1.9-0.6-3.5-0.6-3.5c-1.8-0.1-2.9,0.6-3.3,0.9c-0.1,0-0.1-0.1-0.2-0.1c-0.3-0.1-0.6-0.2-0.9-0.3
		c-0.3-0.1-0.6-0.2-1-0.3c-0.3-0.1-0.7-0.1-1-0.2c-0.1,0-0.1,0-0.2,0C297.2,7,295,6,295,6c-2.5,1.6-3,3.8-3,3.8s0,0,0,0.1
		c-0.1,0-0.3,0.1-0.4,0.1c-0.2,0.1-0.4,0.1-0.6,0.2c-0.2,0.1-0.4,0.1-0.6,0.2c-0.4,0.2-0.7,0.3-1.1,0.5c-0.4,0.2-0.7,0.4-1,0.7
		c0,0-0.1,0-0.1,0c-3.4-1.3-6.5,0.3-6.5,0.3c-0.3,3.7,1.4,6,1.7,6.4c-0.1,0.2-0.2,0.5-0.2,0.7c-0.3,0.8-0.4,1.7-0.6,2.6
		c0,0.1,0,0.3,0,0.4c-3.2,1.6-4.1,4.8-4.1,4.8c2.7,3.1,5.8,3.2,5.8,3.2c0,0,0,0,0,0c0.4,0.7,0.9,1.4,1.4,2c0.2,0.3,0.4,0.5,0.7,0.8
		c-1,2.8,0.1,5.1,0.1,5.1c3,0.1,4.9-1.3,5.3-1.6c0.3,0.1,0.6,0.2,0.9,0.3c0.9,0.2,1.8,0.4,2.8,0.4c0.2,0,0.5,0,0.7,0l0.1,0l0.1,0
		l0.1,0l0.1,0l0,0c1.4,2,3.8,2.3,3.8,2.3c1.7-1.8,1.8-3.7,1.8-4.1l0,0c0,0,0,0,0,0c0,0,0-0.1,0-0.1l0,0c0,0,0-0.1,0-0.1
		c0.4-0.3,0.7-0.5,1-0.8c0.7-0.6,1.3-1.4,1.8-2.1c0-0.1,0.1-0.1,0.1-0.2c2,0.1,3.4-1.2,3.4-1.2c-0.3-2.1-1.5-3.1-1.7-3.3l0,0
		c0,0,0,0,0,0c0,0,0,0,0,0l0,0c0,0,0,0,0,0c0-0.1,0-0.2,0-0.4c0-0.2,0-0.4,0-0.7l0-0.2l0-0.1l0,0c0-0.1,0,0,0-0.1l0-0.1l0-0.2
		c0-0.1,0-0.1,0-0.2c0-0.1,0-0.1,0-0.2l0-0.2l0-0.2c0-0.2-0.1-0.5-0.1-0.7c-0.2-0.9-0.6-1.7-1-2.5c-0.5-0.8-1-1.4-1.7-2
		c-0.6-0.6-1.4-1-2.1-1.4c-0.8-0.3-1.5-0.6-2.3-0.7c-0.4-0.1-0.8-0.1-1.2-0.1l-0.1,0l0,0c0,0-0.1,0,0,0l-0.1,0l-0.1,0
		c-0.1,0-0.1,0-0.2,0c-0.2,0-0.4,0-0.6,0.1c-0.8,0.1-1.5,0.4-2.2,0.8c-0.7,0.4-1.2,0.9-1.7,1.4c-0.5,0.6-0.8,1.2-1.1,1.8
		c-0.2,0.6-0.4,1.3-0.4,1.9c0,0.2,0,0.3,0,0.5c0,0,0,0.1,0,0.1l0,0.1c0,0.1,0,0.2,0,0.2c0,0.3,0.1,0.6,0.2,0.9
		c0.2,0.6,0.4,1.1,0.8,1.6c0.3,0.5,0.7,0.8,1.2,1.1c0.4,0.3,0.9,0.5,1.3,0.6c0.5,0.1,0.9,0.2,1.3,0.2c0.1,0,0.1,0,0.2,0
		c0,0,0.1,0,0.1,0c0,0,0.1,0,0.1,0c0,0,0.1,0,0.1,0c0,0,0,0,0,0l0,0c0,0,0.1,0,0.1,0c0.1,0,0.1,0,0.2,0c0.1,0,0.1,0,0.1,0
		c0.1,0,0.2-0.1,0.3-0.1c0.2-0.1,0.4-0.1,0.5-0.2c0.2-0.1,0.3-0.2,0.5-0.3c0,0,0.1-0.1,0.1-0.1c0.2-0.1,0.2-0.3,0.1-0.5
		c-0.1-0.1-0.3-0.2-0.4-0.1c0,0-0.1,0-0.1,0.1c-0.1,0.1-0.3,0.1-0.4,0.2c-0.1,0-0.3,0.1-0.4,0.1c-0.1,0-0.2,0-0.2,0c0,0-0.1,0-0.1,0
		c0,0-0.1,0-0.1,0c0,0-0.1,0-0.1,0c0,0-0.1,0-0.1,0c0,0,0,0,0,0l0,0l0,0c0,0,0,0-0.1,0c0,0-0.1,0-0.1,0c-0.3,0-0.7-0.1-1-0.3
		c-0.3-0.1-0.6-0.4-0.9-0.6c-0.3-0.3-0.5-0.6-0.7-0.9c-0.2-0.3-0.3-0.7-0.4-1.1c0-0.2,0-0.4,0-0.6c0-0.1,0-0.1,0-0.2c0,0,0,0,0,0
		l0,0l0,0c0,0,0-0.1,0-0.1c0-0.1,0-0.2,0-0.3c0.2-0.9,0.6-1.7,1.3-2.4c0.2-0.2,0.4-0.3,0.5-0.4c0.2-0.1,0.4-0.3,0.6-0.4
		c0.2-0.1,0.4-0.2,0.7-0.2c0.2-0.1,0.5-0.1,0.7-0.1c0.1,0,0.2,0,0.4,0c0,0,0.1,0,0.1,0l0.1,0l0.1,0c0,0,0,0,0,0l0,0l0.1,0
		c0.3,0,0.5,0.1,0.8,0.1c0.5,0.1,1,0.3,1.5,0.6c0.9,0.5,1.7,1.3,2.2,2.3c0.2,0.5,0.4,1,0.5,1.5c0,0.1,0,0.3,0,0.4l0,0.1l0,0.1
		c0,0,0,0.1,0,0.1c0,0,0,0.1,0,0.1l0,0.1l0,0.1c0,0.1,0,0.2,0,0.2c0,0.1,0,0.3,0,0.4c0,0.1,0,0.3-0.1,0.4c0,0.1-0.1,0.3-0.1,0.4
		c-0.1,0.3-0.2,0.6-0.3,0.8c-0.2,0.6-0.5,1.1-0.9,1.6c-0.7,1-1.7,1.8-2.8,2.3c-0.5,0.2-1.1,0.4-1.7,0.5c-0.3,0.1-0.6,0.1-0.9,0.1
		l-0.1,0l0,0l-0.1,0l-0.1,0l-0.1,0c0,0,0,0,0,0l0,0c-0.2,0-0.3,0-0.5,0c-0.6,0-1.3-0.2-1.9-0.3c-0.6-0.2-1.2-0.4-1.8-0.7
		c-1.1-0.6-2.1-1.4-2.9-2.4c-0.4-0.5-0.7-1-1-1.6c-0.3-0.6-0.5-1.1-0.7-1.7c-0.2-0.6-0.3-1.2-0.3-1.8l0-0.1l0,0l0,0l0-0.1l0-0.1l0,0
		l0,0l0-0.1l0-0.1l0,0c0,0,0,0,0,0l0-0.1c0-0.1,0-0.2,0-0.2c0-0.3,0-0.6,0.1-0.9c0-0.3,0.1-0.6,0.2-0.9c0.1-0.3,0.1-0.6,0.2-0.9
		c0.2-0.6,0.4-1.2,0.7-1.8c0.5-1.1,1.2-2.1,2-2.9c0.2-0.2,0.4-0.4,0.6-0.6c0.2-0.2,0.4-0.3,0.7-0.5c0.2-0.2,0.5-0.3,0.7-0.4
		c0.1-0.1,0.2-0.1,0.4-0.2c0.1,0,0.1-0.1,0.2-0.1c0.1,0,0.1-0.1,0.2-0.1c0.3-0.1,0.5-0.2,0.8-0.3c0.1,0,0.1,0,0.2-0.1
		c0.1,0,0.1,0,0.2-0.1c0.1,0,0.3-0.1,0.4-0.1c0.1,0,0.1,0,0.2,0c0.1,0,0.1,0,0.2,0c0.1,0,0.1,0,0.2,0l0.1,0l0.1,0c0.1,0,0.1,0,0.2,0
		c0.1,0,0.2,0,0.2,0c0.1,0,0.2,0,0.2,0c0,0,0.1,0,0.1,0l0.1,0l0,0l0.1,0c0.1,0,0.2,0,0.2,0l0.1,0c0,0,0,0,0,0l0,0l0.1,0
		c0.1,0,0.1,0,0.2,0c0.3,0,0.5,0,0.8,0c0.5,0,1.1,0.1,1.6,0.2c1,0.2,2,0.5,2.8,0.9c0.9,0.4,1.6,0.9,2.3,1.5c0,0,0.1,0.1,0.1,0.1
		c0,0,0.1,0.1,0.1,0.1c0.1,0.1,0.2,0.1,0.2,0.2c0.1,0.1,0.2,0.1,0.2,0.2c0.1,0.1,0.1,0.1,0.2,0.2c0.3,0.3,0.5,0.6,0.8,0.9
		c0.5,0.6,0.9,1.2,1.2,1.8c0,0,0,0.1,0.1,0.1c0,0,0,0.1,0.1,0.1c0,0.1,0.1,0.1,0.1,0.2c0,0.1,0.1,0.1,0.1,0.2c0,0.1,0.1,0.1,0.1,0.2
		c0.1,0.3,0.2,0.5,0.3,0.8c0.1,0.4,0.2,0.8,0.3,1.1c0,0.1,0.2,0.2,0.3,0.2c0.1,0,0.2-0.1,0.2-0.3C308.9,21.5,308.9,21.1,308.9,20.6z
		"/>
	<linearGradient id="SVGID_1_" gradientUnits="userSpaceOnUse" x1="10.4608" y1="25.9417" x2="31.3823" y2="25.9417">
		<stop  offset="0" style="stop-color:#92278F"/>
		<stop  offset="0.1186" style="stop-color:#7E2279"/>
		<stop  offset="0.2499" style="stop-color:#701F6B"/>
		<stop  offset="0.3785" style="stop-color:#671D62"/>
		<stop  offset="0.5" style="stop-color:#641C5F"/>
		<stop  offset="0.6124" style="stop-color:#681D63"/>
		<stop  offset="0.7594" style="stop-color:#731F6E"/>
		<stop  offset="0.9249" style="stop-color:#862381"/>
		<stop  offset="1" style="stop-color:#92278F"/>
	</linearGradient>
	<path class="st1" d="M20.9,0.3c0,0-10.5,2.1-10.5,9.4v35.2l10.5,6.7L31.4,45V9.7C31.4,2.4,20.9,0.3,20.9,0.3z"/>
	<linearGradient id="SVGID_2_" gradientUnits="userSpaceOnUse" x1="0" y1="25.9417" x2="20.9215" y2="25.9417">
		<stop  offset="0" style="stop-color:#EE2A7B"/>
		<stop  offset="1" style="stop-color:#662D91"/>
	</linearGradient>
	<path class="st2" d="M20.9,51.5C9.4,51.5,0,42.2,0,30.6V0.3c0,0,10.5,2.1,10.5,9.4v19.2C10.5,37.6,14.3,45.9,20.9,51.5L20.9,51.5z"
		/>
	<linearGradient id="SVGID_3_" gradientUnits="userSpaceOnUse" x1="41.843" y1="25.9417" x2="20.9215" y2="25.9417">
		<stop  offset="0" style="stop-color:#EE2A7B"/>
		<stop  offset="1" style="stop-color:#662D91"/>
	</linearGradient>
	<path class="st3" d="M20.9,51.5c11.6,0,20.9-9.4,20.9-20.9V0.3c0,0-10.5,2.1-10.5,9.4v19.2C31.4,37.6,27.6,45.9,20.9,51.5
		L20.9,51.5z"/>
	<path class="st4" d="M65,23h19.4v0.7C84.3,32,77.1,39,68.5,39c-8.8,0-16-7-16-15.7c0-8.6,7.2-15.8,15.9-15.8c6.3,0,12.5,4,14.4,9.5
		h-6.7c-1.7-2.5-4.6-4-7.8-4c-5.7,0-10.2,4.5-10.2,10.3s4.5,10.3,10.4,10.3c3.7,0,7-2.1,8.7-5.3H65V23z"/>
	<path class="st4" d="M88.5,8.1h9.2c4.3,0,6.7,0.9,8.8,3.3c1.4,1.7,2.2,3.8,2.2,6.1c0,2.1-0.8,4.5-2,6.1c-1.4,1.9-3,2.9-6,3.6
		l8.2,11.2h-6.8l-7.9-11.6h-0.1v11.6h-5.6V8.1z M97.7,22.6c3.4,0,5.4-1.8,5.4-4.7c0-2.8-2.1-4.6-5.4-4.6h-3.5v9.3H97.7z"/>
	<path class="st4" d="M122.4,8.1h4.4l12.8,30.4h-6.2l-3.2-7.9h-10.8l-3.4,7.9h-6.2L122.4,8.1z M127.9,25.3l-3.2-9.3h-0.1l-3.2,9.3
		H127.9z"/>
	<path class="st4" d="M142.8,8.1h15.3v5.3h-9.6v7.4h9.2V26h-9.2v12.5h-5.6V8.1z"/>
	<path class="st4" d="M168.7,8.1h4.4l12.8,30.4h-6.2l-3.2-7.9h-10.8l-3.4,7.9H156L168.7,8.1z M174.2,25.3l-3.2-9.3h-0.1l-3.2,9.3
		H174.2z"/>
	<path class="st4" d="M189.1,8.1h6.4l12.4,22.1h0.1V8.1h5.6v30.4h-6.3l-12.5-22.1h-0.1v22.1h-5.6V8.1z"/>
	<path class="st4" d="M229.6,8.1h4.4l12.8,30.4h-6.2l-3.2-7.9h-10.8l-3.4,7.9h-6.2L229.6,8.1z M235.1,25.3l-3.2-9.3h-0.1l-3.2,9.3
		H235.1z"/>
	<path class="st0" d="M275.8,30c-2.3,5.4-7.9,9-13.8,9c-8.6,0-15.6-7.2-15.6-15.9c0-8.6,7-15.6,15.4-15.6c4.2,0,8.1,1.7,11.2,4.8
		c1.4,1.5,1.9,2.3,2.9,4.4h-6.3c-1.4-1.6-2.5-2.4-4-3c-1.2-0.5-2.7-0.8-3.9-0.8c-5.2,0-9.6,4.7-9.6,10.2c0,5.6,4.5,10.4,9.8,10.4
		c1.3,0,2.6-0.3,3.8-0.9c1.2-0.5,1.9-1,3.1-2.3l0.4-0.5H275.8z"/>
	<path class="st0" d="M313.8,8.1h6.4l12.4,22.1h0.1V8.1h5.6v30.4H332l-12.5-22.1h-0.1v22.1h-5.6V8.1z"/>
	<path class="st4" d="M356.5,8.1h16.4v5.3h-10.7v7.4h10.3V26h-10.3v7.2h10.7v5.3h-16.4V8.1z"/>
	<path class="st4" d="M383.4,8.1v19.3c0,2.2,0.2,3.1,0.8,4.2c0.8,1.4,2.2,2.1,3.8,2.1c1.6,0,3-0.8,3.8-2.1c0.6-1,0.8-2.1,0.8-4.2
		V8.1h5.6v19.3c0,2.1-0.3,4.3-0.8,5.6c-0.5,1.1-1.2,2.2-2.1,3.1c-2,1.9-4.5,3-7.2,3c-2.8,0-5.3-1-7.3-2.9c-2.2-2.1-3-4.6-3-8.8V8.1
		H383.4z"/>
</g>
</svg>
