<?xml version="1.0" encoding="utf-8"?>
<!-- Generator: Adobe Illustrator 22.1.0, SVG Export Plug-In . SVG Version: 6.00 Build 0)  -->
<svg version="1.1" id="Layer_1" xmlns="http://www.w3.org/2000/svg" xmlns:xlink="http://www.w3.org/1999/xlink" x="0px" y="0px"
	 width="200px" height="35px" viewBox="0 0 200 35" style="enable-background:new 0 0 200 35;" xml:space="preserve">
<style type="text/css">
	.st0{fill:url(#SVGID_1_);}
	.st1{fill:#FFFFFF;}
	.st2{fill:url(#SVGID_2_);}
	.st3{fill:url(#SVGID_3_);}
	.st4{fill:url(#SVGID_4_);}
	.st5{fill:url(#SVGID_5_);}
	.st6{fill:url(#SVGID_6_);}
	.st7{fill:url(#SVGID_7_);}
	.st8{fill:url(#SVGID_8_);}
	.st9{fill:url(#SVGID_9_);}
	.st10{fill:url(#SVGID_10_);}
	.st11{fill:url(#SVGID_11_);}
	.st12{fill:url(#SVGID_12_);}
	.st13{fill:url(#SVGID_13_);}
	.st14{fill:url(#SVGID_14_);}
	.st15{fill:url(#SVGID_15_);}
	.st16{fill:url(#SVGID_16_);}
	.st17{fill:url(#SVGID_17_);}
	.st18{fill:url(#SVGID_18_);}
	.st19{fill:url(#SVGID_19_);}
	.st20{fill:url(#SVGID_20_);}
	.st21{fill:url(#SVGID_21_);}
	.st22{fill:url(#SVGID_22_);}
	.st23{fill:url(#SVGID_23_);}
	.st24{fill:url(#SVGID_24_);}
	.st25{fill:url(#SVGID_25_);}
	.st26{fill:url(#SVGID_26_);}
	.st27{fill:url(#SVGID_27_);}
	.st28{fill:url(#SVGID_28_);}
	.st29{fill:url(#SVGID_29_);}
	.st30{fill:url(#SVGID_30_);}
	.st31{fill:url(#SVGID_31_);}
	.st32{fill:url(#SVGID_32_);}
	.st33{fill:url(#SVGID_33_);}
	.st34{fill:url(#SVGID_34_);}
	.st35{fill:url(#SVGID_35_);}
	.st36{fill:url(#SVGID_36_);}
	.st37{fill:url(#SVGID_37_);}
	.st38{fill:url(#SVGID_38_);}
	.st39{fill:url(#SVGID_39_);}
	.st40{fill:url(#SVGID_40_);}
	.st41{fill:url(#SVGID_41_);}
	.st42{fill:url(#SVGID_42_);}
	.st43{fill:url(#SVGID_43_);}
	.st44{fill:url(#SVGID_44_);}
	.st45{fill:url(#SVGID_45_);}
	.st46{fill:url(#SVGID_46_);}
	.st47{fill:url(#SVGID_47_);}
	.st48{fill:url(#SVGID_48_);}
	.st49{fill:url(#SVGID_49_);}
	.st50{fill:url(#SVGID_50_);}
	.st51{fill:url(#SVGID_51_);}
	.st52{fill:url(#SVGID_52_);}
	.st53{fill:url(#SVGID_53_);}
	.st54{fill:url(#SVGID_54_);}
	.st55{fill:url(#SVGID_55_);}
	.st56{fill:url(#SVGID_56_);}
	.st57{fill:url(#SVGID_57_);}
	.st58{fill:url(#SVGID_58_);}
	.st59{fill:url(#SVGID_59_);}
	.st60{fill:url(#SVGID_60_);}
	.st61{fill:url(#SVGID_61_);}
	.st62{fill:url(#SVGID_62_);}
	.st63{fill:url(#SVGID_63_);}
	.st64{fill:url(#SVGID_64_);}
	.st65{fill:url(#SVGID_65_);}
	.st66{fill:url(#SVGID_66_);}
	.st67{fill:url(#SVGID_67_);}
	.st68{fill:url(#SVGID_68_);}
	.st69{fill:url(#SVGID_69_);}
	.st70{fill:url(#SVGID_70_);}
	.st71{fill:url(#SVGID_71_);}
	.st72{fill:url(#SVGID_72_);}
	.st73{fill:url(#SVGID_73_);}
	.st74{fill:url(#SVGID_74_);}
	.st75{fill:url(#SVGID_75_);}
	.st76{fill:url(#SVGID_76_);}
	.st77{fill:url(#SVGID_77_);}
	.st78{fill:url(#SVGID_78_);}
	.st79{fill:url(#SVGID_79_);}
	.st80{fill:url(#SVGID_80_);}
	.st81{fill:url(#SVGID_81_);}
	.st82{fill:url(#SVGID_82_);}
	.st83{fill:url(#SVGID_83_);}
	.st84{fill:url(#SVGID_84_);}
</style>
<g>
	<linearGradient id="SVGID_1_" gradientUnits="userSpaceOnUse" x1="148.2859" y1="23.3216" x2="148.2859" y2="9.1049">
		<stop  offset="0" style="stop-color:#00BBDB"/>
		<stop  offset="1" style="stop-color:#E53F97"/>
	</linearGradient>
	<path class="st0" d="M155.6,15.2c0-0.3-0.1-0.6-0.2-0.9c-0.1-0.3-0.2-0.7-0.4-1.1c-0.2-0.4-0.4-0.8-0.8-1.2
		c-0.1-0.2-0.3-0.3-0.4-0.5c0.2-0.9-0.3-1.7-0.3-1.7c-0.9-0.1-1.4,0.3-1.6,0.4c0,0-0.1,0-0.1,0c-0.1-0.1-0.3-0.1-0.5-0.2
		c-0.2,0-0.3-0.1-0.5-0.1c-0.2,0-0.3-0.1-0.5-0.1c0,0-0.1,0-0.1,0c-0.4-1.2-1.5-1.7-1.5-1.7c-1.2,0.8-1.4,1.8-1.4,1.8s0,0,0,0.1
		c-0.1,0-0.1,0-0.2,0.1c-0.1,0-0.2,0.1-0.3,0.1c-0.1,0-0.2,0.1-0.3,0.1c-0.2,0.1-0.4,0.2-0.5,0.3c-0.2,0.1-0.3,0.2-0.5,0.3
		c0,0,0,0,0,0c-1.7-0.6-3.1,0.1-3.1,0.1c-0.1,1.8,0.7,2.9,0.8,3.1c0,0.1-0.1,0.2-0.1,0.3c-0.1,0.4-0.2,0.8-0.3,1.2
		c0,0.1,0,0.1,0,0.2c-1.5,0.8-2,2.3-2,2.3c1.3,1.5,2.8,1.6,2.8,1.6c0,0,0,0,0,0c0.2,0.3,0.4,0.7,0.7,1c0.1,0.1,0.2,0.2,0.3,0.4
		c-0.5,1.3,0.1,2.4,0.1,2.4c1.4,0.1,2.4-0.6,2.6-0.8c0.1,0,0.3,0.1,0.4,0.1c0.4,0.1,0.9,0.2,1.3,0.2c0.1,0,0.2,0,0.3,0l0.1,0l0,0
		l0.1,0l0.1,0l0,0c0.7,1,1.9,1.1,1.9,1.1c0.8-0.9,0.9-1.8,0.9-2l0,0c0,0,0,0,0,0c0,0,0,0,0,0l0,0c0,0,0,0,0,0
		c0.2-0.1,0.3-0.3,0.5-0.4c0.3-0.3,0.6-0.7,0.9-1c0,0,0-0.1,0.1-0.1c1,0.1,1.6-0.6,1.6-0.6c-0.2-1-0.7-1.5-0.8-1.6l0,0c0,0,0,0,0,0
		c0,0,0,0,0,0l0,0c0,0,0,0,0,0c0-0.1,0-0.1,0-0.2c0-0.1,0-0.2,0-0.3l0-0.1l0,0l0,0c0,0,0,0,0,0l0-0.1l0-0.1c0,0,0-0.1,0-0.1
		c0,0,0-0.1,0-0.1l0-0.1l0-0.1c0-0.1,0-0.2-0.1-0.3c-0.1-0.4-0.3-0.8-0.5-1.2c-0.2-0.4-0.5-0.7-0.8-1c-0.3-0.3-0.7-0.5-1-0.7
		c-0.4-0.2-0.7-0.3-1.1-0.3c-0.2,0-0.4,0-0.6,0l-0.1,0l0,0c0,0,0,0,0,0l0,0l-0.1,0c0,0-0.1,0-0.1,0c-0.1,0-0.2,0-0.3,0
		c-0.4,0.1-0.7,0.2-1,0.4c-0.3,0.2-0.6,0.4-0.8,0.7c-0.2,0.3-0.4,0.6-0.5,0.9c-0.1,0.3-0.2,0.6-0.2,0.9c0,0.1,0,0.2,0,0.2
		c0,0,0,0,0,0.1l0,0.1c0,0,0,0.1,0,0.1c0,0.2,0,0.3,0.1,0.4c0.1,0.3,0.2,0.5,0.4,0.8c0.2,0.2,0.4,0.4,0.6,0.5
		c0.2,0.1,0.4,0.2,0.7,0.3c0.2,0.1,0.4,0.1,0.6,0.1c0,0,0.1,0,0.1,0c0,0,0,0,0,0c0,0,0,0,0,0c0,0,0,0,0.1,0c0,0,0,0,0,0l0,0
		c0,0,0,0,0,0c0,0,0.1,0,0.1,0c0,0,0,0,0.1,0c0,0,0.1,0,0.1,0c0.1,0,0.2-0.1,0.3-0.1c0.1,0,0.2-0.1,0.2-0.1c0,0,0,0,0.1,0
		c0.1-0.1,0.1-0.2,0-0.2c-0.1-0.1-0.1-0.1-0.2,0c0,0,0,0-0.1,0c-0.1,0-0.1,0.1-0.2,0.1c-0.1,0-0.1,0-0.2,0.1c0,0-0.1,0-0.1,0
		c0,0,0,0-0.1,0c0,0,0,0-0.1,0c0,0,0,0-0.1,0c0,0,0,0-0.1,0c0,0,0,0,0,0l0,0l0,0c0,0,0,0,0,0c0,0,0,0-0.1,0c-0.2,0-0.3-0.1-0.5-0.1
		c-0.2-0.1-0.3-0.2-0.4-0.3c-0.1-0.1-0.3-0.3-0.3-0.4c-0.1-0.2-0.2-0.4-0.2-0.5c0-0.1,0-0.2,0-0.3c0,0,0-0.1,0-0.1c0,0,0,0,0,0l0,0
		l0,0c0,0,0,0,0,0c0-0.1,0-0.1,0-0.2c0.1-0.4,0.3-0.8,0.6-1.1c0.1-0.1,0.2-0.2,0.3-0.2c0.1-0.1,0.2-0.1,0.3-0.2
		c0.1,0,0.2-0.1,0.3-0.1c0.1,0,0.2,0,0.3-0.1c0.1,0,0.1,0,0.2,0c0,0,0,0,0,0l0,0l0,0c0,0,0,0,0,0l0,0l0,0c0.1,0,0.3,0,0.4,0.1
		c0.2,0.1,0.5,0.1,0.7,0.3c0.4,0.2,0.8,0.6,1.1,1.1c0.1,0.2,0.2,0.5,0.2,0.7c0,0.1,0,0.1,0,0.2l0,0l0,0c0,0,0,0,0,0c0,0,0,0,0,0l0,0
		l0,0c0,0,0,0.1,0,0.1c0,0.1,0,0.1,0,0.2c0,0.1,0,0.1,0,0.2c0,0.1,0,0.1,0,0.2c0,0.1-0.1,0.3-0.1,0.4c-0.1,0.3-0.2,0.5-0.4,0.8
		c-0.3,0.5-0.8,0.8-1.3,1.1c-0.3,0.1-0.5,0.2-0.8,0.3c-0.1,0-0.3,0-0.4,0l0,0l0,0l0,0l-0.1,0l0,0c0,0,0,0,0,0l0,0
		c-0.1,0-0.2,0-0.2,0c-0.3,0-0.6-0.1-0.9-0.2c-0.3-0.1-0.6-0.2-0.9-0.3c-0.5-0.3-1-0.7-1.4-1.2c-0.2-0.2-0.4-0.5-0.5-0.8
		c-0.1-0.3-0.2-0.6-0.3-0.8c-0.1-0.3-0.1-0.6-0.1-0.9l0-0.1l0,0l0,0l0,0l0,0l0,0l0,0l0,0l0-0.1l0,0c0,0,0,0,0,0l0,0c0,0,0-0.1,0-0.1
		c0-0.1,0-0.3,0-0.5c0-0.2,0-0.3,0.1-0.5c0-0.2,0.1-0.3,0.1-0.4c0.1-0.3,0.2-0.6,0.3-0.8c0.2-0.5,0.6-1,1-1.4
		c0.1-0.1,0.2-0.2,0.3-0.3c0.1-0.1,0.2-0.2,0.3-0.2c0.1-0.1,0.2-0.1,0.3-0.2c0.1,0,0.1-0.1,0.2-0.1c0,0,0.1,0,0.1,0c0,0,0.1,0,0.1,0
		c0.1-0.1,0.3-0.1,0.4-0.1c0,0,0.1,0,0.1,0c0,0,0.1,0,0.1,0c0.1,0,0.1,0,0.2-0.1c0,0,0.1,0,0.1,0c0,0,0.1,0,0.1,0c0,0,0.1,0,0.1,0
		l0.1,0l0.1,0c0,0,0.1,0,0.1,0c0,0,0.1,0,0.1,0c0,0,0.1,0,0.1,0c0,0,0,0,0.1,0l0,0l0,0l0,0c0,0,0.1,0,0.1,0l0.1,0c0,0,0,0,0,0l0,0
		l0,0c0,0,0.1,0,0.1,0c0.1,0,0.3,0,0.4,0c0.3,0,0.5,0,0.8,0.1c0.5,0.1,0.9,0.2,1.4,0.5c0.4,0.2,0.8,0.5,1.1,0.7c0,0,0,0,0.1,0.1
		c0,0,0,0,0.1,0.1c0,0,0.1,0.1,0.1,0.1c0,0,0.1,0.1,0.1,0.1c0,0,0.1,0.1,0.1,0.1c0.1,0.1,0.3,0.3,0.4,0.4c0.2,0.3,0.4,0.6,0.6,0.9
		c0,0,0,0,0,0.1c0,0,0,0,0,0.1c0,0,0,0.1,0,0.1c0,0,0,0.1,0,0.1c0,0,0,0.1,0,0.1c0.1,0.1,0.1,0.3,0.1,0.4c0.1,0.2,0.1,0.4,0.2,0.5
		c0,0.1,0.1,0.1,0.1,0.1c0.1,0,0.1-0.1,0.1-0.1C155.6,15.6,155.6,15.4,155.6,15.2z"/>
	<path class="st1" d="M40,16.3h9.3v0.4c0,4-3.5,7.4-7.6,7.4c-4.3,0-7.7-3.4-7.7-7.6c0-4.2,3.5-7.6,7.7-7.6c3,0,6,1.9,6.9,4.6h-3.2
		c-0.8-1.2-2.2-1.9-3.8-1.9c-2.7,0-4.9,2.2-4.9,5s2.2,5,5,5c1.8,0,3.4-1,4.2-2.6H40V16.3z"/>
	<path class="st1" d="M50.7,9.1h4.4c2.1,0,3.3,0.5,4.2,1.6c0.7,0.8,1.1,1.8,1.1,2.9c0,1-0.4,2.2-1,3c-0.7,0.9-1.4,1.4-2.9,1.7l4,5.4
		h-3.3l-3.8-5.6h0v5.6h-2.7V9.1z M55.1,16.1c1.6,0,2.6-0.9,2.6-2.3c0-1.3-1-2.2-2.6-2.2h-1.7v4.5H55.1z"/>
	<path class="st1" d="M67.3,9.1h2.1l6.1,14.7h-3L71.1,20h-5.2l-1.6,3.8h-3L67.3,9.1z M70,17.4l-1.5-4.5h0l-1.5,4.5H70z"/>
	<path class="st1" d="M76.5,9.1h7.4v2.5h-4.6v3.6h4.4v2.5h-4.4v6h-2.7V9.1z"/>
	<path class="st1" d="M89,9.1h2.1l6.1,14.7h-3L92.7,20h-5.2l-1.6,3.8h-3L89,9.1z M91.6,17.4l-1.5-4.5h0l-1.5,4.5H91.6z"/>
	<path class="st1" d="M98.8,9.1h3.1l6,10.7h0V9.1h2.7v14.7h-3l-6-10.6h0v10.6h-2.7V9.1z"/>
	<path class="st1" d="M118.3,9.1h2.1l6.1,14.7h-3l-1.6-3.8h-5.2l-1.6,3.8h-3L118.3,9.1z M121,17.4l-1.5-4.5h0l-1.5,4.5H121z"/>
	<linearGradient id="SVGID_2_" gradientUnits="userSpaceOnUse" x1="133.31" y1="23.3216" x2="133.31" y2="9.1049">
		<stop  offset="0" style="stop-color:#00BBDB"/>
		<stop  offset="1" style="stop-color:#E53F97"/>
	</linearGradient>
	<path class="st2" d="M140.4,19.7c-1.1,2.6-3.8,4.3-6.7,4.3c-4.1,0-7.5-3.5-7.5-7.7c0-4.1,3.4-7.5,7.4-7.5c2,0,3.9,0.8,5.4,2.3
		c0.7,0.7,0.9,1.1,1.4,2.1h-3c-0.7-0.8-1.2-1.2-1.9-1.5c-0.6-0.2-1.3-0.4-1.9-0.4c-2.5,0-4.6,2.3-4.6,4.9c0,2.7,2.2,5,4.7,5
		c0.6,0,1.2-0.1,1.8-0.4c0.6-0.3,0.9-0.5,1.5-1.1l0.2-0.2H140.4z"/>
	<linearGradient id="SVGID_3_" gradientUnits="userSpaceOnUse" x1="163.218" y1="23.3216" x2="163.218" y2="9.1049">
		<stop  offset="0" style="stop-color:#00BBDB"/>
		<stop  offset="1" style="stop-color:#E53F97"/>
	</linearGradient>
	<path class="st3" d="M157.3,9.1h3.1l6,10.7h0V9.1h2.7v14.7h-3l-6-10.6h0v10.6h-2.7V9.1z"/>
	<g>
		<path class="st1" d="M178,9.1h2.7v12.1h4.2v2.5h-7V9.1z"/>
		<path class="st1" d="M191.6,9.1h2.1l6.2,14.7h-3l-1.6-3.8h-5.2l-1.6,3.8h-3L191.6,9.1z M194.2,17.4l-1.5-4.5h0l-1.5,4.5H194.2z"/>
	</g>
	<g>
		<linearGradient id="SVGID_4_" gradientUnits="userSpaceOnUse" x1="27.6949" y1="34.7777" x2="27.3679" y2="34.4507">
			<stop  offset="0" style="stop-color:#00BBDB"/>
			<stop  offset="1" style="stop-color:#E53F97"/>
		</linearGradient>
		<path class="st4" d="M27.3,34.5c0,0.2,0.4,0.1,0.5,0.1C27.7,34.4,27.2,34.6,27.3,34.5z"/>
		<linearGradient id="SVGID_5_" gradientUnits="userSpaceOnUse" x1="26.1887" y1="32.4125" x2="25.8404" y2="32.0642">
			<stop  offset="0" style="stop-color:#00BBDB"/>
			<stop  offset="1" style="stop-color:#E53F97"/>
		</linearGradient>
		<polygon class="st5" points="26.1,32.3 26.3,32.3 25.8,32.1 		"/>
		<linearGradient id="SVGID_6_" gradientUnits="userSpaceOnUse" x1="26.3154" y1="31.6798" x2="25.5473" y2="30.9117">
			<stop  offset="0" style="stop-color:#00BBDB"/>
			<stop  offset="1" style="stop-color:#E53F97"/>
		</linearGradient>
		<path class="st6" d="M25.9,30.7c-0.8,0.2,0.2,0.6-0.1,0.9l-0.2,0.1l0.6,0.1c-0.1-0.2-0.2-0.3-0.3-0.5C25.9,31,25.8,30.8,25.9,30.7
			z"/>
		<linearGradient id="SVGID_7_" gradientUnits="userSpaceOnUse" x1="27.5435" y1="29.8244" x2="27.34" y2="29.6209">
			<stop  offset="0" style="stop-color:#00BBDB"/>
			<stop  offset="1" style="stop-color:#E53F97"/>
		</linearGradient>
		<path class="st7" d="M27.5,29.7c-0.3,0.1-0.3-0.2-0.1,0.2c0,0,0.1,0,0.1,0C27.5,29.8,27.5,29.8,27.5,29.7z"/>
		<linearGradient id="SVGID_8_" gradientUnits="userSpaceOnUse" x1="27.6143" y1="29.8787" x2="27.5517" y2="29.8161">
			<stop  offset="0" style="stop-color:#00BBDB"/>
			<stop  offset="1" style="stop-color:#E53F97"/>
		</linearGradient>
		<path class="st8" d="M27.5,29.8C27.6,30,27.8,29.7,27.5,29.8L27.5,29.8z"/>
		<linearGradient id="SVGID_9_" gradientUnits="userSpaceOnUse" x1="27.8061" y1="29.1758" x2="27.4794" y2="28.8492">
			<stop  offset="0" style="stop-color:#00BBDB"/>
			<stop  offset="1" style="stop-color:#E53F97"/>
		</linearGradient>
		<path class="st9" d="M27.3,29l0.3,0.2c0.2-0.1,0.2-0.3,0.3-0.2C27.8,28.8,27.6,28.8,27.3,29z"/>
		<linearGradient id="SVGID_10_" gradientUnits="userSpaceOnUse" x1="26.9226" y1="28.8852" x2="26.791" y2="28.7536">
			<stop  offset="0" style="stop-color:#00BBDB"/>
			<stop  offset="1" style="stop-color:#E53F97"/>
		</linearGradient>
		<path class="st10" d="M26.8,28.8l0.1,0.1C27,28.9,27,28.8,26.8,28.8z"/>
		<linearGradient id="SVGID_11_" gradientUnits="userSpaceOnUse" x1="27.0816" y1="29.2102" x2="26.7645" y2="28.8931">
			<stop  offset="0" style="stop-color:#00BBDB"/>
			<stop  offset="1" style="stop-color:#E53F97"/>
		</linearGradient>
		<path class="st11" d="M27.1,29.2l-0.2-0.3c-0.1,0-0.4,0,0.1,0.1C26.7,29,27,29.1,27.1,29.2z"/>
		<linearGradient id="SVGID_12_" gradientUnits="userSpaceOnUse" x1="26.972" y1="29.634" x2="26.6106" y2="29.2726">
			<stop  offset="0" style="stop-color:#00BBDB"/>
			<stop  offset="1" style="stop-color:#E53F97"/>
		</linearGradient>
		<path class="st12" d="M27,29.3c-0.2,0.1-0.3,0.3-0.5,0.1C26.6,29.9,27.1,29.8,27,29.3z"/>
		<linearGradient id="SVGID_13_" gradientUnits="userSpaceOnUse" x1="25.2414" y1="30.8959" x2="25.0343" y2="30.6888">
			<stop  offset="0" style="stop-color:#00BBDB"/>
			<stop  offset="1" style="stop-color:#E53F97"/>
		</linearGradient>
		<path class="st13" d="M25.1,30.6l-0.2,0.2l0.3,0.2C25,30.9,25.4,30.6,25.1,30.6z"/>
		<linearGradient id="SVGID_14_" gradientUnits="userSpaceOnUse" x1="27.5281" y1="27.6482" x2="27.2592" y2="27.3793">
			<stop  offset="0" style="stop-color:#00BBDB"/>
			<stop  offset="1" style="stop-color:#E53F97"/>
		</linearGradient>
		<path class="st14" d="M27.7,27.5c-0.2,0-0.4,0.1-0.6,0.1l0.2,0.2C27.4,27.7,27.5,27.5,27.7,27.5z"/>
		<linearGradient id="SVGID_15_" gradientUnits="userSpaceOnUse" x1="27.028" y1="27.6104" x2="26.7511" y2="27.3335">
			<stop  offset="0" style="stop-color:#00BBDB"/>
			<stop  offset="1" style="stop-color:#E53F97"/>
		</linearGradient>
		<path class="st15" d="M27.1,27.6l-0.3-0.3C26.8,27.5,26.9,27.6,27.1,27.6z"/>
		<linearGradient id="SVGID_16_" gradientUnits="userSpaceOnUse" x1="26.4794" y1="29.2196" x2="25.9144" y2="28.6546">
			<stop  offset="0" style="stop-color:#00BBDB"/>
			<stop  offset="1" style="stop-color:#E53F97"/>
		</linearGradient>
		<polygon class="st16" points="25.9,28.7 26.5,29.2 25.9,28.7 		"/>
		<linearGradient id="SVGID_17_" gradientUnits="userSpaceOnUse" x1="28.0419" y1="26.6443" x2="27.6178" y2="26.2202">
			<stop  offset="0" style="stop-color:#00BBDB"/>
			<stop  offset="1" style="stop-color:#E53F97"/>
		</linearGradient>
		<polygon class="st17" points="27.7,26.4 28.1,26.6 27.5,26.3 		"/>
		<linearGradient id="SVGID_18_" gradientUnits="userSpaceOnUse" x1="28.2277" y1="25.8547" x2="27.6948" y2="25.3218">
			<stop  offset="0" style="stop-color:#00BBDB"/>
			<stop  offset="1" style="stop-color:#E53F97"/>
		</linearGradient>
		<path class="st18" d="M27.7,25.7c0.3,0.1,0.5-0.2,0.7,0c-0.1-0.2-0.3-0.4-0.6-0.5C28,25.3,27.9,25.5,27.7,25.7z"/>
		<linearGradient id="SVGID_19_" gradientUnits="userSpaceOnUse" x1="27.8175" y1="25.1991" x2="27.5176" y2="24.8993">
			<stop  offset="0" style="stop-color:#00BBDB"/>
			<stop  offset="1" style="stop-color:#E53F97"/>
		</linearGradient>
		<path class="st19" d="M27.5,24.9c0.1,0.1,0.2,0.2,0.3,0.3C27.8,25.1,27.7,25,27.5,24.9z"/>
		<linearGradient id="SVGID_20_" gradientUnits="userSpaceOnUse" x1="27.174" y1="26.7783" x2="26.9953" y2="26.5997">
			<stop  offset="0" style="stop-color:#00BBDB"/>
			<stop  offset="1" style="stop-color:#E53F97"/>
		</linearGradient>
		<path class="st20" d="M26.9,26.8c0.1,0,0.4-0.1,0.5-0.2l-0.5,0.1C26.9,26.7,26.9,26.8,26.9,26.8z"/>
		<linearGradient id="SVGID_21_" gradientUnits="userSpaceOnUse" x1="26.9444" y1="26.6506" x2="26.8404" y2="26.5466">
			<stop  offset="0" style="stop-color:#00BBDB"/>
			<stop  offset="1" style="stop-color:#E53F97"/>
		</linearGradient>
		<path class="st21" d="M26.9,26.7L26.9,26.7c0-0.1,0-0.2,0-0.2C26.9,26.5,26.9,26.6,26.9,26.7z"/>
		<linearGradient id="SVGID_22_" gradientUnits="userSpaceOnUse" x1="26.8749" y1="26.8468" x2="26.8491" y2="26.821">
			<stop  offset="0" style="stop-color:#00BBDB"/>
			<stop  offset="1" style="stop-color:#E53F97"/>
		</linearGradient>
		<path class="st22" d="M26.9,26.8L26.9,26.8C26.8,26.8,26.8,26.8,26.9,26.8z"/>
		<linearGradient id="SVGID_23_" gradientUnits="userSpaceOnUse" x1="26.1419" y1="28.2022" x2="25.5977" y2="27.6581">
			<stop  offset="0" style="stop-color:#00BBDB"/>
			<stop  offset="1" style="stop-color:#E53F97"/>
		</linearGradient>
		<path class="st23" d="M26.3,28c-0.3-0.2-0.5-0.5-0.9-0.2C25.7,28,25.9,27.8,26.3,28z"/>
		<linearGradient id="SVGID_24_" gradientUnits="userSpaceOnUse" x1="26.5203" y1="27.3972" x2="26.2031" y2="27.0799">
			<stop  offset="0" style="stop-color:#00BBDB"/>
			<stop  offset="1" style="stop-color:#E53F97"/>
		</linearGradient>
		<path class="st24" d="M26.3,27l-0.1,0.3c0.1,0,0.3-0.1,0.4,0L26.3,27z"/>
		<linearGradient id="SVGID_25_" gradientUnits="userSpaceOnUse" x1="26.3392" y1="26.9438" x2="26.1945" y2="26.7991">
			<stop  offset="0" style="stop-color:#00BBDB"/>
			<stop  offset="1" style="stop-color:#E53F97"/>
		</linearGradient>
		<polygon class="st25" points="26.2,26.8 26.3,27 26.3,26.9 		"/>
		<linearGradient id="SVGID_26_" gradientUnits="userSpaceOnUse" x1="27.0195" y1="25.5259" x2="26.6535" y2="25.1599">
			<stop  offset="0" style="stop-color:#00BBDB"/>
			<stop  offset="1" style="stop-color:#E53F97"/>
		</linearGradient>
		<path class="st26" d="M27.1,25.4c-0.2-0.1-0.2-0.3-0.2-0.4c-0.1,0.2-0.1,0.3-0.1,0.5C26.8,25.5,27.1,25.6,27.1,25.4z"/>
		<linearGradient id="SVGID_27_" gradientUnits="userSpaceOnUse" x1="26.9136" y1="26.0654" x2="26.8803" y2="26.0321">
			<stop  offset="0" style="stop-color:#00BBDB"/>
			<stop  offset="1" style="stop-color:#E53F97"/>
		</linearGradient>
		<path class="st27" d="M26.9,26.1L26.9,26.1C26.9,26,26.8,26.1,26.9,26.1z"/>
		<linearGradient id="SVGID_28_" gradientUnits="userSpaceOnUse" x1="26.8286" y1="23.4649" x2="26.7857" y2="23.422">
			<stop  offset="0" style="stop-color:#00BBDB"/>
			<stop  offset="1" style="stop-color:#E53F97"/>
		</linearGradient>
		<path class="st28" d="M26.8,23.4C26.8,23.4,26.8,23.4,26.8,23.4L26.8,23.4L26.8,23.4z"/>
		<linearGradient id="SVGID_29_" gradientUnits="userSpaceOnUse" x1="26.7941" y1="25.7674" x2="26.5595" y2="25.5328">
			<stop  offset="0" style="stop-color:#00BBDB"/>
			<stop  offset="1" style="stop-color:#E53F97"/>
		</linearGradient>
		<path class="st29" d="M26.6,25.5c-0.1,0.1,0,0.2,0.2,0.3C26.7,25.7,26.7,25.6,26.6,25.5C26.6,25.5,26.6,25.5,26.6,25.5z"/>
		<linearGradient id="SVGID_30_" gradientUnits="userSpaceOnUse" x1="27.2081" y1="24.6353" x2="27.1532" y2="24.5804">
			<stop  offset="0" style="stop-color:#00BBDB"/>
			<stop  offset="1" style="stop-color:#E53F97"/>
		</linearGradient>
		<path class="st30" d="M27.3,24.5c-0.1,0.1-0.2,0.1-0.3,0.2C27.2,24.6,27.4,24.5,27.3,24.5z"/>
		<linearGradient id="SVGID_31_" gradientUnits="userSpaceOnUse" x1="27.0814" y1="25.9953" x2="27.048" y2="25.9619">
			<stop  offset="0" style="stop-color:#00BBDB"/>
			<stop  offset="1" style="stop-color:#E53F97"/>
		</linearGradient>
		<path class="st31" d="M27,26C27,26,27,26,27,26C27.1,26,27.1,26,27,26z"/>
		<linearGradient id="SVGID_32_" gradientUnits="userSpaceOnUse" x1="26.9842" y1="26.0257" x2="26.76" y2="25.8015">
			<stop  offset="0" style="stop-color:#00BBDB"/>
			<stop  offset="1" style="stop-color:#E53F97"/>
		</linearGradient>
		<path class="st32" d="M27,26c-0.1-0.1-0.2-0.1-0.3-0.2c0,0.1,0.1,0.1,0.2,0.2C26.9,26,27,26,27,26z"/>
		<linearGradient id="SVGID_33_" gradientUnits="userSpaceOnUse" x1="26.1066" y1="24.1011" x2="24.3329" y2="22.3274">
			<stop  offset="0" style="stop-color:#00BBDB"/>
			<stop  offset="1" style="stop-color:#E53F97"/>
		</linearGradient>
		<path class="st33" d="M23.9,22.9c0.4,0,0.8,0.4,0.4,0.7c0.3,0.3,1.7,0.1,2.5-0.1c-0.2,0-0.4,0-0.6-0.3c-0.2,0.1-0.5,0.7-0.9,0.4
			c-0.2-0.4,0.2-0.3,0.4-0.5c-0.5,0.2-0.8-0.5-1.5-0.4l0.3,0.3C24.2,22.9,24,22.8,23.9,22.9z"/>
		<linearGradient id="SVGID_34_" gradientUnits="userSpaceOnUse" x1="27.0904" y1="23.9711" x2="26.7064" y2="23.5871">
			<stop  offset="0" style="stop-color:#00BBDB"/>
			<stop  offset="1" style="stop-color:#E53F97"/>
		</linearGradient>
		<path class="st34" d="M26.7,24l0.1,0.1c0.1-0.1,0.2-0.2,0.6-0.4c-0.2-0.2-0.4-0.3-0.5-0.3L26.7,24L26.7,24z"/>
		<linearGradient id="SVGID_35_" gradientUnits="userSpaceOnUse" x1="26.8179" y1="24.9955" x2="25.9398" y2="24.1174">
			<stop  offset="0" style="stop-color:#00BBDB"/>
			<stop  offset="1" style="stop-color:#E53F97"/>
		</linearGradient>
		<path class="st35" d="M26.8,24.7c-0.5-0.1-0.7-0.4-1.2-0.2c0,0.4,0.4,0.3,0.6,0.5C26.1,24.4,26.4,25.1,26.8,24.7
			c0,0.1,0,0.2,0.1,0.3c0.1-0.1,0.1-0.2,0.2-0.3l0,0l0,0l0,0c-0.1,0-0.1,0-0.1,0c0,0,0,0,0,0C26.9,24.7,26.8,24.7,26.8,24.7
			c0.1-0.2,0.1,0,0.2,0l0.1,0l0,0l-0.2-0.6C26.7,24.3,26.7,24.4,26.8,24.7z"/>
		<linearGradient id="SVGID_36_" gradientUnits="userSpaceOnUse" x1="24.4935" y1="27.5558" x2="24.4372" y2="27.4995">
			<stop  offset="0" style="stop-color:#00BBDB"/>
			<stop  offset="1" style="stop-color:#E53F97"/>
		</linearGradient>
		<path class="st36" d="M24.4,27.5c0,0,0.1,0,0.1,0C24.5,27.5,24.4,27.5,24.4,27.5z"/>
		<linearGradient id="SVGID_37_" gradientUnits="userSpaceOnUse" x1="25.3671" y1="27.4742" x2="24.9476" y2="27.0546">
			<stop  offset="0" style="stop-color:#00BBDB"/>
			<stop  offset="1" style="stop-color:#E53F97"/>
		</linearGradient>
		<path class="st37" d="M24.7,27.3c0.1,0,0.2,0.1,0.2,0.2c-0.1,0.1-0.2,0-0.4,0c0.1,0.1,0.3,0.3,0.6,0l-0.1,0
			c0.2-0.2,0.7-0.5,0.8-0.5C25.4,27.1,25.1,27.2,24.7,27.3z"/>
		<linearGradient id="SVGID_38_" gradientUnits="userSpaceOnUse" x1="25.5722" y1="26.0031" x2="25.1403" y2="25.5712">
			<stop  offset="0" style="stop-color:#00BBDB"/>
			<stop  offset="1" style="stop-color:#E53F97"/>
		</linearGradient>
		<path class="st38" d="M25.6,26l-0.2-0.5L25,25.7l0.2,0C25.1,26,25.4,25.9,25.6,26z"/>
		<linearGradient id="SVGID_39_" gradientUnits="userSpaceOnUse" x1="27.4541" y1="23.547" x2="26.9682" y2="23.0611">
			<stop  offset="0" style="stop-color:#00BBDB"/>
			<stop  offset="1" style="stop-color:#E53F97"/>
		</linearGradient>
		<polygon class="st39" points="27.1,23.4 27.6,23.4 26.9,23.2 		"/>
		<linearGradient id="SVGID_40_" gradientUnits="userSpaceOnUse" x1="27.3461" y1="22.8691" x2="27.1204" y2="22.6434">
			<stop  offset="0" style="stop-color:#00BBDB"/>
			<stop  offset="1" style="stop-color:#E53F97"/>
		</linearGradient>
		<polygon class="st40" points="27,22.7 27.4,22.8 27.2,22.6 		"/>
		<linearGradient id="SVGID_41_" gradientUnits="userSpaceOnUse" x1="13.1694" y1="10.0278" x2="13.0545" y2="9.9129">
			<stop  offset="0" style="stop-color:#00BBDB"/>
			<stop  offset="1" style="stop-color:#E53F97"/>
		</linearGradient>
		<path class="st41" d="M13.1,10.1l0-0.2C13.1,10,13.1,10,13.1,10.1z"/>
		<linearGradient id="SVGID_42_" gradientUnits="userSpaceOnUse" x1="12.8439" y1="11.1109" x2="12.6989" y2="10.9659">
			<stop  offset="0" style="stop-color:#00BBDB"/>
			<stop  offset="1" style="stop-color:#E53F97"/>
		</linearGradient>
		<path class="st42" d="M12.7,11l0.2,0.1C12.8,11,12.7,10.9,12.7,11z"/>
		<linearGradient id="SVGID_43_" gradientUnits="userSpaceOnUse" x1="21.003" y1="11.9923" x2="20.4721" y2="11.4614">
			<stop  offset="0" style="stop-color:#00BBDB"/>
			<stop  offset="1" style="stop-color:#E53F97"/>
		</linearGradient>
		<path class="st43" d="M21.1,11.9c-0.2-0.3-0.6-0.9-0.5-0.3l0.1,0.5C20.9,11.8,21,11.8,21.1,11.9z"/>
		<linearGradient id="SVGID_44_" gradientUnits="userSpaceOnUse" x1="12.7717" y1="20.3387" x2="12.4634" y2="20.0304">
			<stop  offset="0" style="stop-color:#00BBDB"/>
			<stop  offset="1" style="stop-color:#E53F97"/>
		</linearGradient>
		<path class="st44" d="M12.6,20c0,0-0.1,0-0.2,0c0.1,0.1,0.3,0.1,0.4,0.2C12.7,20.2,12.6,20.1,12.6,20z"/>
		<linearGradient id="SVGID_45_" gradientUnits="userSpaceOnUse" x1="10.9407" y1="19.347" x2="10.8822" y2="19.2884">
			<stop  offset="0" style="stop-color:#00BBDB"/>
			<stop  offset="1" style="stop-color:#E53F97"/>
		</linearGradient>
		<path class="st45" d="M10.7,19.5c0.1-0.1,0.3-0.2,0.4-0.3C11,19.2,10.9,19.3,10.7,19.5z"/>
		<linearGradient id="SVGID_46_" gradientUnits="userSpaceOnUse" x1="15.5049" y1="4.667" x2="15.1507" y2="4.3128">
			<stop  offset="0" style="stop-color:#00BBDB"/>
			<stop  offset="1" style="stop-color:#E53F97"/>
		</linearGradient>
		<path class="st46" d="M15.5,4.7l-0.3-0.4C15.1,4.5,15.3,4.5,15.5,4.7z"/>
		<linearGradient id="SVGID_47_" gradientUnits="userSpaceOnUse" x1="28.1642" y1="13.6656" x2="27.9358" y2="13.4371">
			<stop  offset="0" style="stop-color:#00BBDB"/>
			<stop  offset="1" style="stop-color:#E53F97"/>
		</linearGradient>
		<path class="st47" d="M28,13.9c0.2-0.4,0.3-0.6,0.3-0.8C28,13.6,27.5,14.2,28,13.9z"/>
		<linearGradient id="SVGID_48_" gradientUnits="userSpaceOnUse" x1="17.4466" y1="12.4752" x2="17.2298" y2="12.2584">
			<stop  offset="0" style="stop-color:#00BBDB"/>
			<stop  offset="1" style="stop-color:#E53F97"/>
		</linearGradient>
		<path class="st48" d="M17.4,12.5c0-0.1-0.1-0.2-0.2-0.2C17.3,12.4,17.3,12.4,17.4,12.5z"/>
		<linearGradient id="SVGID_49_" gradientUnits="userSpaceOnUse" x1="28.4376" y1="12.9353" x2="28.1697" y2="12.6675">
			<stop  offset="0" style="stop-color:#00BBDB"/>
			<stop  offset="1" style="stop-color:#E53F97"/>
		</linearGradient>
		<path class="st49" d="M28.2,12.6c0,0.1-0.1,0.1-0.1,0.2c0.1,0,0.2,0.1,0.1,0.3C28.5,12.8,28.6,12.5,28.2,12.6z"/>
		<linearGradient id="SVGID_50_" gradientUnits="userSpaceOnUse" x1="8.7802" y1="10.8861" x2="8.7342" y2="10.8401">
			<stop  offset="0" style="stop-color:#00BBDB"/>
			<stop  offset="1" style="stop-color:#E53F97"/>
		</linearGradient>
		<path class="st50" d="M8.8,10.9C8.8,10.9,8.8,10.9,8.8,10.9C8.8,10.9,8.8,10.9,8.8,10.9z"/>
		<linearGradient id="SVGID_51_" gradientUnits="userSpaceOnUse" x1="1.4992" y1="10.2695" x2="1.4771" y2="10.2475">
			<stop  offset="0" style="stop-color:#00BBDB"/>
			<stop  offset="1" style="stop-color:#E53F97"/>
		</linearGradient>
		<path class="st51" d="M1.4,10.4c0-0.1,0.1-0.1,0.2-0.2C1.5,10.2,1.5,10.2,1.4,10.4z"/>
		<linearGradient id="SVGID_52_" gradientUnits="userSpaceOnUse" x1="27.3711" y1="20.2515" x2="27.3125" y2="20.1928">
			<stop  offset="0" style="stop-color:#00BBDB"/>
			<stop  offset="1" style="stop-color:#E53F97"/>
		</linearGradient>
		<path class="st52" d="M27.3,20.2C27.3,20.4,27.4,20.2,27.3,20.2L27.3,20.2z"/>
		<linearGradient id="SVGID_53_" gradientUnits="userSpaceOnUse" x1="25.4053" y1="20.9402" x2="25.2622" y2="20.7971">
			<stop  offset="0" style="stop-color:#00BBDB"/>
			<stop  offset="1" style="stop-color:#E53F97"/>
		</linearGradient>
		<path class="st53" d="M25.4,20.9c-0.1,0-0.1-0.1-0.2-0.1C25.3,20.9,25.4,20.9,25.4,20.9z"/>
		<linearGradient id="SVGID_54_" gradientUnits="userSpaceOnUse" x1="25.4841" y1="14.3329" x2="25.4695" y2="14.3183">
			<stop  offset="0" style="stop-color:#00BBDB"/>
			<stop  offset="1" style="stop-color:#E53F97"/>
		</linearGradient>
		<path class="st54" d="M25.5,14.3C25.5,14.3,25.5,14.3,25.5,14.3C25.4,14.4,25.4,14.4,25.5,14.3z"/>
		<linearGradient id="SVGID_55_" gradientUnits="userSpaceOnUse" x1="27.2011" y1="20.3689" x2="27.1533" y2="20.3211">
			<stop  offset="0" style="stop-color:#00BBDB"/>
			<stop  offset="1" style="stop-color:#E53F97"/>
		</linearGradient>
		<path class="st55" d="M27.1,20.5c0.1-0.1,0.1-0.2,0.2-0.3C27.2,20.3,27.2,20.3,27.1,20.5z"/>
		<linearGradient id="SVGID_56_" gradientUnits="userSpaceOnUse" x1="27.3603" y1="20.5906" x2="27.2635" y2="20.4939">
			<stop  offset="0" style="stop-color:#00BBDB"/>
			<stop  offset="1" style="stop-color:#E53F97"/>
		</linearGradient>
		<path class="st56" d="M27.3,20.4c0,0.1,0,0.1-0.1,0.2C27.3,20.6,27.4,20.6,27.3,20.4z"/>
		<linearGradient id="SVGID_57_" gradientUnits="userSpaceOnUse" x1="27.38" y1="20.1253" x2="27.2269" y2="19.9723">
			<stop  offset="0" style="stop-color:#00BBDB"/>
			<stop  offset="1" style="stop-color:#E53F97"/>
		</linearGradient>
		<path class="st57" d="M27.3,19.9c0,0.1,0,0.3-0.1,0.4c0,0,0.1-0.1,0.1,0C27.3,20.1,27.3,20,27.3,19.9z"/>
		<linearGradient id="SVGID_58_" gradientUnits="userSpaceOnUse" x1="17.4753" y1="4.8916" x2="17.4053" y2="4.8216">
			<stop  offset="0" style="stop-color:#00BBDB"/>
			<stop  offset="1" style="stop-color:#E53F97"/>
		</linearGradient>
		<path class="st58" d="M17.5,4.8C17.5,4.8,17.5,4.8,17.5,4.8C17.4,5,17.4,5,17.5,4.8z"/>
		<linearGradient id="SVGID_59_" gradientUnits="userSpaceOnUse" x1="18.9693" y1="18.709" x2="18.942" y2="18.6817">
			<stop  offset="0" style="stop-color:#00BBDB"/>
			<stop  offset="1" style="stop-color:#E53F97"/>
		</linearGradient>
		<path class="st59" d="M19,18.7C19,18.7,19,18.7,19,18.7L19,18.7L19,18.7z"/>
		<linearGradient id="SVGID_60_" gradientUnits="userSpaceOnUse" x1="18.9698" y1="18.9945" x2="17.8556" y2="17.8803">
			<stop  offset="0" style="stop-color:#00BBDB"/>
			<stop  offset="1" style="stop-color:#E53F97"/>
		</linearGradient>
		<path class="st60" d="M18.7,19.3c-0.1-0.6,0-0.6,0.2-0.6l-0.8-1.1L18.7,19.3z"/>
		<linearGradient id="SVGID_61_" gradientUnits="userSpaceOnUse" x1="27.3124" y1="22.1575" x2="8.183" y2="3.0281">
			<stop  offset="0" style="stop-color:#00BBDB"/>
			<stop  offset="1" style="stop-color:#E53F97"/>
		</linearGradient>
		<path class="st61" d="M14.2,7.6l-0.5,0.1c-0.4-0.7,0-0.9-0.7-0.9c1.2,0.7-0.6,1.4,0.7,2.1l-0.4,0.1c0-0.1,0-0.1,0-0.2
			c-0.8,0.1,0.8,0.8,0.4,1.2c-0.2,0.1-0.4,0.2-0.5,0l0.1,0.5c-0.1,0.1-0.3,0-0.2-0.1l-0.2,0.6l0,0c0.2,0.2,0.4,0.5,0.5,0.7
			c-0.3,0.1-0.1-0.1-0.3-0.2l0.2,0.5c-0.4,0-0.6-0.4-0.5-0.7c-1.5-0.2,0.2,0.4-0.9,1l0-0.5c-0.9,0-0.7,0.4-1.4,0.8
			c0.3-0.1,1.6-0.6,1.7,0c-0.1,0.1-0.3,0.3,0,0.6c-0.3-0.1-0.4,0-0.4,0.1c-0.1,0.1,0,0.2-0.1,0.3L11,13.6c0.1,0.3,0.5,0.4,0.7,0.6
			c-0.1,0.3-0.7,0.2-1.1,0.1c-0.2,0.4,0.9-0.1,0.9,0.5c-0.4,0.3-0.1,0.6,0.1,1.1c-0.3,0.1-0.4-0.2-0.6-0.2l0.4,0.4
			c0,0-0.2,0-0.3-0.1c0.1,0.3,0.7,0.2,0.7,0.7c0.3,0.2,0,0.3-0.3,0.5c-0.3,0.2-0.6,0.5-0.3,0.8c-0.2,0.1-0.4-0.1-0.7-0.1
			c0.2,0.4,0.3,0.5,0.4,0.6c0.1,0.1,0.2,0.3,0.6,0.5c-0.2,0-0.3,0.1-0.5,0.2c0.6-0.2,1,0.4,1.5,0.9c0.3-0.1,0.5-0.1,0.6-0.1
			c0.1,0.2,0.2,0.4,0.3,0.4c-0.1,0-0.4,0-0.6-0.1c0.1,0,0.1,0.1,0.2,0.1c-0.2,0.1-0.6,0.2-1-0.1c0.1-0.1,0.3-0.2,0.4-0.2
			c-0.4-0.2-0.8-0.5-1.2-0.5c0.1,0.1,0.1,0.2,0.1,0.3c-0.1-0.1-0.2-0.1-0.3-0.1c-0.1,0,0.1,0.1,0.2,0.3c-0.3,0-0.5,0.1-0.8,0.2
			l0.3,0.1c0,0.2-0.1,0.4,0,0.8c0,0.1,0,0.2,0.1,0.3c0,0.1,0.1,0.3,0.2,0.4c0.1,0.2,0.4,0.5,0.7,0.7l0.4,0.2l1.8-0.3
			c0.2,0,0.4-0.1,0.5-0.1c0.1-1.1-0.4-2.2-0.1-2.9c0.3,0.5,0.6,0.7,1.1,1.2c-0.6-0.4-0.2,0.6-0.7,0.9c0.2-0.1,0.4,0.1,0.4,0.3
			c0.1-0.4,0.1-0.7,0.1-1c0.4,0.4,0.4,0.2,0.7,0.2c-0.8-0.7-0.2-0.8-0.2-1.2c0.2,0.3,0.4,0.6,0.2,0.7c0.7,0.4-0.5-1.2,0.2-0.9
			c-0.1,0.1-0.1,0,0,0.2c0-0.4,0.5-0.4,0.6-0.1l-0.1,0c0.5-0.2,1.4-0.8,1.1-1.7c0.1,0.1,0.5,1,0.5,1.2C18,18,17.8,17,17.6,15.9
			c0.3,0.7,1.6,2.1,1.4,2.8c0.1,0,0.2,0,0.3,0c0.1,0,0.1-0.1,0.1-0.2c-0.1-0.1-0.7-0.9-0.6-1c0.6,0.6,0.4,0.3,0.9,0.9
			c-0.1-0.1-0.5-1.3-0.3-1.4c0,0.2,0.3,1.2,0.4,1.4c0-0.5,0-0.9,0-1.4c-0.1,0.3,0.2,1.1,0.3,1.4c-0.1-0.2,0.2-0.1,0.2-0.3
			c0-0.1-0.1-0.2-0.1-0.3c0.3,0.1,0.3-2.2,0.9-2.5c-0.1,0.4-0.4,2-0.2,2.1c0.1-0.4,0.3-1.4,0.8-2.5c0.4-1,0.9-2,1.3-2.4l0,0.4
			c0.2-0.2,0.4-0.5,0.7-0.7c-0.2,0.3-0.4,0.7-0.7,1.2c-0.3,0.5-0.5,0.9-0.8,1.5c-0.5,1.1-0.9,2.1-1.1,2.7c0,0.3-0.1,0.5,0,0.4
			c-0.1,0.4-0.2,0.7-0.3,0.8c0,0.1,0.1,0.1,0.1,0.2c0.3-1,0.6-1.2,0.9-2.1c-0.3,0.4-0.6,0.9-0.8,1.3c0.1-0.5,0.4-1.3,0.7-1.9
			c0.3-0.6,0.7-1.2,0.9-1.2c-0.1,0.4-0.9,2-1,2.4c0.2-0.4,0.6-0.8,0.5-0.6l-0.4,0.6c0,0.2,0.2-0.2,0.4-0.5c0.2-0.3,0.4-0.6,0.2,0
			c0,0-0.7,1.5-0.3,0.8c0.4-0.7,1.2-2.1,2-3.4c0.3-0.6,0.7-1.1,0.9-1.6c0.2-0.4,0.5-0.7,0.6-0.9c0,0.1,0.2,0.7,0,1.1
			c0,0.1-0.1,0.2-0.1,0.3c-0.1,0.2-0.2,0.3-0.3,0.5c-0.2,0.3-0.5,0.7-0.8,1c-0.5,0.7-1,1.3-1.2,1.8c0.2-0.3,0.6-0.8,0.7-0.9
			c-0.1,0.3-0.8,1.1-0.5,0.9c0.2-0.3,0.3-0.4,0.4-0.5c0.2-0.2,0.2-0.1,0.2,0c0,0.1,0.1-0.1,0.3-0.5c0.3-0.2,0.2,0,0.1,0.1
			c-0.1,0.2-0.2,0.4-0.2,0.5c0.3-0.4,0.9-1,1.3-1.5c0.5-0.5,0.6-0.6,0.7-0.6c-0.2,0.2-0.4,0.4-0.5,0.7c-0.3,0.7-0.8,1.4-0.9,1.9
			c-0.2,0.2-0.5,0.7-0.9,0.9c0.1-0.1,0.4-0.3,0.4-0.2c-0.8,0.9,0-0.2-1,0.8c0.5-0.4,0.6-0.3,0.8-0.3c0.7-0.6,0.2-0.6,0-0.5
			c0.5-0.5,1-0.9,1.4-1.1c0.4-0.2,0.8-0.3,1-0.1c0.2,0.4-0.8,0.8-0.6,0.8c-0.2,0.6,0.2,0.6,0.6,0.6c0.3,0,0.5,0.2,0.1,0.9
			c-0.7,0.6-1.2,0.4-1.7,0.7c-0.2-0.3,0.5-0.8,0.5-1.1L25,18.1c-0.2,0-0.3-0.2-0.1-0.5c-0.3,0.3-0.4,0.7-0.5,1.1
			c-0.1,0.4-0.1,0.9-0.4,1.2c0.2,0.1,0.4,0.3,0.6,0.2L24.5,20c0.5-0.3,0.6,0.4,0.9,0.1c0.1,0.2,0.3,0.4,0.5,0.6
			c0.1,0.2,0.2,0.4,0,0.5l-0.7,0c0.2,0,0.4-0.2,0.2-0.4c0.3,0.2-0.9,0.6-0.1,0.8l0.5-0.3c0.3,0.3,1,0.7,0.8,1
			c0.7-0.1-0.1-0.1,0.7-0.3c-0.9,0.2,0.1-0.9-0.9-0.6c0.9-0.2,0.4-0.4,1.2-0.7c-0.2,0-0.4,0.1-0.3-0.2c-0.1,0-0.1-0.1-0.2-0.1
			c0,0,0,0,0,0l0,0c0,0,0,0,0,0c-0.1,0.1-0.2,0.2-0.3,0.2c-0.2-0.1-0.3-0.3-0.4-0.6c-0.1-0.2-0.1-0.5-0.2-0.6
			c0.1-0.3,0.2,0.1,0.5-0.1c-0.1-0.1-0.2-0.2-0.4-0.3c0.5-0.1,0.9-0.9,1.1-0.3l0.1-0.7c0.4-0.5,0.6-1.1,0.5-1.4
			c0.2-0.4-0.4-0.6,0-0.5c0-0.3,0-0.6-0.1-0.9l0.2-0.1c0.1-0.5-0.1-0.8-0.2-1.1c-0.1-0.3-0.1-0.6,0.3-1.4c-0.1-0.1-0.3-0.1-0.2-0.6
			l0.4-0.5c-0.1-0.1,0.3-1.2-0.1-0.8c0.3-0.5,0.4-0.7,0.4-1c0-0.2-0.1-0.5-0.3-0.7c-0.4,0.1-0.7,0.2-0.8,0.2l-0.4,0.6
			c-0.4,0-0.8,0.3-1.4,0.6l-0.3,0.6c-0.6,0.6-0.8-0.2-1.5,0c0.1-0.2,0.3-0.2,0.3-0.1c-0.1-0.6-0.7-0.2-1.2,0.2c-0.5,0.4-1,1-1.3,0.6
			c-0.2,0.3-0.3,0.3-0.5,0.2c0,0,0,0,0.1-0.1c0,0,0,0-0.1,0c-0.1-0.1-0.1-0.1-0.2-0.2c0.1,0.1,0.1,0.2,0.2,0.2
			c-0.1,0.1-0.4,0.3-0.6,0.5L20.7,12c0,0,0,0-0.1,0c-0.2-0.1-0.2,0.4-0.1,0.8c-0.1,0.2-0.2,0.3-0.3,0.5c-0.2-0.8-0.5,0.6-0.8-0.2
			c-0.1,0.5-1,1-0.8,2c0-0.1-0.1-0.1,0-0.2c-0.2,0-0.5,0.1-0.6,0.4l-0.4-0.5c0,0.4,0,0.7,0,1.1c-0.4-0.2-0.6-0.4-0.7-0.9
			c-0.1,0.9-0.2,0.5-0.3,1.4l-0.2-0.4c-0.1,0.1-0.1,0.7-0.4,0.5c-0.7-0.5-1.9,1-3.3,1.4c1,0.7-0.8,0-0.1,0.7
			c-0.3-0.2-0.5-0.2-0.5-0.5c-0.1,0.6-0.7,0.1-0.4,0.8c-0.2-0.2-0.2-0.4-0.4-0.5c0,0.1,0.1,0.3,0,0.1c-0.1-0.1-0.1-0.2-0.2-0.3
			c0,0.1,0,0.2,0.1,0.3l1.6,2.1c0,0,0.1-0.1,0.2-0.1c0.1,0,0.1,0,0.2,0c0.1,0,0.2,0,0.3,0c0.2,0,0.3,0,0.4,0c0.1,0,0.1,0,0.2,0
			c0,0,0,0,0,0c0,0,0,0,0,0c0,0-0.2-0.1-0.4-0.3c0.3,0,0.6,0,0.6,0.2c0-0.1,0.2-0.1,0.3-0.6c0.1-0.4,0.1-0.6-0.3-0.7
			c0.2,0,0.1-0.2,0-0.3c0.1-0.4,0.2-0.4,0.2-0.7l-0.1,0.1c-0.8-0.3-0.1-0.3-0.1-0.6l0.1,0c0.8-0.5-0.1-0.4,0.8-1l-0.5-0.1
			c-1-0.4,0.8-0.5,0.5-1.1l-0.3,0.1c-0.3-0.3,1.6-0.3,1.8-0.5c0.1,0,0.1,0.1,0.2,0.2c0.8-0.5-0.6-0.3-0.7-0.7c0.4,0,0.9,0.3,1,0.1
			c0.2,0-0.1-0.2-0.3-0.5c-0.2-0.3-0.3-0.6,0.1-0.6c-0.3,0-0.6-0.1-0.7-0.3c0-0.3,1.3-0.3,0.6-1c0.1,0,0.2,0,0.2,0
			c-0.1-0.3,0-0.9-0.4-1.2c1.7,0.6-0.1-1.7,1.3-1l0.3-0.6l0.1,0.1c0.3-0.3,0.1-0.7-0.1-1.1c0.2,0,0.2,0.1,0.3,0.2
			C19.4,8.1,19.4,8,19,7.1l0.5,0.2C19.3,7,20.7,6.9,20.6,6c0,0,0.1,0.1,0.2,0.2c-0.1-0.4,0.4-0.6,0.6-0.7c0.2,0.1,0.9-0.2,0.2-1.1
			l0.1-0.8c-0.6,0.6-0.6-0.6-1-0.6c0-0.1,0.3-0.2,0.5-0.2c0.2,0,0.4,0.1,0.3,0.3l-0.1,0c0.3,0.3,0.5,0.2,0.7,0
			c0.2-0.2,0.4-0.8,0.4-1.3l0-0.5L21,0.6c-0.1-0.1-0.2-0.1-0.2-0.2c-0.9,0.1-1.3,0.3-1.7,0.4c-0.2,0.1-0.4,0.1-0.5,0.1
			c-0.1,0-0.2,0-0.3,0C17.7,1,17,1.1,16.4,1.3l0.4,0.7l-0.4,0.1c-0.2-0.1-0.4-0.5-0.1-0.6C16,1.1,16,2,16,2.2
			c-0.7-0.1-0.1-0.9-0.3-0.9l-0.2,0.2l0.1,0.1c-0.1,0.4,0,0.7-0.4,0.8c-0.3,0-0.3-0.4-0.4-0.4c0-0.1-0.1-0.1-0.2,0l-0.6,0.2l0.5,0.5
			c-0.1,0.4-0.5,0.2,0,0.7c-0.8-0.8-2.1,0.6-2.5,0.4c-0.1,0.6-0.4,0.7-0.8,0.9c0.2,0.1,0.6,0.6,0.2,0.7c-0.6-1.3-0.9-0.2-1.7-0.9
			C10.4,5,9.1,5.2,9.9,5.8C9.6,5.9,9.6,5.4,9.2,5.2C8.9,6,7.7,5.7,7,6.3C7.1,6.4,7.4,6.6,7.3,7L6.4,6.4C6.3,6.6,6.9,7.4,6.2,7
			c0.1,0.1,0.3,0.3,0.2,0.4C5.5,7.5,4.7,8.2,4,8.8c-0.7,0.6-1.4,1.2-2.6,1c0.4,0.2,0.3,0.3,0.2,0.4c0.1,0,0.3,0.4,0.4,0.6
			c-0.3,0-0.7-0.1-1-0.2c0.3,0.7-0.6,0.4-0.3,1l0.1-0.2c0.2,0.8,1.3,1.3,1.9,2.1c-0.2-0.9,1.6,0.5,1.3-0.9c0.2,0.1,0.1,0.3,0.3,0.5
			c-0.1-0.4-0.1-0.6,0.3-0.7l0,0.1C5.4,11.9,6,12,6.9,11.7l-0.3-0.4c0.2-0.1,0.3,0,0.5,0.1c-0.2-0.8-0.5,0.3-0.8-0.5
			c0.8,0.7,1.2-0.8,2,0.1c0.3-0.2-0.4-0.4-0.1-0.6l0.2,0.2l-0.1-0.4c0.2-0.1,0.5,0.2,0.7,0.5c-0.1,0-0.1,0.1-0.1,0.2
			c0.4,0.2,0.6-0.5,0.8-0.5l-0.4,0c0.6-0.7,1.8-0.9,2.3-1.9l-0.2-0.2c0.4-0.7,0.6-0.1,1.2-0.6l0,0.1c0-0.3,0.1-0.5,0.3-0.6
			c0,0.3,0.6,0.3,0.5,0.7c0.4-0.8,0.1-0.5,0.1-1.5l0.3,0.3c0-0.4-0.1-0.6,0.2-0.8c-0.1,0.4,0.5,0.4,0.4,1c1,0.4,0.6-1.3,1.5-0.3
			c-0.2-1.1-0.8-0.3-0.8-0.6c-0.3-0.2-0.1-0.9,0.2-0.9c0.2-0.1,1,1.1,1.5,0.8c-0.1,0,0,0.1-0.1,0.1c0.3,0.2,0.3-0.5,0.7-0.2
			c-0.1-0.7,0.3-0.1,0.1-0.9l-0.4,0.4C17,5,16.9,4,17.6,4.2c0,0.2,0,0.4-0.1,0.6c0.2,0.2,0.2-0.3,0.5-0.1c0.3,0.8-0.6,0.4-0.6,1.1
			c0.3,0.3,0.4-0.8,0.5,0.1c-0.2-1.2,0.6-0.1,0.7-1l0.1,0.5c0-0.1,0.1-0.4,0.2-0.4l0,0.7C19,5.1,19.6,6,19.8,5.6
			c-0.6,0.2-0.3-0.5-0.7-0.8c0.2-0.3,0.3-0.3,0.4-0.2C19.8,4.7,20,5,20.3,5.1c0.3,0.2,0.7,0.2,0.9,0c0,0.1-0.6,0-0.5-0.4
			c0.2,0,0.5,0.1,0.7,0.3c0.2-0.2-0.2-0.5-0.3-0.8c0.2,0.3,0.2,0.2,0.1,0c0-0.1,0-0.2-0.1-0.3c0-0.1-0.1-0.4-0.1-0.6l0,0
			c0-0.2,0-0.4,0-0.5l-0.4-0.9c-0.1,0-0.1,0-0.2,0c-0.1,0-0.1,0-0.1,0c-0.1,0-0.1,0-0.1,0C20.1,2,20,2,19.8,2
			c-0.1-0.1-0.2-0.1-0.4-0.2c0,0,0,0-0.1,0c-0.1,0-0.3-0.2-0.1-0.1c0.1,0.1,0.3,0.2,0.5,0.2c-0.2-0.1-0.4-0.2-0.6-0.3
			c-0.1-0.1-0.3-0.1-0.3-0.2c0,0,0,0,0,0l-0.2-0.2l0.1,0.1c-0.1-0.1-0.2-0.1-0.3-0.2c-0.1,0,0,0,0,0c0,0,0,0.1,0.1,0.1
			c0,0.1,0,0.1,0,0.1c0,0.1-0.1,0.1-0.3,0.1c0.3,0.2,0.7,0.7,0.5,0.9c-0.4,0-0.2-0.5-0.6,0c-0.1-0.3-0.3-0.7,0.1-0.5
			c-0.1-0.1-0.2-0.3-0.3-0.4c-0.2,0-0.3,0-0.4,0.2c-0.1,0.1-0.2,0.4-0.3,0.5C17.5,2.1,17.6,2,17.7,2c0,0.2-0.1,0.4-0.1,0.6
			c0,0.2,0,0.4,0,0.6c-0.2,0-0.3-0.2-0.4-0.4c0,0.2,0.1,0.4,0,0.6c-0.3-0.3-0.7-0.5-0.6-0.9c0,0.3,0,0.6,0,0.9
			c-0.2-0.1-0.6,0-0.7-0.1c-0.4,0.2,0.2,1.2-0.4,1.5c0.1,0.1,0.1,0.1,0.1,0.3c-0.3,0.3-1,0.4-0.7,1.1L14.2,6c-0.1,0.4,1,0.2,0.9,0.9
			c0,0.5-0.6-0.2-0.9-0.1c0.2,0.4,0.6,1.2-0.1,1.4C14,7.9,14.2,7.8,14.2,7.6z M12.2,12.7c-0.1-0.1-0.3-0.5,0-0.5
			C12.8,12.6,12.5,12.6,12.2,12.7z M13.5,21.5c0,0.1,0,0.1-0.1,0.1l-0.6,0.4l-0.6-0.4c-0.4-0.2-0.6-0.7-0.5-1
			c0.1,0.2,0.2,0.5,0.6,0.8l0.1,0.1l1-0.1C13.3,21.5,13.4,21.5,13.5,21.5z M27.2,17.8C27.2,17.8,27.2,17.8,27.2,17.8
			C27.5,17.4,27.4,17.5,27.2,17.8z M26.9,18.6c0.1,0.1,0.1,0,0.2,0c-0.1,0-0.1-0.2,0-0.4C26.9,18.3,26.8,18.4,26.9,18.6z M14.9,2.1
			L15,2.2C14.9,2.4,14.9,2.3,14.9,2.1z"/>
		<linearGradient id="SVGID_62_" gradientUnits="userSpaceOnUse" x1="11.1482" y1="19.6113" x2="11.0011" y2="19.4642">
			<stop  offset="0" style="stop-color:#00BBDB"/>
			<stop  offset="1" style="stop-color:#E53F97"/>
		</linearGradient>
		<path class="st62" d="M10.9,19.5c0.1,0,0.2,0,0.3,0C11.1,19.5,11,19.4,10.9,19.5z"/>
		<linearGradient id="SVGID_63_" gradientUnits="userSpaceOnUse" x1="15.5816" y1="4.7234" x2="15.5151" y2="4.6568">
			<stop  offset="0" style="stop-color:#00BBDB"/>
			<stop  offset="1" style="stop-color:#E53F97"/>
		</linearGradient>
		<path class="st63" d="M15.6,4.7C15.6,4.7,15.6,4.7,15.6,4.7C15.6,4.7,15.5,4.7,15.6,4.7L15.6,4.7z"/>
		<linearGradient id="SVGID_64_" gradientUnits="userSpaceOnUse" x1="22.8795" y1="16.5539" x2="22.776" y2="16.4504">
			<stop  offset="0" style="stop-color:#00BBDB"/>
			<stop  offset="1" style="stop-color:#E53F97"/>
		</linearGradient>
		<path class="st64" d="M22.7,16.7c0-0.1,0.1-0.3,0.2-0.4C22.8,16.5,22.7,16.7,22.7,16.7z"/>
		<linearGradient id="SVGID_65_" gradientUnits="userSpaceOnUse" x1="27.4504" y1="21.7077" x2="27.2534" y2="21.5108">
			<stop  offset="0" style="stop-color:#00BBDB"/>
			<stop  offset="1" style="stop-color:#E53F97"/>
		</linearGradient>
		<path class="st65" d="M27.5,21.7l-0.1-0.3c0,0.1-0.1,0.2-0.2,0.2C27.3,21.6,27.5,21.6,27.5,21.7z"/>
		<linearGradient id="SVGID_66_" gradientUnits="userSpaceOnUse" x1="24.5159" y1="24.2234" x2="24.2936" y2="24.0011">
			<stop  offset="0" style="stop-color:#00BBDB"/>
			<stop  offset="1" style="stop-color:#E53F97"/>
		</linearGradient>
		<path class="st66" d="M24.2,24.1c0.1,0,0,0.1,0.1,0.1l0.2,0C24.5,24,24.4,23.9,24.2,24.1z"/>
		<linearGradient id="SVGID_67_" gradientUnits="userSpaceOnUse" x1="25.8573" y1="22.2742" x2="25.5059" y2="21.9228">
			<stop  offset="0" style="stop-color:#00BBDB"/>
			<stop  offset="1" style="stop-color:#E53F97"/>
		</linearGradient>
		<path class="st67" d="M25.8,21.9c-0.4,0-0.3,0.2-0.2,0.4c0,0,0,0,0,0C26.1,22.3,26,22.1,25.8,21.9z"/>
		<linearGradient id="SVGID_68_" gradientUnits="userSpaceOnUse" x1="25.6638" y1="22.4998" x2="25.5144" y2="22.3504">
			<stop  offset="0" style="stop-color:#00BBDB"/>
			<stop  offset="1" style="stop-color:#E53F97"/>
		</linearGradient>
		<path class="st68" d="M25.6,22.3c0,0.1,0,0.1,0,0.2C25.8,22.5,25.6,22.4,25.6,22.3z"/>
		<linearGradient id="SVGID_69_" gradientUnits="userSpaceOnUse" x1="27.4718" y1="19.6812" x2="27.0155" y2="19.2248">
			<stop  offset="0" style="stop-color:#00BBDB"/>
			<stop  offset="1" style="stop-color:#E53F97"/>
		</linearGradient>
		<path class="st69" d="M27,19.5c-0.1,0.2,0.6,0,0.4,0.2C27.9,19.7,26.9,18.6,27,19.5z"/>
		<linearGradient id="SVGID_70_" gradientUnits="userSpaceOnUse" x1="24.7144" y1="22.0883" x2="24.4382" y2="21.812">
			<stop  offset="0" style="stop-color:#00BBDB"/>
			<stop  offset="1" style="stop-color:#E53F97"/>
		</linearGradient>
		<polygon class="st70" points="24.3,22 24.9,21.9 24.4,21.8 		"/>
		<linearGradient id="SVGID_71_" gradientUnits="userSpaceOnUse" x1="24.8907" y1="20.7494" x2="24.6768" y2="20.5355">
			<stop  offset="0" style="stop-color:#00BBDB"/>
			<stop  offset="1" style="stop-color:#E53F97"/>
		</linearGradient>
		<path class="st71" d="M24.8,20.4l-0.2,0.3c0.1,0,0.1,0,0.2,0.1C24.8,20.7,24.9,20.4,24.8,20.4z"/>
		<linearGradient id="SVGID_72_" gradientUnits="userSpaceOnUse" x1="24.9192" y1="21.0557" x2="24.7518" y2="20.8883">
			<stop  offset="0" style="stop-color:#00BBDB"/>
			<stop  offset="1" style="stop-color:#E53F97"/>
		</linearGradient>
		<path class="st72" d="M24.8,20.8c0,0.1,0,0.2,0.1,0.3C24.9,21,24.9,20.9,24.8,20.8z"/>
		<linearGradient id="SVGID_73_" gradientUnits="userSpaceOnUse" x1="24.31" y1="21.4449" x2="24.2216" y2="21.3564">
			<stop  offset="0" style="stop-color:#00BBDB"/>
			<stop  offset="1" style="stop-color:#E53F97"/>
		</linearGradient>
		<polygon class="st73" points="24.2,21.6 24.3,21.5 24.3,21.2 		"/>
		<linearGradient id="SVGID_74_" gradientUnits="userSpaceOnUse" x1="25.3108" y1="16.6707" x2="25.1128" y2="16.4726">
			<stop  offset="0" style="stop-color:#00BBDB"/>
			<stop  offset="1" style="stop-color:#E53F97"/>
		</linearGradient>
		<path class="st74" d="M25.4,16.5l-0.1-0.2c-0.2,0.1-0.4,0.3-0.3,0.4C25.1,16.7,25.2,16.8,25.4,16.5z"/>
		<linearGradient id="SVGID_75_" gradientUnits="userSpaceOnUse" x1="23.798" y1="18.4677" x2="23.6308" y2="18.3005">
			<stop  offset="0" style="stop-color:#00BBDB"/>
			<stop  offset="1" style="stop-color:#E53F97"/>
		</linearGradient>
		<path class="st75" d="M23.6,18.5c0.1-0.1,0.3-0.2,0.5-0.3l-0.7,0.4L23.6,18.5z"/>
		<linearGradient id="SVGID_76_" gradientUnits="userSpaceOnUse" x1="23.3773" y1="18.133" x2="23.225" y2="17.9806">
			<stop  offset="0" style="stop-color:#00BBDB"/>
			<stop  offset="1" style="stop-color:#E53F97"/>
		</linearGradient>
		<path class="st76" d="M23.6,17.9C23.4,18,23.1,18,23,18.2C23.2,18.1,23.4,18.2,23.6,17.9z"/>
		<linearGradient id="SVGID_77_" gradientUnits="userSpaceOnUse" x1="25.0563" y1="13.1366" x2="24.8082" y2="12.8885">
			<stop  offset="0" style="stop-color:#00BBDB"/>
			<stop  offset="1" style="stop-color:#E53F97"/>
		</linearGradient>
		<polygon class="st77" points="24.4,13.7 24.5,13.7 25.4,12.3 		"/>
		<linearGradient id="SVGID_78_" gradientUnits="userSpaceOnUse" x1="20.6903" y1="18.4453" x2="20.1964" y2="17.9513">
			<stop  offset="0" style="stop-color:#00BBDB"/>
			<stop  offset="1" style="stop-color:#E53F97"/>
		</linearGradient>
		<path class="st78" d="M20.3,18.7c0.1,0.3,0.1-0.9,0.2-0.5c0.1-0.4-0.1-0.3,0-0.6C20.4,18,20.4,17.9,20.3,18.7z"/>
		<linearGradient id="SVGID_79_" gradientUnits="userSpaceOnUse" x1="20.596" y1="17.5517" x2="20.514" y2="17.4697">
			<stop  offset="0" style="stop-color:#00BBDB"/>
			<stop  offset="1" style="stop-color:#E53F97"/>
		</linearGradient>
		<path class="st79" d="M20.5,17.6c0-0.1,0-0.1,0.1-0.2C20.6,17.5,20.5,17.6,20.5,17.6z"/>
		<linearGradient id="SVGID_80_" gradientUnits="userSpaceOnUse" x1="0.3762" y1="10.5234" x2="0.1011" y2="10.2483">
			<stop  offset="0" style="stop-color:#00BBDB"/>
			<stop  offset="1" style="stop-color:#E53F97"/>
		</linearGradient>
		<polygon class="st80" points="0.4,10.4 0,10.3 0.4,10.5 		"/>
		<linearGradient id="SVGID_81_" gradientUnits="userSpaceOnUse" x1="0.3855" y1="11.3255" x2="-0.1012" y2="10.8388">
			<stop  offset="0" style="stop-color:#00BBDB"/>
			<stop  offset="1" style="stop-color:#E53F97"/>
		</linearGradient>
		<path class="st81" d="M0.4,11.3L0,10.7l0.2,0.6C0.2,11.3,0.3,11.2,0.4,11.3z"/>
		<linearGradient id="SVGID_82_" gradientUnits="userSpaceOnUse" x1="10.9436" y1="13.3396" x2="10.7632" y2="13.1593">
			<stop  offset="0" style="stop-color:#00BBDB"/>
			<stop  offset="1" style="stop-color:#E53F97"/>
		</linearGradient>
		<path class="st82" d="M10.6,13.3l0.2,0.1c0.2,0,0.2,0,0.3-0.2C10.9,13.2,10.8,13.3,10.6,13.3z"/>
		<linearGradient id="SVGID_83_" gradientUnits="userSpaceOnUse" x1="13.1274" y1="9.7867" x2="12.7339" y2="9.3932">
			<stop  offset="0" style="stop-color:#00BBDB"/>
			<stop  offset="1" style="stop-color:#E53F97"/>
		</linearGradient>
		<polygon class="st83" points="12.7,9.5 12.6,9.5 13.2,9.7 		"/>
		<linearGradient id="SVGID_84_" gradientUnits="userSpaceOnUse" x1="13.6679" y1="6.4003" x2="13.4266" y2="6.159">
			<stop  offset="0" style="stop-color:#00BBDB"/>
			<stop  offset="1" style="stop-color:#E53F97"/>
		</linearGradient>
		<path class="st84" d="M13.5,6c-0.1,0.1-0.1,0.3-0.2,0.4C13.5,6.1,14.2,6.4,13.5,6z"/>
	</g>
</g>
</svg>
