<?xml version="1.0" encoding="utf-8"?>
<!-- Generator: Adobe Illustrator 19.0.1, SVG Export Plug-In . SVG Version: 6.00 Build 0)  -->
<!DOCTYPE svg PUBLIC "-//W3C//DTD SVG 1.1//EN" "http://www.w3.org/Graphics/SVG/1.1/DTD/svg11.dtd">
<svg version="1.1" id="Layer_1" xmlns="http://www.w3.org/2000/svg" xmlns:xlink="http://www.w3.org/1999/xlink" x="0px" y="0px"
	 width="200px" height="98px" viewBox="0 0 200 98" style="enable-background:new 0 0 200 98;" xml:space="preserve">
<style type="text/css">
	.st0{fill:#7390A5;}
	.st1{fill:#BFD6E9;}
	.st2{fill:#FFF1E2;}
	.st3{fill:#F04E23;}
</style>
<path class="st0" d="M200,32.2c0-17.5-14.3-31.7-31.8-31.7l-57.2,0c-11.5,0-21.6,6.1-27.2,15.3h-20C57,7,46.5,1.6,35.4,1.6
	C15.9,1.6,0,17.4,0,36.9c0,19.5,15.9,35.4,35.4,35.4c1.6,0,3.2-0.1,4.8-0.3c6,7.8,15.4,12.4,25.3,12.4l18.6,0c9,0,17.2-3.8,23-9.8
	h8.6c3.9,13.2,16.1,23,30.4,23l22.7,0c17.7,0,31.1-13.7,31.1-31.8L200,32.2z"/>
<path class="st1" d="M194.9,32.2c0-14.7-12-26.7-26.8-26.7l-57.2,0c-10.7,0-19.9,6.3-24.2,15.3H61C55.5,12.2,45.8,6.7,35.4,6.7
	C18.7,6.7,5.1,20.2,5.1,36.9c0,16.7,13.6,30.3,30.3,30.3c2.4,0,4.8-0.3,7.1-0.9c4.8,7.9,13.5,13,23,13l18.6,0
	c8.4,0,15.8-3.8,20.8-9.8h14.9c1.9,13,13,23,26.4,23l22.7,0c14.9,0,26.1-11.5,26.1-26.8L194.9,32.2z"/>
<path class="st2" d="M189.9,32.2c0-11.9-9.7-21.6-21.7-21.6l-57.2,0c-9.8,0-18.1,6.5-20.8,15.3H58l0-0.1
	c-4.2-8.6-13.1-14.2-22.7-14.2c-13.9,0-25.2,11.3-25.2,25.2c0,13.9,11.3,25.2,25.2,25.2c3.4,0,6.7-0.7,9.7-2
	c3.1,8.2,11,14.1,20.4,14.1l18.6,0c7.6,0,14.3-3.9,18.2-9.8h22.3l0,1.5c0.1,11.8,9.8,21.5,21.6,21.5l22.7,0c12,0,21-9.3,21-21.7
	L189.9,32.2z"/>
<g>
	<path class="st3" d="M115.6,29.7V31h-4.4v-5.2h1.7v3.8H115.6z"/>
	<path class="st3" d="M115.9,28.4c0-1.5,1.2-2.7,2.7-2.7s2.7,1.2,2.7,2.7c0,1.5-1.2,2.7-2.7,2.7S115.9,29.9,115.9,28.4z M119.5,28.4
		c0-0.5-0.4-1-1-1s-1,0.4-1,1c0,0.5,0.4,1,1,1S119.5,29,119.5,28.4z"/>
	<path class="st3" d="M121.9,29.7h2.7c0.2,0,0.3-0.1,0.3-0.3c0-0.2-0.1-0.3-0.3-0.3h-1.2c-0.9,0-1.6-0.6-1.6-1.6
		c0-1.2,0.8-1.6,1.6-1.6h3.1v1.4h-2.6c-0.2,0-0.3,0.1-0.3,0.3c0,0.2,0.1,0.3,0.3,0.3h1.2c1,0,1.6,0.6,1.6,1.6c0,1-0.7,1.6-1.7,1.6
		h-3.1L121.9,29.7z"/>
	<path class="st3" d="M133.5,30.5h-1.9l-0.1,0.5h-1.8l1.5-5.2h2.7l1.5,5.2h-1.8L133.5,30.5z M133.1,29.1l-0.5-1.9h-0.1l-0.5,1.9
		H133.1z"/>
	<path class="st3" d="M136.1,25.9h1.7l2.1,2.7h0.1v-2.7h1.7V31h-1.7l-2-2.6h-0.1V31h-1.7V25.9z"/>
	<path class="st3" d="M142.4,28.4c0-1.5,1.2-2.7,2.7-2.7c1.5,0,2.6,1,2.6,2.2h-1.7c0-0.3-0.4-0.7-1-0.7s-1.1,0.4-1.1,1.1
		c0,0.7,0.5,1.2,1.1,1.2c0.4,0,0.7-0.1,0.9-0.5h-0.9v-0.5h2.7c0,1.4-1.1,2.5-2.6,2.5C143.6,31.1,142.4,29.9,142.4,28.4z"/>
	<path class="st3" d="M150.3,27.2v0.5h2.8v1.4h-2.8v0.5h2.8V31h-4.6v-5.2h4.6v1.4H150.3z"/>
	<path class="st3" d="M158.6,29.7V31h-4.4v-5.2h1.7v3.8H158.6z"/>
	<path class="st3" d="M161.2,27.2v0.5h2.8v1.4h-2.8v0.5h2.8V31h-4.6v-5.2h4.6v1.4H161.2z"/>
	<path class="st3" d="M165,29.7h2.7c0.2,0,0.3-0.1,0.3-0.3c0-0.2-0.1-0.3-0.3-0.3h-1.2c-0.9,0-1.6-0.6-1.6-1.6
		c0-1.2,0.8-1.6,1.6-1.6h3.1v1.4H167c-0.2,0-0.3,0.1-0.3,0.3c0,0.2,0.1,0.3,0.3,0.3h1.2c1,0,1.6,0.6,1.6,1.6c0,1-0.7,1.6-1.7,1.6
		H165L165,29.7z"/>
</g>
<path class="st3" d="M170.2,60.5c-2.7,0-4.8,2.2-4.8,4.8v4.8h3.3v-4.7c0-0.9,0.7-1.6,1.6-1.6c0.9,0,1.6,0.7,1.6,1.6v4.7h3.3v-4.7
	C175,62.7,172.9,60.5,170.2,60.5z"/>
<path class="st3" d="M139.1,66c0,2.7,2.2,4.8,4.8,4.8h4.8v-3.3h-4.7c-0.9,0-1.6-0.7-1.6-1.6c0-0.9,0.7-1.6,1.6-1.6h4.7v-3.3h-4.7
	C141.2,61.2,139.1,63.3,139.1,66z"/>
<path class="st3" d="M163,63.9c-0.1-0.3-0.2-0.6-0.4-1c-0.2-0.3-0.4-0.7-0.7-1c-0.1-0.1-0.2-0.3-0.4-0.4c0.2-0.8-0.2-1.5-0.2-1.5
	c-0.8,0-1.2,0.2-1.4,0.4c0,0-0.1,0-0.1,0c-0.1-0.1-0.3-0.1-0.4-0.1c-0.1,0-0.3-0.1-0.4-0.1c-0.1,0-0.3-0.1-0.4-0.1c0,0-0.1,0-0.1,0
	c-0.3-1-1.3-1.5-1.3-1.5c-1,0.7-1.2,1.6-1.2,1.6s0,0,0,0.1c-0.1,0-0.1,0-0.2,0.1c-0.1,0-0.2,0.1-0.2,0.1c-0.1,0-0.2,0.1-0.2,0.1
	c-0.2,0.1-0.3,0.1-0.5,0.2c-0.2,0.1-0.3,0.2-0.4,0.3c0,0,0,0,0,0c-1.5-0.6-2.7,0.1-2.7,0.1c-0.1,1.5,0.6,2.5,0.7,2.7
	c0,0.1-0.1,0.2-0.1,0.3c-0.1,0.4-0.2,0.7-0.2,1.1c0,0.1,0,0.1,0,0.2c-1.3,0.7-1.7,2-1.7,2c1.1,1.3,2.4,1.4,2.4,1.4
	c0.2,0.3,0.4,0.6,0.6,0.8c0.1,0.1,0.2,0.2,0.3,0.3c-0.4,1.2,0.1,2.1,0.1,2.1c1.2,0,2.1-0.6,2.2-0.7c0.1,0,0.3,0.1,0.4,0.1
	c0.4,0.1,0.8,0.2,1.2,0.2c0.1,0,0.2,0,0.3,0h0h0h0.1h0.1c0.6,0.8,1.6,0.9,1.6,0.9c0.7-0.8,0.8-1.5,0.8-1.7c0,0,0,0,0,0c0,0,0,0,0,0
	c0,0,0,0,0,0c0.2-0.1,0.3-0.2,0.4-0.4c0.3-0.3,0.6-0.6,0.8-0.9c0,0,0-0.1,0.1-0.1c0.8,0,1.4-0.5,1.4-0.5c-0.1-0.9-0.6-1.3-0.7-1.4
	c0,0,0,0,0,0c0,0,0,0,0,0c0-0.1,0-0.1,0-0.2c0-0.1,0-0.2,0-0.3V67v0v0c0,0,0,0,0,0v-0.1v-0.1c0,0,0-0.1,0-0.1c0,0,0,0,0-0.1v-0.1
	l0-0.1c0-0.1,0-0.2-0.1-0.3c-0.1-0.4-0.2-0.7-0.4-1c-0.2-0.3-0.4-0.6-0.7-0.8c-0.3-0.2-0.6-0.4-0.9-0.6c-0.3-0.1-0.7-0.2-1-0.3
	c-0.1,0-0.3,0-0.5,0h-0.1h0h0h0h-0.1c0,0,0,0-0.1,0c-0.1,0-0.2,0-0.3,0c-0.3,0.1-0.6,0.2-0.9,0.3c-0.3,0.2-0.5,0.4-0.7,0.6
	c-0.2,0.2-0.3,0.5-0.5,0.8c-0.1,0.3-0.2,0.5-0.2,0.8c0,0.1,0,0.1,0,0.2c0,0,0,0,0,0v0.1c0,0,0,0.1,0,0.1c0,0.1,0,0.3,0.1,0.4
	c0.1,0.3,0.2,0.5,0.3,0.7c0.1,0.2,0.3,0.4,0.5,0.5c0.2,0.1,0.4,0.2,0.6,0.3c0.2,0.1,0.4,0.1,0.6,0.1c0,0,0,0,0.1,0c0,0,0,0,0,0
	c0,0,0,0,0,0c0,0,0,0,0.1,0h0h0c0,0,0,0,0,0c0,0,0,0,0.1,0c0,0,0,0,0.1,0c0,0,0.1,0,0.1,0c0.1,0,0.2-0.1,0.2-0.1
	c0.1,0,0.1-0.1,0.2-0.1c0,0,0,0,0,0c0.1-0.1,0.1-0.1,0-0.2c0-0.1-0.1-0.1-0.2,0c0,0,0,0,0,0c-0.1,0-0.1,0-0.2,0.1
	c-0.1,0-0.1,0-0.2,0c0,0-0.1,0-0.1,0c0,0,0,0,0,0c0,0,0,0,0,0c0,0,0,0,0,0c0,0,0,0-0.1,0c0,0,0,0,0,0h0h0c0,0,0,0-0.1,0
	c-0.1,0-0.3-0.1-0.4-0.1c-0.1-0.1-0.3-0.2-0.4-0.3s-0.2-0.2-0.3-0.4c-0.1-0.1-0.1-0.3-0.2-0.5c0-0.1,0-0.2,0-0.3c0,0,0,0,0-0.1v0
	c0,0,0,0,0,0c0,0,0-0.1,0-0.1c0.1-0.4,0.3-0.7,0.5-1c0.1-0.1,0.2-0.1,0.2-0.2c0.1-0.1,0.2-0.1,0.3-0.2c0.1,0,0.2-0.1,0.3-0.1
	c0.1,0,0.2,0,0.3-0.1c0.1,0,0.1,0,0.2,0c0,0,0,0,0,0h0h0c0,0,0,0,0,0h0h0c0.1,0,0.2,0,0.3,0c0.2,0,0.4,0.1,0.6,0.2
	c0.4,0.2,0.7,0.6,0.9,1c0.1,0.2,0.2,0.4,0.2,0.7c0,0.1,0,0.1,0,0.2v0v0c0,0,0,0,0,0c0,0,0,0,0,0v0v0c0,0,0,0.1,0,0.1
	c0,0.1,0,0.1,0,0.2c0,0.1,0,0.1,0,0.2c0,0.1,0,0.1,0,0.2c0,0.1-0.1,0.2-0.1,0.4c-0.1,0.2-0.2,0.5-0.4,0.7c-0.3,0.4-0.7,0.7-1.2,0.9
	c-0.2,0.1-0.5,0.2-0.7,0.2c-0.1,0-0.3,0-0.4,0h0h0h0h-0.1h0h0h0c-0.1,0-0.1,0-0.2,0c-0.3,0-0.5-0.1-0.8-0.1
	c-0.3-0.1-0.5-0.2-0.8-0.3c-0.5-0.3-0.9-0.6-1.2-1c-0.2-0.2-0.3-0.4-0.4-0.7c-0.1-0.2-0.2-0.5-0.3-0.7c-0.1-0.3-0.1-0.5-0.1-0.8v0v0
	v0v0v0v0v0v0v-0.1v0v0c0,0,0-0.1,0-0.1c0-0.1,0-0.3,0-0.4c0-0.1,0-0.3,0.1-0.4c0-0.1,0.1-0.3,0.1-0.4c0.1-0.3,0.2-0.5,0.3-0.8
	c0.2-0.5,0.5-0.9,0.8-1.2c0.1-0.1,0.2-0.2,0.3-0.2c0.1-0.1,0.2-0.1,0.3-0.2c0.1-0.1,0.2-0.1,0.3-0.2c0.1,0,0.1-0.1,0.2-0.1
	c0,0,0.1,0,0.1,0c0,0,0.1,0,0.1,0c0.1,0,0.2-0.1,0.3-0.1c0,0,0.1,0,0.1,0s0.1,0,0.1,0c0.1,0,0.1,0,0.2,0c0,0,0.1,0,0.1,0
	c0,0,0.1,0,0.1,0c0,0,0.1,0,0.1,0h0h0c0,0,0.1,0,0.1,0c0,0,0.1,0,0.1,0c0,0,0.1,0,0.1,0c0,0,0,0,0.1,0h0h0h0c0,0,0.1,0,0.1,0h0.1
	c0,0,0,0,0,0h0h0c0,0,0.1,0,0.1,0c0.1,0,0.2,0,0.3,0c0.2,0,0.4,0,0.7,0.1c0.4,0.1,0.8,0.2,1.2,0.4c0.4,0.2,0.7,0.4,1,0.6
	c0,0,0,0,0.1,0c0,0,0,0,0.1,0c0,0,0.1,0.1,0.1,0.1c0,0,0.1,0.1,0.1,0.1c0,0,0.1,0.1,0.1,0.1c0.1,0.1,0.2,0.3,0.3,0.4
	c0.2,0.3,0.4,0.5,0.5,0.8c0,0,0,0,0,0c0,0,0,0,0,0c0,0,0,0.1,0,0.1c0,0,0,0.1,0,0.1c0,0,0,0.1,0,0.1c0,0.1,0.1,0.2,0.1,0.3
	c0.1,0.2,0.1,0.3,0.1,0.5c0,0.1,0.1,0.1,0.1,0.1s0.1-0.1,0.1-0.1c0-0.1,0-0.2,0-0.4C163.1,64.5,163.1,64.2,163,63.9z"/>
<path class="st3" d="M68.9,33.8c-6.4,0-11.7,5.2-11.7,11.5v11.3h6.1V45.3c0-1.2,0.3-5.3,4.1-5.3l1,0l3.4-6.1L68.9,33.8z"/>
<path class="st3" d="M80.9,33.7c-6.3,0-11.5,5.1-11.5,11.4c0,6.1,4.8,11.1,10.8,11.4l5.9-4.1v4h6.1V45.1
	C92.3,38.8,87.2,33.7,80.9,33.7z M80.9,50.4c-2.9,0-5.3-2.4-5.3-5.3c0-2.9,2.4-5.3,5.3-5.3c2.9,0,5.3,2.4,5.3,5.3
	C86.2,48.1,83.8,50.4,80.9,50.4z"/>
<path class="st3" d="M116.8,33.8c-6.3,0-11.5,5.1-11.5,11.4c0,6.1,4.8,11.1,10.8,11.4l5.9-4.1v4h6.1V45.2
	C128.3,38.9,123.1,33.8,116.8,33.8z M116.8,50.5c-2.9,0-5.3-2.4-5.3-5.3c0-2.9,2.4-5.3,5.3-5.3c2.9,0,5.3,2.4,5.3,5.3
	C122.1,48.1,119.7,50.5,116.8,50.5z"/>
<path class="st3" d="M165.4,33.8c-6.3,0-11.5,5.1-11.5,11.4c0,6.1,4.8,11.1,10.8,11.4l5.9-4.1v4h6.1V45.2
	C176.8,38.9,171.7,33.8,165.4,33.8z M165.4,50.5c-2.9,0-5.3-2.4-5.3-5.3c0-2.9,2.4-5.3,5.3-5.3c2.9,0,5.3,2.4,5.3,5.3
	C170.7,48.1,168.3,50.5,165.4,50.5z"/>
<path class="st3" d="M184.8,32.2c0-9.1-7.5-16.5-16.6-16.5l-57.2,0c-9.2,0-16.6,7.4-16.6,16.5l0.1,21.1c-0.4,5.3-4.9,9.4-10.3,9.4
	l-18.6,0c-5.7,0-10.3-4.6-10.3-10.3l0.1-18.9H37.9l5.2,6.9h4.6c-1.6,5.4-6.6,9.3-12.3,9.3c-7.1,0-12.9-5.8-12.9-12.9
	c0-7.1,5.8-12.8,12.9-12.8c3.6,0,7,1.5,9.4,4.1h8.7c-3.4-6.9-10.4-11.3-18.1-11.3c-11.1,0-20.2,9-20.2,20.1c0,11.1,9,20.2,20.2,20.2
	c5.2,0,9.9-2,13.5-5.2v0.8c0,9.1,7.5,16.5,16.6,16.5l18.6,0c9.2,0,16.6-7.4,16.6-16.5V42.5h3.4l2.3-6.1l-5.8,0v-4.2
	c0-5.7,4.6-10.3,10.3-10.3l57.2,0c5.7,0,10.3,4.6,10.3,10.3l0,33.2c0,5.6-4.4,10.1-9.8,10.4h-22.4c-5.4,0-9.9-4.2-10.3-9.6l0-21.2
	c0-2.9,2.4-5.3,5.3-5.3c2.9,0,5.3,2.4,5.3,5.3v7.3l6.1,4.3V45.2c0-6.3-5.1-11.5-11.4-11.5c-6.3,0-11.4,5.1-11.4,11.4l-0.2,20.7
	c0.1,9.1,7.5,16.4,16.5,16.4l22.7,0c9.1,0,15.9-7.1,15.9-16.6L184.8,32.2z"/>
</svg>
