<?xml version="1.0" encoding="utf-8"?>
<!-- Generator: Adobe Illustrator 22.1.0, SVG Export Plug-In . SVG Version: 6.00 Build 0)  -->
<svg version="1.1" id="Layer_1" xmlns="http://www.w3.org/2000/svg" xmlns:xlink="http://www.w3.org/1999/xlink" x="0px" y="0px"
	 width="213.8px" height="35px" viewBox="0 0 213.8 35" style="enable-background:new 0 0 213.8 35;" xml:space="preserve">
<style type="text/css">
	.st0{fill:url(#SVGID_1_);}
	.st1{fill:#FFFFFF;}
	.st2{fill:url(#SVGID_2_);}
	.st3{fill:url(#SVGID_3_);}
	.st4{fill:url(#SVGID_4_);}
	.st5{fill:url(#SVGID_5_);}
	.st6{fill:url(#SVGID_6_);}
	.st7{fill:url(#SVGID_7_);}
	.st8{fill:url(#SVGID_8_);}
	.st9{fill:url(#SVGID_9_);}
	.st10{fill:url(#SVGID_10_);}
	.st11{fill:url(#SVGID_11_);}
	.st12{fill:url(#SVGID_12_);}
	.st13{fill:url(#SVGID_13_);}
	.st14{fill:url(#SVGID_14_);}
	.st15{fill:url(#SVGID_15_);}
	.st16{fill:url(#SVGID_16_);}
	.st17{fill:url(#SVGID_17_);}
	.st18{fill:url(#SVGID_18_);}
	.st19{fill:url(#SVGID_19_);}
	.st20{fill:url(#SVGID_20_);}
	.st21{fill:url(#SVGID_21_);}
	.st22{fill:url(#SVGID_22_);}
	.st23{fill:url(#SVGID_23_);}
	.st24{fill:url(#SVGID_24_);}
	.st25{fill:url(#SVGID_25_);}
	.st26{fill:url(#SVGID_26_);}
	.st27{fill:url(#SVGID_27_);}
	.st28{fill:url(#SVGID_28_);}
	.st29{fill:url(#SVGID_29_);}
	.st30{fill:url(#SVGID_30_);}
	.st31{fill:url(#SVGID_31_);}
	.st32{fill:url(#SVGID_32_);}
	.st33{fill:url(#SVGID_33_);}
	.st34{fill:url(#SVGID_34_);}
	.st35{fill:url(#SVGID_35_);}
	.st36{fill:url(#SVGID_36_);}
	.st37{fill:url(#SVGID_37_);}
	.st38{fill:url(#SVGID_38_);}
	.st39{fill:url(#SVGID_39_);}
	.st40{fill:url(#SVGID_40_);}
	.st41{fill:url(#SVGID_41_);}
	.st42{fill:url(#SVGID_42_);}
	.st43{fill:url(#SVGID_43_);}
	.st44{fill:url(#SVGID_44_);}
	.st45{fill:url(#SVGID_45_);}
	.st46{fill:url(#SVGID_46_);}
	.st47{fill:url(#SVGID_47_);}
	.st48{fill:url(#SVGID_48_);}
	.st49{fill:url(#SVGID_49_);}
	.st50{fill:url(#SVGID_50_);}
	.st51{fill:url(#SVGID_51_);}
	.st52{fill:url(#SVGID_52_);}
	.st53{fill:url(#SVGID_53_);}
	.st54{fill:url(#SVGID_54_);}
	.st55{fill:url(#SVGID_55_);}
	.st56{fill:url(#SVGID_56_);}
	.st57{fill:url(#SVGID_57_);}
	.st58{fill:url(#SVGID_58_);}
	.st59{fill:url(#SVGID_59_);}
	.st60{fill:url(#SVGID_60_);}
	.st61{fill:url(#SVGID_61_);}
	.st62{fill:url(#SVGID_62_);}
	.st63{fill:url(#SVGID_63_);}
	.st64{fill:url(#SVGID_64_);}
	.st65{fill:url(#SVGID_65_);}
	.st66{fill:url(#SVGID_66_);}
	.st67{fill:url(#SVGID_67_);}
	.st68{fill:url(#SVGID_68_);}
	.st69{fill:url(#SVGID_69_);}
	.st70{fill:url(#SVGID_70_);}
	.st71{fill:url(#SVGID_71_);}
	.st72{fill:url(#SVGID_72_);}
	.st73{fill:url(#SVGID_73_);}
	.st74{fill:url(#SVGID_74_);}
	.st75{fill:url(#SVGID_75_);}
	.st76{fill:url(#SVGID_76_);}
	.st77{fill:url(#SVGID_77_);}
	.st78{fill:url(#SVGID_78_);}
	.st79{fill:url(#SVGID_79_);}
	.st80{fill:url(#SVGID_80_);}
	.st81{fill:url(#SVGID_81_);}
	.st82{fill:url(#SVGID_82_);}
	.st83{fill:url(#SVGID_83_);}
	.st84{fill:url(#SVGID_84_);}
</style>
<g>
	
		<linearGradient id="SVGID_1_" gradientUnits="userSpaceOnUse" x1="148.3001" y1="12.6784" x2="148.3001" y2="26.8951" gradientTransform="matrix(1 0 0 -1 0 36)">
		<stop  offset="0" style="stop-color:#00BBDB"/>
		<stop  offset="1" style="stop-color:#E53F97"/>
	</linearGradient>
	<path class="st0" d="M155.6,15.2c0-0.3-0.1-0.6-0.2-0.9c-0.1-0.3-0.2-0.7-0.4-1.1c-0.2-0.4-0.4-0.8-0.8-1.2
		c-0.1-0.2-0.3-0.3-0.4-0.5c0.2-0.9-0.3-1.7-0.3-1.7c-0.9-0.1-1.4,0.3-1.6,0.4h-0.1c-0.1-0.1-0.3-0.1-0.5-0.2
		c-0.2,0-0.3-0.1-0.5-0.1s-0.3-0.1-0.5-0.1h-0.1c-0.4-1.2-1.5-1.7-1.5-1.7c-1.2,0.8-1.4,1.8-1.4,1.8s0,0,0,0.1c-0.1,0-0.1,0-0.2,0.1
		c-0.1,0-0.2,0.1-0.3,0.1s-0.2,0.1-0.3,0.1c-0.2,0.1-0.4,0.2-0.5,0.3c-0.2,0.1-0.3,0.2-0.5,0.3l0,0c-1.7-0.6-3.1,0.1-3.1,0.1
		c-0.1,1.8,0.7,2.9,0.8,3.1c0,0.1-0.1,0.2-0.1,0.3c-0.1,0.4-0.2,0.8-0.3,1.2c0,0.1,0,0.1,0,0.2c-1.5,0.8-2,2.3-2,2.3
		c1.3,1.5,2.8,1.6,2.8,1.6l0,0c0.2,0.3,0.4,0.7,0.7,1c0.1,0.1,0.2,0.2,0.3,0.4c-0.5,1.3,0.1,2.4,0.1,2.4c1.4,0.1,2.4-0.6,2.6-0.8
		c0.1,0,0.3,0.1,0.4,0.1c0.4,0.1,0.9,0.2,1.3,0.2c0.1,0,0.2,0,0.3,0h0.1l0,0h0.1h0.1l0,0c0.7,1,1.9,1.1,1.9,1.1
		c0.8-0.9,0.9-1.8,0.9-2l0,0l0,0l0,0l0,0l0,0c0.2-0.1,0.3-0.3,0.5-0.4c0.3-0.3,0.6-0.7,0.9-1c0,0,0-0.1,0.1-0.1
		c1,0.1,1.6-0.6,1.6-0.6c-0.2-1-0.7-1.5-0.8-1.6l0,0l0,0l0,0l0,0l0,0c0-0.1,0-0.1,0-0.2s0-0.2,0-0.3v-0.1l0,0l0,0l0,0v-0.1v-0.1
		v-0.1v-0.1v-0.1v-0.1c0-0.1,0-0.2-0.1-0.3c-0.1-0.4-0.3-0.8-0.5-1.2c-0.2-0.4-0.5-0.7-0.8-1s-0.7-0.5-1-0.7
		c-0.4-0.2-0.7-0.3-1.1-0.3c-0.2,0-0.4,0-0.6,0h-0.1l0,0l0,0l0,0h-0.1h-0.1c-0.1,0-0.2,0-0.3,0c-0.4,0.1-0.7,0.2-1,0.4
		s-0.6,0.4-0.8,0.7s-0.4,0.6-0.5,0.9s-0.2,0.6-0.2,0.9c0,0.1,0,0.2,0,0.2s0,0,0,0.1V17v0.1c0,0.2,0,0.3,0.1,0.4
		c0.1,0.3,0.2,0.5,0.4,0.8c0.2,0.2,0.4,0.4,0.6,0.5c0.2,0.1,0.4,0.2,0.7,0.3c0.2,0.1,0.4,0.1,0.6,0.1h0.1l0,0l0,0c0,0,0,0,0.1,0l0,0
		l0,0l0,0h0.1c0,0,0,0,0.1,0h0.1c0.1,0,0.2-0.1,0.3-0.1s0.2-0.1,0.2-0.1s0,0,0.1,0c0.1-0.1,0.1-0.2,0-0.2c-0.1-0.1-0.1-0.1-0.2,0
		c0,0,0,0-0.1,0s-0.1,0.1-0.2,0.1c-0.1,0-0.1,0-0.2,0.1h-0.1c0,0,0,0-0.1,0c0,0,0,0-0.1,0c0,0,0,0-0.1,0c0,0,0,0-0.1,0l0,0l0,0l0,0
		l0,0c0,0,0,0-0.1,0c-0.2,0-0.3-0.1-0.5-0.1c-0.2-0.1-0.3-0.2-0.4-0.3c-0.1-0.1-0.3-0.3-0.3-0.4c-0.1-0.2-0.2-0.4-0.2-0.5
		s0-0.2,0-0.3v-0.1l0,0l0,0l0,0l0,0c0-0.1,0-0.1,0-0.2c0.1-0.4,0.3-0.8,0.6-1.1c0.1-0.1,0.2-0.2,0.3-0.2c0.1-0.1,0.2-0.1,0.3-0.2
		c0.1,0,0.2-0.1,0.3-0.1s0.2,0,0.3-0.1c0.1,0,0.1,0,0.2,0l0,0l0,0l0,0l0,0l0,0l0,0c0.1,0,0.3,0,0.4,0.1c0.2,0.1,0.5,0.1,0.7,0.3
		c0.4,0.2,0.8,0.6,1.1,1.1c0.1,0.2,0.2,0.5,0.2,0.7c0,0.1,0,0.1,0,0.2l0,0l0,0l0,0l0,0l0,0l0,0v0.1c0,0.1,0,0.1,0,0.2s0,0.1,0,0.2
		s0,0.1,0,0.2s-0.1,0.3-0.1,0.4c-0.1,0.3-0.2,0.5-0.4,0.8c-0.3,0.5-0.8,0.8-1.3,1.1c-0.3,0.1-0.5,0.2-0.8,0.3c-0.1,0-0.3,0-0.4,0
		l0,0l0,0l0,0h-0.1l0,0l0,0l0,0c-0.1,0-0.2,0-0.2,0c-0.3,0-0.6-0.1-0.9-0.2c-0.3-0.1-0.6-0.2-0.9-0.3c-0.5-0.3-1-0.7-1.4-1.2
		c-0.2-0.2-0.4-0.5-0.5-0.8s-0.2-0.6-0.3-0.8c-0.1-0.3-0.1-0.6-0.1-0.9v-0.1l0,0l0,0l0,0l0,0l0,0l0,0l0,0v-0.1l0,0l0,0l0,0v-0.1
		c0-0.1,0-0.3,0-0.5c0-0.2,0-0.3,0.1-0.5c0-0.2,0.1-0.3,0.1-0.4c0.1-0.3,0.2-0.6,0.3-0.8c0.2-0.5,0.6-1,1-1.4
		c0.1-0.1,0.2-0.2,0.3-0.3s0.2-0.2,0.3-0.2c0.1-0.1,0.2-0.1,0.3-0.2c0.1,0,0.1-0.1,0.2-0.1h0.1h0.1c0.1-0.1,0.3-0.1,0.4-0.1h0.1h0.1
		c0.1,0,0.1,0,0.2-0.1h0.1h0.1h0.1h0.1h0.1h0.1h0.1h0.1c0,0,0,0,0.1,0l0,0l0,0l0,0h0.1h0.1l0,0l0,0l0,0h0.1c0.1,0,0.3,0,0.4,0
		c0.3,0,0.5,0,0.8,0.1c0.5,0.1,0.9,0.2,1.4,0.5c0.4,0.2,0.8,0.5,1.1,0.7c0,0,0,0,0.1,0.1c0,0,0,0,0.1,0.1l0.1,0.1l0.1,0.1l0.1,0.1
		c0.1,0.1,0.3,0.3,0.4,0.4c0.2,0.3,0.4,0.6,0.6,0.9c0,0,0,0,0,0.1c0,0,0,0,0,0.1v0.1v0.1v0.1c0.1,0.1,0.1,0.3,0.1,0.4
		c0.1,0.2,0.1,0.4,0.2,0.5c0,0.1,0.1,0.1,0.1,0.1c0.1,0,0.1-0.1,0.1-0.1C155.6,15.6,155.6,15.4,155.6,15.2z"/>
	<path class="st1" d="M40,16.3h9.3v0.4c0,4-3.5,7.4-7.6,7.4c-4.3,0-7.7-3.4-7.7-7.6s3.5-7.6,7.7-7.6c3,0,6,1.9,6.9,4.6h-3.2
		c-0.8-1.2-2.2-1.9-3.8-1.9c-2.7,0-4.9,2.2-4.9,5s2.2,5,5,5c1.8,0,3.4-1,4.2-2.6H40V16.3z"/>
	<path class="st1" d="M50.7,9.1h4.4c2.1,0,3.3,0.5,4.2,1.6c0.7,0.8,1.1,1.8,1.1,2.9c0,1-0.4,2.2-1,3c-0.7,0.9-1.4,1.4-2.9,1.7l4,5.4
		h-3.3l-3.8-5.6l0,0v5.6h-2.7V9.1z M55.1,16.1c1.6,0,2.6-0.9,2.6-2.3c0-1.3-1-2.2-2.6-2.2h-1.7v4.5H55.1z"/>
	<path class="st1" d="M67.3,9.1h2.1l6.1,14.7h-3L71.1,20h-5.2l-1.6,3.8h-3L67.3,9.1z M70,17.4l-1.5-4.5l0,0L67,17.4H70z"/>
	<path class="st1" d="M76.5,9.1h7.4v2.5h-4.6v3.6h4.4v2.5h-4.4v6h-2.7V9.1H76.5z"/>
	<path class="st1" d="M89,9.1h2.1l6.1,14.7h-3L92.7,20h-5.2l-1.6,3.8h-3L89,9.1z M91.6,17.4l-1.5-4.5l0,0l-1.5,4.5H91.6z"/>
	<path class="st1" d="M98.8,9.1h3.1l6,10.7l0,0V9.1h2.7v14.7h-3l-6-10.6l0,0v10.6h-2.7L98.8,9.1L98.8,9.1z"/>
	<path class="st1" d="M118.3,9.1h2.1l6.1,14.7h-3l-1.6-3.8h-5.2l-1.6,3.8h-3L118.3,9.1z M121,17.4l-1.5-4.5l0,0l-1.5,4.5H121z"/>
	
		<linearGradient id="SVGID_2_" gradientUnits="userSpaceOnUse" x1="133.3" y1="12.6784" x2="133.3" y2="26.8951" gradientTransform="matrix(1 0 0 -1 0 36)">
		<stop  offset="0" style="stop-color:#00BBDB"/>
		<stop  offset="1" style="stop-color:#E53F97"/>
	</linearGradient>
	<path class="st2" d="M140.4,19.7c-1.1,2.6-3.8,4.3-6.7,4.3c-4.1,0-7.5-3.5-7.5-7.7c0-4.1,3.4-7.5,7.4-7.5c2,0,3.9,0.8,5.4,2.3
		c0.7,0.7,0.9,1.1,1.4,2.1h-3c-0.7-0.8-1.2-1.2-1.9-1.5c-0.6-0.2-1.3-0.4-1.9-0.4c-2.5,0-4.6,2.3-4.6,4.9c0,2.7,2.2,5,4.7,5
		c0.6,0,1.2-0.1,1.8-0.4s0.9-0.5,1.5-1.1l0.2-0.2h3.2V19.7z"/>
	
		<linearGradient id="SVGID_3_" gradientUnits="userSpaceOnUse" x1="163.2" y1="12.6784" x2="163.2" y2="26.8951" gradientTransform="matrix(1 0 0 -1 0 36)">
		<stop  offset="0" style="stop-color:#00BBDB"/>
		<stop  offset="1" style="stop-color:#E53F97"/>
	</linearGradient>
	<path class="st3" d="M157.3,9.1h3.1l6,10.7l0,0V9.1h2.7v14.7h-3l-6-10.6l0,0v10.6h-2.7V9.1H157.3z"/>
	<g>
		<path class="st1" d="M178,9.1h2.7v12.1h4.2v2.5h-7V9.1H178z"/>
		<path class="st1" d="M191.6,9.1h2.1l6.2,14.7h-3l-1.6-3.8h-5.2l-1.6,3.8h-3L191.6,9.1z M194.2,17.4l-1.5-4.5l0,0l-1.5,4.5H194.2z"
			/>
	</g>
	<g>
		
			<linearGradient id="SVGID_4_" gradientUnits="userSpaceOnUse" x1="27.7271" y1="1.2545" x2="27.4001" y2="1.5815" gradientTransform="matrix(1 0 0 -1 0 36)">
			<stop  offset="0" style="stop-color:#00BBDB"/>
			<stop  offset="1" style="stop-color:#E53F97"/>
		</linearGradient>
		<path class="st4" d="M27.3,34.5c0,0.2,0.4,0.1,0.5,0.1C27.7,34.4,27.2,34.6,27.3,34.5z"/>
		
			<linearGradient id="SVGID_5_" gradientUnits="userSpaceOnUse" x1="26.2256" y1="3.6244" x2="25.8773" y2="3.9727" gradientTransform="matrix(1 0 0 -1 0 36)">
			<stop  offset="0" style="stop-color:#00BBDB"/>
			<stop  offset="1" style="stop-color:#E53F97"/>
		</linearGradient>
		<polygon class="st5" points="26.1,32.3 26.3,32.3 25.8,32.1 		"/>
		
			<linearGradient id="SVGID_6_" gradientUnits="userSpaceOnUse" x1="26.2726" y1="4.2774" x2="25.5045" y2="5.0455" gradientTransform="matrix(1 0 0 -1 0 36)">
			<stop  offset="0" style="stop-color:#00BBDB"/>
			<stop  offset="1" style="stop-color:#E53F97"/>
		</linearGradient>
		<path class="st6" d="M25.9,30.7c-0.8,0.2,0.2,0.6-0.1,0.9l-0.2,0.1l0.6,0.1c-0.1-0.2-0.2-0.3-0.3-0.5C25.9,31,25.8,30.8,25.9,30.7
			z"/>
		
			<linearGradient id="SVGID_7_" gradientUnits="userSpaceOnUse" x1="27.5089" y1="6.141" x2="27.3054" y2="6.3445" gradientTransform="matrix(1 0 0 -1 0 36)">
			<stop  offset="0" style="stop-color:#00BBDB"/>
			<stop  offset="1" style="stop-color:#E53F97"/>
		</linearGradient>
		<path class="st7" d="M27.5,29.7c-0.3,0.1-0.3-0.2-0.1,0.2h0.1C27.5,29.8,27.5,29.8,27.5,29.7z"/>
		
			<linearGradient id="SVGID_8_" gradientUnits="userSpaceOnUse" x1="27.6325" y1="6.1395" x2="27.5699" y2="6.2021" gradientTransform="matrix(1 0 0 -1 0 36)">
			<stop  offset="0" style="stop-color:#00BBDB"/>
			<stop  offset="1" style="stop-color:#E53F97"/>
		</linearGradient>
		<path class="st8" d="M27.5,29.8C27.6,30,27.8,29.7,27.5,29.8L27.5,29.8z"/>
		
			<linearGradient id="SVGID_9_" gradientUnits="userSpaceOnUse" x1="27.7972" y1="6.8153" x2="27.4705" y2="7.1419" gradientTransform="matrix(1 0 0 -1 0 36)">
			<stop  offset="0" style="stop-color:#00BBDB"/>
			<stop  offset="1" style="stop-color:#E53F97"/>
		</linearGradient>
		<path class="st9" d="M27.3,29l0.3,0.2c0.2-0.1,0.2-0.3,0.3-0.2C27.8,28.8,27.6,28.8,27.3,29z"/>
		
			<linearGradient id="SVGID_10_" gradientUnits="userSpaceOnUse" x1="26.9328" y1="7.125" x2="26.8012" y2="7.2566" gradientTransform="matrix(1 0 0 -1 0 36)">
			<stop  offset="0" style="stop-color:#00BBDB"/>
			<stop  offset="1" style="stop-color:#E53F97"/>
		</linearGradient>
		<path class="st10" d="M26.8,28.8l0.1,0.1C27,28.9,27,28.8,26.8,28.8z"/>
		
			<linearGradient id="SVGID_11_" gradientUnits="userSpaceOnUse" x1="27.0954" y1="6.8036" x2="26.7783" y2="7.1207" gradientTransform="matrix(1 0 0 -1 0 36)">
			<stop  offset="0" style="stop-color:#00BBDB"/>
			<stop  offset="1" style="stop-color:#E53F97"/>
		</linearGradient>
		<path class="st11" d="M27.1,29.2l-0.2-0.3c-0.1,0-0.4,0,0.1,0.1C26.7,29,27,29.1,27.1,29.2z"/>
		
			<linearGradient id="SVGID_12_" gradientUnits="userSpaceOnUse" x1="26.97" y1="6.364" x2="26.6086" y2="6.7254" gradientTransform="matrix(1 0 0 -1 0 36)">
			<stop  offset="0" style="stop-color:#00BBDB"/>
			<stop  offset="1" style="stop-color:#E53F97"/>
		</linearGradient>
		<path class="st12" d="M27,29.3c-0.2,0.1-0.3,0.3-0.5,0.1C26.6,29.9,27.1,29.8,27,29.3z"/>
		
			<linearGradient id="SVGID_13_" gradientUnits="userSpaceOnUse" x1="25.2375" y1="5.1002" x2="25.0304" y2="5.3073" gradientTransform="matrix(1 0 0 -1 0 36)">
			<stop  offset="0" style="stop-color:#00BBDB"/>
			<stop  offset="1" style="stop-color:#E53F97"/>
		</linearGradient>
		<path class="st13" d="M25.1,30.6l-0.2,0.2l0.3,0.2C25,30.9,25.4,30.6,25.1,30.6z"/>
		
			<linearGradient id="SVGID_14_" gradientUnits="userSpaceOnUse" x1="27.5131" y1="8.3369" x2="27.2442" y2="8.6058" gradientTransform="matrix(1 0 0 -1 0 36)">
			<stop  offset="0" style="stop-color:#00BBDB"/>
			<stop  offset="1" style="stop-color:#E53F97"/>
		</linearGradient>
		<path class="st14" d="M27.7,27.5c-0.2,0-0.4,0.1-0.6,0.1l0.2,0.2C27.4,27.7,27.5,27.5,27.7,27.5z"/>
		
			<linearGradient id="SVGID_15_" gradientUnits="userSpaceOnUse" x1="27.0317" y1="8.3933" x2="26.7548" y2="8.6702" gradientTransform="matrix(1 0 0 -1 0 36)">
			<stop  offset="0" style="stop-color:#00BBDB"/>
			<stop  offset="1" style="stop-color:#E53F97"/>
		</linearGradient>
		<path class="st15" d="M27.1,27.6l-0.3-0.3C26.8,27.5,26.9,27.6,27.1,27.6z"/>
		
			<linearGradient id="SVGID_16_" gradientUnits="userSpaceOnUse" x1="26.475" y1="6.775" x2="25.91" y2="7.34" gradientTransform="matrix(1 0 0 -1 0 36)">
			<stop  offset="0" style="stop-color:#00BBDB"/>
			<stop  offset="1" style="stop-color:#E53F97"/>
		</linearGradient>
		<path class="st16" d="M25.9,28.7l0.6,0.5L25.9,28.7z"/>
		
			<linearGradient id="SVGID_17_" gradientUnits="userSpaceOnUse" x1="28.0181" y1="9.3319" x2="27.594" y2="9.756" gradientTransform="matrix(1 0 0 -1 0 36)">
			<stop  offset="0" style="stop-color:#00BBDB"/>
			<stop  offset="1" style="stop-color:#E53F97"/>
		</linearGradient>
		<polygon class="st17" points="27.7,26.4 28.1,26.6 27.5,26.3 		"/>
		
			<linearGradient id="SVGID_18_" gradientUnits="userSpaceOnUse" x1="28.2326" y1="10.1502" x2="27.6997" y2="10.6831" gradientTransform="matrix(1 0 0 -1 0 36)">
			<stop  offset="0" style="stop-color:#00BBDB"/>
			<stop  offset="1" style="stop-color:#E53F97"/>
		</linearGradient>
		<path class="st18" d="M27.7,25.7c0.3,0.1,0.5-0.2,0.7,0c-0.1-0.2-0.3-0.4-0.6-0.5C28,25.3,27.9,25.5,27.7,25.7z"/>
		
			<linearGradient id="SVGID_19_" gradientUnits="userSpaceOnUse" x1="27.8271" y1="10.8105" x2="27.527" y2="11.1104" gradientTransform="matrix(1 0 0 -1 0 36)">
			<stop  offset="0" style="stop-color:#00BBDB"/>
			<stop  offset="1" style="stop-color:#E53F97"/>
		</linearGradient>
		<path class="st19" d="M27.5,24.9c0.1,0.1,0.2,0.2,0.3,0.3C27.8,25.1,27.7,25,27.5,24.9z"/>
		
			<linearGradient id="SVGID_20_" gradientUnits="userSpaceOnUse" x1="27.2012" y1="9.2489" x2="27.0225" y2="9.4275" gradientTransform="matrix(1 0 0 -1 0 36)">
			<stop  offset="0" style="stop-color:#00BBDB"/>
			<stop  offset="1" style="stop-color:#E53F97"/>
		</linearGradient>
		<path class="st20" d="M26.9,26.8c0.1,0,0.4-0.1,0.5-0.2l-0.5,0.1C26.9,26.7,26.9,26.8,26.9,26.8z"/>
		
			<linearGradient id="SVGID_21_" gradientUnits="userSpaceOnUse" x1="26.9475" y1="9.3525" x2="26.8435" y2="9.4565" gradientTransform="matrix(1 0 0 -1 0 36)">
			<stop  offset="0" style="stop-color:#00BBDB"/>
			<stop  offset="1" style="stop-color:#E53F97"/>
		</linearGradient>
		<path class="st21" d="M26.9,26.7L26.9,26.7c0-0.1,0-0.2,0-0.2S26.9,26.6,26.9,26.7z"/>
		
			<linearGradient id="SVGID_22_" gradientUnits="userSpaceOnUse" x1="26.8921" y1="9.1704" x2="26.8663" y2="9.1962" gradientTransform="matrix(1 0 0 -1 0 36)">
			<stop  offset="0" style="stop-color:#00BBDB"/>
			<stop  offset="1" style="stop-color:#E53F97"/>
		</linearGradient>
		<path class="st22" d="M26.9,26.8L26.9,26.8C26.8,26.8,26.8,26.8,26.9,26.8z"/>
		
			<linearGradient id="SVGID_23_" gradientUnits="userSpaceOnUse" x1="26.1471" y1="7.803" x2="25.6029" y2="8.3471" gradientTransform="matrix(1 0 0 -1 0 36)">
			<stop  offset="0" style="stop-color:#00BBDB"/>
			<stop  offset="1" style="stop-color:#E53F97"/>
		</linearGradient>
		<path class="st23" d="M26.3,28c-0.3-0.2-0.5-0.5-0.9-0.2C25.7,28,25.9,27.8,26.3,28z"/>
		
			<linearGradient id="SVGID_24_" gradientUnits="userSpaceOnUse" x1="26.5087" y1="8.5912" x2="26.1915" y2="8.9085" gradientTransform="matrix(1 0 0 -1 0 36)">
			<stop  offset="0" style="stop-color:#00BBDB"/>
			<stop  offset="1" style="stop-color:#E53F97"/>
		</linearGradient>
		<path class="st24" d="M26.3,27l-0.1,0.3c0.1,0,0.3-0.1,0.4,0L26.3,27z"/>
		
			<linearGradient id="SVGID_25_" gradientUnits="userSpaceOnUse" x1="26.3165" y1="9.0335" x2="26.1718" y2="9.1782" gradientTransform="matrix(1 0 0 -1 0 36)">
			<stop  offset="0" style="stop-color:#00BBDB"/>
			<stop  offset="1" style="stop-color:#E53F97"/>
		</linearGradient>
		<polygon class="st25" points="26.2,26.8 26.3,27 26.3,26.9 		"/>
		
			<linearGradient id="SVGID_26_" gradientUnits="userSpaceOnUse" x1="27.0727" y1="10.5273" x2="26.7067" y2="10.8933" gradientTransform="matrix(1 0 0 -1 0 36)">
			<stop  offset="0" style="stop-color:#00BBDB"/>
			<stop  offset="1" style="stop-color:#E53F97"/>
		</linearGradient>
		<path class="st26" d="M27.1,25.4c-0.2-0.1-0.2-0.3-0.2-0.4c-0.1,0.2-0.1,0.3-0.1,0.5C26.8,25.5,27.1,25.6,27.1,25.4z"/>
		
			<linearGradient id="SVGID_27_" gradientUnits="userSpaceOnUse" x1="26.8895" y1="9.9105" x2="26.8562" y2="9.9438" gradientTransform="matrix(1 0 0 -1 0 36)">
			<stop  offset="0" style="stop-color:#00BBDB"/>
			<stop  offset="1" style="stop-color:#E53F97"/>
		</linearGradient>
		<path class="st27" d="M26.9,26.1L26.9,26.1C26.9,26,26.8,26.1,26.9,26.1z"/>
		
			<linearGradient id="SVGID_28_" gradientUnits="userSpaceOnUse" x1="26.8" y1="12.6" x2="26.8" y2="12.6" gradientTransform="matrix(1 0 0 -1 0 36)">
			<stop  offset="0" style="stop-color:#00BBDB"/>
			<stop  offset="1" style="stop-color:#E53F97"/>
		</linearGradient>
		<path class="st28" d="M26.8,23.4L26.8,23.4L26.8,23.4L26.8,23.4z"/>
		
			<linearGradient id="SVGID_29_" gradientUnits="userSpaceOnUse" x1="26.7893" y1="10.2278" x2="26.5547" y2="10.4624" gradientTransform="matrix(1 0 0 -1 0 36)">
			<stop  offset="0" style="stop-color:#00BBDB"/>
			<stop  offset="1" style="stop-color:#E53F97"/>
		</linearGradient>
		<path class="st29" d="M26.6,25.5c-0.1,0.1,0,0.2,0.2,0.3C26.7,25.7,26.7,25.6,26.6,25.5L26.6,25.5z"/>
		
			<linearGradient id="SVGID_30_" gradientUnits="userSpaceOnUse" x1="27.2016" y1="11.3582" x2="27.1467" y2="11.4131" gradientTransform="matrix(1 0 0 -1 0 36)">
			<stop  offset="0" style="stop-color:#00BBDB"/>
			<stop  offset="1" style="stop-color:#E53F97"/>
		</linearGradient>
		<path class="st30" d="M27.3,24.5c-0.1,0.1-0.2,0.1-0.3,0.2C27.2,24.6,27.4,24.5,27.3,24.5z"/>
		
			<linearGradient id="SVGID_31_" gradientUnits="userSpaceOnUse" x1="27.0571" y1="9.9804" x2="27.0237" y2="10.0138" gradientTransform="matrix(1 0 0 -1 0 36)">
			<stop  offset="0" style="stop-color:#00BBDB"/>
			<stop  offset="1" style="stop-color:#E53F97"/>
		</linearGradient>
		<path class="st31" d="M27,26L27,26C27.1,26,27.1,26,27,26z"/>
		
			<linearGradient id="SVGID_32_" gradientUnits="userSpaceOnUse" x1="26.9688" y1="9.9589" x2="26.7446" y2="10.1831" gradientTransform="matrix(1 0 0 -1 0 36)">
			<stop  offset="0" style="stop-color:#00BBDB"/>
			<stop  offset="1" style="stop-color:#E53F97"/>
		</linearGradient>
		<path class="st32" d="M27,26c-0.1-0.1-0.2-0.1-0.3-0.2C26.7,25.9,26.8,25.9,27,26C26.9,26,27,26,27,26z"/>
		
			<linearGradient id="SVGID_33_" gradientUnits="userSpaceOnUse" x1="26.1038" y1="11.8961" x2="24.3301" y2="13.6699" gradientTransform="matrix(1 0 0 -1 0 36)">
			<stop  offset="0" style="stop-color:#00BBDB"/>
			<stop  offset="1" style="stop-color:#E53F97"/>
		</linearGradient>
		<path class="st33" d="M23.9,22.9c0.4,0,0.8,0.4,0.4,0.7c0.3,0.3,1.7,0.1,2.5-0.1c-0.2,0-0.4,0-0.6-0.3c-0.2,0.1-0.5,0.7-0.9,0.4
			c-0.2-0.4,0.2-0.3,0.4-0.5c-0.5,0.2-0.8-0.5-1.5-0.4l0.3,0.3C24.2,22.9,24,22.8,23.9,22.9z"/>
		
			<linearGradient id="SVGID_34_" gradientUnits="userSpaceOnUse" x1="27.1308" y1="12.0693" x2="26.7467" y2="12.4533" gradientTransform="matrix(1 0 0 -1 0 36)">
			<stop  offset="0" style="stop-color:#00BBDB"/>
			<stop  offset="1" style="stop-color:#E53F97"/>
		</linearGradient>
		<path class="st34" d="M26.7,24l0.1,0.1c0.1-0.1,0.2-0.2,0.6-0.4c-0.2-0.2-0.4-0.3-0.5-0.3L26.7,24L26.7,24z"/>
		
			<linearGradient id="SVGID_35_" gradientUnits="userSpaceOnUse" x1="26.8429" y1="11.0295" x2="25.9648" y2="11.9076" gradientTransform="matrix(1 0 0 -1 0 36)">
			<stop  offset="0" style="stop-color:#00BBDB"/>
			<stop  offset="1" style="stop-color:#E53F97"/>
		</linearGradient>
		<path class="st35" d="M26.8,24.7c-0.5-0.1-0.7-0.4-1.2-0.2c0,0.4,0.4,0.3,0.6,0.5C26.1,24.4,26.4,25.1,26.8,24.7
			c0,0.1,0,0.2,0.1,0.3c0.1-0.1,0.1-0.2,0.2-0.3l0,0l0,0l0,0c-0.1,0-0.1,0-0.1,0l0,0C26.9,24.7,26.8,24.7,26.8,24.7
			c0.1-0.2,0.1,0,0.2,0h0.1l0,0l-0.2-0.6C26.7,24.3,26.7,24.4,26.8,24.7z"/>
		
			<linearGradient id="SVGID_36_" gradientUnits="userSpaceOnUse" x1="24.4996" y1="8.4503" x2="24.4433" y2="8.5066" gradientTransform="matrix(1 0 0 -1 0 36)">
			<stop  offset="0" style="stop-color:#00BBDB"/>
			<stop  offset="1" style="stop-color:#E53F97"/>
		</linearGradient>
		<path class="st36" d="M24.4,27.5h0.1H24.4z"/>
		
			<linearGradient id="SVGID_37_" gradientUnits="userSpaceOnUse" x1="25.3706" y1="8.5293" x2="24.9511" y2="8.9489" gradientTransform="matrix(1 0 0 -1 0 36)">
			<stop  offset="0" style="stop-color:#00BBDB"/>
			<stop  offset="1" style="stop-color:#E53F97"/>
		</linearGradient>
		<path class="st37" d="M24.7,27.3c0.1,0,0.2,0.1,0.2,0.2c-0.1,0.1-0.2,0-0.4,0c0.1,0.1,0.3,0.3,0.6,0H25c0.2-0.2,0.7-0.5,0.8-0.5
			C25.4,27.1,25.1,27.2,24.7,27.3z"/>
		
			<linearGradient id="SVGID_38_" gradientUnits="userSpaceOnUse" x1="25.5877" y1="10.0123" x2="25.1558" y2="10.4443" gradientTransform="matrix(1 0 0 -1 0 36)">
			<stop  offset="0" style="stop-color:#00BBDB"/>
			<stop  offset="1" style="stop-color:#E53F97"/>
		</linearGradient>
		<path class="st38" d="M25.6,26l-0.2-0.5L25,25.7h0.2C25.1,26,25.4,25.9,25.6,26z"/>
		
			<linearGradient id="SVGID_39_" gradientUnits="userSpaceOnUse" x1="27.4755" y1="12.4744" x2="26.9897" y2="12.9604" gradientTransform="matrix(1 0 0 -1 0 36)">
			<stop  offset="0" style="stop-color:#00BBDB"/>
			<stop  offset="1" style="stop-color:#E53F97"/>
		</linearGradient>
		<polygon class="st39" points="27.1,23.4 27.6,23.4 26.9,23.2 		"/>
		
			<linearGradient id="SVGID_40_" gradientUnits="userSpaceOnUse" x1="27.3326" y1="13.1174" x2="27.1069" y2="13.3431" gradientTransform="matrix(1 0 0 -1 0 36)">
			<stop  offset="0" style="stop-color:#00BBDB"/>
			<stop  offset="1" style="stop-color:#E53F97"/>
		</linearGradient>
		<polygon class="st40" points="27,22.7 27.4,22.8 27.2,22.6 		"/>
		
			<linearGradient id="SVGID_41_" gradientUnits="userSpaceOnUse" x1="13.1486" y1="25.9514" x2="13.0337" y2="26.0663" gradientTransform="matrix(1 0 0 -1 0 36)">
			<stop  offset="0" style="stop-color:#00BBDB"/>
			<stop  offset="1" style="stop-color:#E53F97"/>
		</linearGradient>
		<path class="st41" d="M13.1,10.1V9.9C13.1,10,13.1,10,13.1,10.1z"/>
		
			<linearGradient id="SVGID_42_" gradientUnits="userSpaceOnUse" x1="12.8524" y1="24.8976" x2="12.7074" y2="25.0426" gradientTransform="matrix(1 0 0 -1 0 36)">
			<stop  offset="0" style="stop-color:#00BBDB"/>
			<stop  offset="1" style="stop-color:#E53F97"/>
		</linearGradient>
		<path class="st42" d="M12.7,11l0.2,0.1C12.8,11,12.7,10.9,12.7,11z"/>
		
			<linearGradient id="SVGID_43_" gradientUnits="userSpaceOnUse" x1="20.9789" y1="23.9836" x2="20.448" y2="24.5145" gradientTransform="matrix(1 0 0 -1 0 36)">
			<stop  offset="0" style="stop-color:#00BBDB"/>
			<stop  offset="1" style="stop-color:#E53F97"/>
		</linearGradient>
		<path class="st43" d="M21.1,11.9c-0.2-0.3-0.6-0.9-0.5-0.3l0.1,0.5C20.9,11.8,21,11.8,21.1,11.9z"/>
		
			<linearGradient id="SVGID_44_" gradientUnits="userSpaceOnUse" x1="12.8052" y1="15.6948" x2="12.4969" y2="16.0031" gradientTransform="matrix(1 0 0 -1 0 36)">
			<stop  offset="0" style="stop-color:#00BBDB"/>
			<stop  offset="1" style="stop-color:#E53F97"/>
		</linearGradient>
		<path class="st44" d="M12.6,20c0,0-0.1,0-0.2,0c0.1,0.1,0.3,0.1,0.4,0.2C12.7,20.2,12.6,20.1,12.6,20z"/>
		
			<linearGradient id="SVGID_45_" gradientUnits="userSpaceOnUse" x1="10.9188" y1="16.6312" x2="10.8603" y2="16.6898" gradientTransform="matrix(1 0 0 -1 0 36)">
			<stop  offset="0" style="stop-color:#00BBDB"/>
			<stop  offset="1" style="stop-color:#E53F97"/>
		</linearGradient>
		<path class="st45" d="M10.7,19.5c0.1-0.1,0.3-0.2,0.4-0.3C11,19.2,10.9,19.3,10.7,19.5z"/>
		
			<linearGradient id="SVGID_46_" gradientUnits="userSpaceOnUse" x1="15.4946" y1="31.3227" x2="15.1404" y2="31.6769" gradientTransform="matrix(1 0 0 -1 0 36)">
			<stop  offset="0" style="stop-color:#00BBDB"/>
			<stop  offset="1" style="stop-color:#E53F97"/>
		</linearGradient>
		<path class="st46" d="M15.5,4.7l-0.3-0.4C15.1,4.5,15.3,4.5,15.5,4.7z"/>
		
			<linearGradient id="SVGID_47_" gradientUnits="userSpaceOnUse" x1="28.1703" y1="22.3405" x2="27.9419" y2="22.569" gradientTransform="matrix(1 0 0 -1 0 36)">
			<stop  offset="0" style="stop-color:#00BBDB"/>
			<stop  offset="1" style="stop-color:#E53F97"/>
		</linearGradient>
		<path class="st47" d="M28,13.9c0.2-0.4,0.3-0.6,0.3-0.8C28,13.6,27.5,14.2,28,13.9z"/>
		
			<linearGradient id="SVGID_48_" gradientUnits="userSpaceOnUse" x1="17.4296" y1="23.5079" x2="17.2128" y2="23.7246" gradientTransform="matrix(1 0 0 -1 0 36)">
			<stop  offset="0" style="stop-color:#00BBDB"/>
			<stop  offset="1" style="stop-color:#E53F97"/>
		</linearGradient>
		<path class="st48" d="M17.4,12.5c0-0.1-0.1-0.2-0.2-0.2C17.3,12.4,17.3,12.4,17.4,12.5z"/>
		
			<linearGradient id="SVGID_49_" gradientUnits="userSpaceOnUse" x1="28.4181" y1="23.0452" x2="28.1502" y2="23.313" gradientTransform="matrix(1 0 0 -1 0 36)">
			<stop  offset="0" style="stop-color:#00BBDB"/>
			<stop  offset="1" style="stop-color:#E53F97"/>
		</linearGradient>
		<path class="st49" d="M28.2,12.6c0,0.1-0.1,0.1-0.1,0.2c0.1,0,0.2,0.1,0.1,0.3C28.5,12.8,28.6,12.5,28.2,12.6z"/>
		
			<linearGradient id="SVGID_50_" gradientUnits="userSpaceOnUse" x1="8.8" y1="25.1" x2="8.8" y2="25.1" gradientTransform="matrix(1 0 0 -1 0 36)">
			<stop  offset="0" style="stop-color:#00BBDB"/>
			<stop  offset="1" style="stop-color:#E53F97"/>
		</linearGradient>
		<path class="st50" d="M8.8,10.9L8.8,10.9L8.8,10.9z"/>
		
			<linearGradient id="SVGID_51_" gradientUnits="userSpaceOnUse" x1="1.4843" y1="25.7156" x2="1.4622" y2="25.7376" gradientTransform="matrix(1 0 0 -1 0 36)">
			<stop  offset="0" style="stop-color:#00BBDB"/>
			<stop  offset="1" style="stop-color:#E53F97"/>
		</linearGradient>
		<path class="st51" d="M1.4,10.4c0-0.1,0.1-0.1,0.2-0.2C1.5,10.2,1.5,10.2,1.4,10.4z"/>
		
			<linearGradient id="SVGID_52_" gradientUnits="userSpaceOnUse" x1="27.3489" y1="15.7264" x2="27.2903" y2="15.7851" gradientTransform="matrix(1 0 0 -1 0 36)">
			<stop  offset="0" style="stop-color:#00BBDB"/>
			<stop  offset="1" style="stop-color:#E53F97"/>
		</linearGradient>
		<path class="st52" d="M27.3,20.2C27.3,20.4,27.4,20.2,27.3,20.2L27.3,20.2z"/>
		
			<linearGradient id="SVGID_53_" gradientUnits="userSpaceOnUse" x1="25.3978" y1="15.0522" x2="25.2547" y2="15.1954" gradientTransform="matrix(1 0 0 -1 0 36)">
			<stop  offset="0" style="stop-color:#00BBDB"/>
			<stop  offset="1" style="stop-color:#E53F97"/>
		</linearGradient>
		<path class="st53" d="M25.4,20.9c-0.1,0-0.1-0.1-0.2-0.1C25.3,20.9,25.4,20.9,25.4,20.9z"/>
		
			<linearGradient id="SVGID_54_" gradientUnits="userSpaceOnUse" x1="25.471" y1="21.654" x2="25.4564" y2="21.6686" gradientTransform="matrix(1 0 0 -1 0 36)">
			<stop  offset="0" style="stop-color:#00BBDB"/>
			<stop  offset="1" style="stop-color:#E53F97"/>
		</linearGradient>
		<path class="st54" d="M25.5,14.3L25.5,14.3C25.4,14.4,25.4,14.4,25.5,14.3z"/>
		
			<linearGradient id="SVGID_55_" gradientUnits="userSpaceOnUse" x1="27.21" y1="15.64" x2="27.1622" y2="15.6878" gradientTransform="matrix(1 0 0 -1 0 36)">
			<stop  offset="0" style="stop-color:#00BBDB"/>
			<stop  offset="1" style="stop-color:#E53F97"/>
		</linearGradient>
		<path class="st55" d="M27.1,20.5c0.1-0.1,0.1-0.2,0.2-0.3C27.2,20.3,27.2,20.3,27.1,20.5z"/>
		
			<linearGradient id="SVGID_56_" gradientUnits="userSpaceOnUse" x1="27.3505" y1="15.3996" x2="27.2537" y2="15.4963" gradientTransform="matrix(1 0 0 -1 0 36)">
			<stop  offset="0" style="stop-color:#00BBDB"/>
			<stop  offset="1" style="stop-color:#E53F97"/>
		</linearGradient>
		<path class="st56" d="M27.3,20.4c0,0.1,0,0.1-0.1,0.2C27.3,20.6,27.4,20.6,27.3,20.4z"/>
		
			<linearGradient id="SVGID_57_" gradientUnits="userSpaceOnUse" x1="27.3277" y1="15.8224" x2="27.1746" y2="15.9754" gradientTransform="matrix(1 0 0 -1 0 36)">
			<stop  offset="0" style="stop-color:#00BBDB"/>
			<stop  offset="1" style="stop-color:#E53F97"/>
		</linearGradient>
		<path class="st57" d="M27.3,19.9c0,0.1,0,0.3-0.1,0.4c0,0,0.1-0.1,0.1,0C27.3,20.1,27.3,20,27.3,19.9z"/>
		
			<linearGradient id="SVGID_58_" gradientUnits="userSpaceOnUse" x1="17.4772" y1="31.1103" x2="17.4072" y2="31.1803" gradientTransform="matrix(1 0 0 -1 0 36)">
			<stop  offset="0" style="stop-color:#00BBDB"/>
			<stop  offset="1" style="stop-color:#E53F97"/>
		</linearGradient>
		<path class="st58" d="M17.5,4.8L17.5,4.8C17.4,5,17.4,5,17.5,4.8z"/>
		
			<linearGradient id="SVGID_59_" gradientUnits="userSpaceOnUse" x1="19" y1="17.3" x2="19" y2="17.3" gradientTransform="matrix(1 0 0 -1 0 36)">
			<stop  offset="0" style="stop-color:#00BBDB"/>
			<stop  offset="1" style="stop-color:#E53F97"/>
		</linearGradient>
		<path class="st59" d="M19,18.7L19,18.7L19,18.7L19,18.7z"/>
		
			<linearGradient id="SVGID_60_" gradientUnits="userSpaceOnUse" x1="18.9572" y1="16.9929" x2="17.843" y2="18.107" gradientTransform="matrix(1 0 0 -1 0 36)">
			<stop  offset="0" style="stop-color:#00BBDB"/>
			<stop  offset="1" style="stop-color:#E53F97"/>
		</linearGradient>
		<path class="st60" d="M18.7,19.3c-0.1-0.6,0-0.6,0.2-0.6l-0.8-1.1L18.7,19.3z"/>
		
			<linearGradient id="SVGID_61_" gradientUnits="userSpaceOnUse" x1="27.2912" y1="13.8213" x2="8.1618" y2="32.9507" gradientTransform="matrix(1 0 0 -1 0 36)">
			<stop  offset="0" style="stop-color:#00BBDB"/>
			<stop  offset="1" style="stop-color:#E53F97"/>
		</linearGradient>
		<path class="st61" d="M14.2,7.6l-0.5,0.1c-0.4-0.7,0-0.9-0.7-0.9c1.2,0.7-0.6,1.4,0.7,2.1L13.3,9c0-0.1,0-0.1,0-0.2
			c-0.8,0.1,0.8,0.8,0.4,1.2c-0.2,0.1-0.4,0.2-0.5,0l0.1,0.5c-0.1,0.1-0.3,0-0.2-0.1L12.9,11l0,0c0.2,0.2,0.4,0.5,0.5,0.7
			c-0.3,0.1-0.1-0.1-0.3-0.2l0.2,0.5c-0.4,0-0.6-0.4-0.5-0.7c-1.5-0.2,0.2,0.4-0.9,1v-0.5c-0.9,0-0.7,0.4-1.4,0.8
			c0.3-0.1,1.6-0.6,1.7,0c-0.1,0.1-0.3,0.3,0,0.6c-0.3-0.1-0.4,0-0.4,0.1c-0.1,0.1,0,0.2-0.1,0.3l-0.7,0c0.1,0.3,0.5,0.4,0.7,0.6
			c-0.1,0.3-0.7,0.2-1.1,0.1c-0.2,0.4,0.9-0.1,0.9,0.5c-0.4,0.3-0.1,0.6,0.1,1.1c-0.3,0.1-0.4-0.2-0.6-0.2l0.4,0.4
			c0,0-0.2,0-0.3-0.1c0.1,0.3,0.7,0.2,0.7,0.7c0.3,0.2,0,0.3-0.3,0.5s-0.6,0.5-0.3,0.8c-0.2,0.1-0.4-0.1-0.7-0.1
			c0.2,0.4,0.3,0.5,0.4,0.6c0.1,0.1,0.2,0.3,0.6,0.5c-0.2,0-0.3,0.1-0.5,0.2c0.6-0.2,1,0.4,1.5,0.9C12.8,20,13,20,13.1,20
			c0.1,0.2,0.2,0.4,0.3,0.4c-0.1,0-0.4,0-0.6-0.1c0.1,0,0.1,0.1,0.2,0.1c-0.2,0.1-0.6,0.2-1-0.1c0.1-0.1,0.3-0.2,0.4-0.2
			c-0.4-0.2-0.8-0.5-1.2-0.5c0.1,0.1,0.1,0.2,0.1,0.3c-0.1-0.1-0.2-0.1-0.3-0.1s0.1,0.1,0.2,0.3c-0.3,0-0.5,0.1-0.8,0.2l0.3,0.1
			c0,0.2-0.1,0.4,0,0.8c0,0.1,0,0.2,0.1,0.3c0,0.1,0.1,0.3,0.2,0.4c0.1,0.2,0.4,0.5,0.7,0.7l0.4,0.2l1.8-0.3c0.2,0,0.4-0.1,0.5-0.1
			c0.1-1.1-0.4-2.2-0.1-2.9c0.3,0.5,0.6,0.7,1.1,1.2c-0.6-0.4-0.2,0.6-0.7,0.9c0.2-0.1,0.4,0.1,0.4,0.3c0.1-0.4,0.1-0.7,0.1-1
			c0.4,0.4,0.4,0.2,0.7,0.2c-0.8-0.7-0.2-0.8-0.2-1.2c0.2,0.3,0.4,0.6,0.2,0.7c0.7,0.4-0.5-1.2,0.2-0.9c-0.1,0.1-0.1,0,0,0.2
			c0-0.4,0.5-0.4,0.6-0.1h-0.1c0.5-0.2,1.4-0.8,1.1-1.7c0.1,0.1,0.5,1,0.5,1.2C18,18,17.8,17,17.6,15.9c0.3,0.7,1.6,2.1,1.4,2.8
			c0.1,0,0.2,0,0.3,0c0.1,0,0.1-0.1,0.1-0.2c-0.1-0.1-0.7-0.9-0.6-1c0.6,0.6,0.4,0.3,0.9,0.9c-0.1-0.1-0.5-1.3-0.3-1.4
			c0,0.2,0.3,1.2,0.4,1.4c0-0.5,0-0.9,0-1.4c-0.1,0.3,0.2,1.1,0.3,1.4c-0.1-0.2,0.2-0.1,0.2-0.3c0-0.1-0.1-0.2-0.1-0.3
			c0.3,0.1,0.3-2.2,0.9-2.5c-0.1,0.4-0.4,2-0.2,2.1c0.1-0.4,0.3-1.4,0.8-2.5c0.4-1,0.9-2,1.3-2.4v0.4c0.2-0.2,0.4-0.5,0.7-0.7
			c-0.2,0.3-0.4,0.7-0.7,1.2c-0.3,0.5-0.5,0.9-0.8,1.5c-0.5,1.1-0.9,2.1-1.1,2.7c0,0.3-0.1,0.5,0,0.4c-0.1,0.4-0.2,0.7-0.3,0.8
			c0,0.1,0.1,0.1,0.1,0.2c0.3-1,0.6-1.2,0.9-2.1c-0.3,0.4-0.6,0.9-0.8,1.3c0.1-0.5,0.4-1.3,0.7-1.9c0.3-0.6,0.7-1.2,0.9-1.2
			c-0.1,0.4-0.9,2-1,2.4c0.2-0.4,0.6-0.8,0.5-0.6l-0.4,0.6c0,0.2,0.2-0.2,0.4-0.5c0.2-0.3,0.4-0.6,0.2,0c0,0-0.7,1.5-0.3,0.8
			c0.4-0.7,1.2-2.1,2-3.4c0.3-0.6,0.7-1.1,0.9-1.6c0.2-0.4,0.5-0.7,0.6-0.9c0,0.1,0.2,0.7,0,1.1c0,0.1-0.1,0.2-0.1,0.3
			c-0.1,0.2-0.2,0.3-0.3,0.5c-0.2,0.3-0.5,0.7-0.8,1c-0.5,0.7-1,1.3-1.2,1.8c0.2-0.3,0.6-0.8,0.7-0.9c-0.1,0.3-0.8,1.1-0.5,0.9
			c0.2-0.3,0.3-0.4,0.4-0.5c0.2-0.2,0.2-0.1,0.2,0s0.1-0.1,0.3-0.5c0.3-0.2,0.2,0,0.1,0.1c-0.1,0.2-0.2,0.4-0.2,0.5
			c0.3-0.4,0.9-1,1.3-1.5c0.5-0.5,0.6-0.6,0.7-0.6c-0.2,0.2-0.4,0.4-0.5,0.7c-0.3,0.7-0.8,1.4-0.9,1.9c-0.2,0.2-0.5,0.7-0.9,0.9
			c0.1-0.1,0.4-0.3,0.4-0.2c-0.8,0.9,0-0.2-1,0.8c0.5-0.4,0.6-0.3,0.8-0.3c0.7-0.6,0.2-0.6,0-0.5c0.5-0.5,1-0.9,1.4-1.1
			s0.8-0.3,1-0.1c0.2,0.4-0.8,0.8-0.6,0.8c-0.2,0.6,0.2,0.6,0.6,0.6c0.3,0,0.5,0.2,0.1,0.9c-0.7,0.6-1.2,0.4-1.7,0.7
			c-0.2-0.3,0.5-0.8,0.5-1.1l-0.3,0c-0.2,0-0.3-0.2-0.1-0.5c-0.3,0.3-0.4,0.7-0.5,1.1s-0.1,0.9-0.4,1.2c0.2,0.1,0.4,0.3,0.6,0.2
			L24.5,20c0.5-0.3,0.6,0.4,0.9,0.1c0.1,0.2,0.3,0.4,0.5,0.6c0.1,0.2,0.2,0.4,0,0.5h-0.7c0.2,0,0.4-0.2,0.2-0.4
			c0.3,0.2-0.9,0.6-0.1,0.8l0.5-0.3c0.3,0.3,1,0.7,0.8,1c0.7-0.1-0.1-0.1,0.7-0.3c-0.9,0.2,0.1-0.9-0.9-0.6c0.9-0.2,0.4-0.4,1.2-0.7
			c-0.2,0-0.4,0.1-0.3-0.2c-0.1,0-0.1-0.1-0.2-0.1l0,0l0,0l0,0c-0.1,0.1-0.2,0.2-0.3,0.2c-0.2-0.1-0.3-0.3-0.4-0.6
			c-0.1-0.2-0.1-0.5-0.2-0.6c0.1-0.3,0.2,0.1,0.5-0.1c-0.1-0.1-0.2-0.2-0.4-0.3c0.5-0.1,0.9-0.9,1.1-0.3l0.1-0.7
			c0.4-0.5,0.6-1.1,0.5-1.4c0.2-0.4-0.4-0.6,0-0.5c0-0.3,0-0.6-0.1-0.9l0.2-0.1c0.1-0.5-0.1-0.8-0.2-1.1s-0.1-0.6,0.3-1.4
			c-0.1-0.1-0.3-0.1-0.2-0.6l0.4-0.5c-0.1-0.1,0.3-1.2-0.1-0.8c0.3-0.5,0.4-0.7,0.4-1c0-0.2-0.1-0.5-0.3-0.7
			c-0.4,0.1-0.7,0.2-0.8,0.2l-0.4,0.6c-0.4,0-0.8,0.3-1.4,0.6L25.5,11c-0.6,0.6-0.8-0.2-1.5,0c0.1-0.2,0.3-0.2,0.3-0.1
			c-0.1-0.6-0.7-0.2-1.2,0.2s-1,1-1.3,0.6c-0.2,0.3-0.3,0.3-0.5,0.2c0,0,0,0,0.1-0.1c0,0,0,0-0.1,0c-0.1-0.1-0.1-0.1-0.2-0.2
			c0.1,0.1,0.1,0.2,0.2,0.2c-0.1,0.1-0.4,0.3-0.6,0.5V12c0,0,0,0-0.1,0c-0.2-0.1-0.2,0.4-0.1,0.8c-0.1,0.2-0.2,0.3-0.3,0.5
			c-0.2-0.8-0.5,0.6-0.8-0.2c-0.1,0.5-1,1-0.8,2c0-0.1-0.1-0.1,0-0.2c-0.2,0-0.5,0.1-0.6,0.4l-0.4-0.5c0,0.4,0,0.7,0,1.1
			c-0.4-0.2-0.6-0.4-0.7-0.9c-0.1,0.9-0.2,0.5-0.3,1.4L16.4,16c-0.1,0.1-0.1,0.7-0.4,0.5c-0.7-0.5-1.9,1-3.3,1.4
			c1,0.7-0.8,0-0.1,0.7c-0.3-0.2-0.5-0.2-0.5-0.5c-0.1,0.6-0.7,0.1-0.4,0.8c-0.2-0.2-0.2-0.4-0.4-0.5c0,0.1,0.1,0.3,0,0.1
			c-0.1-0.1-0.1-0.2-0.2-0.3c0,0.1,0,0.2,0.1,0.3l1.6,2.1c0,0,0.1-0.1,0.2-0.1c0.1,0,0.1,0,0.2,0c0.1,0,0.2,0,0.3,0
			c0.2,0,0.3,0,0.4,0c0.1,0,0.1,0,0.2,0l0,0l0,0c0,0-0.2-0.1-0.4-0.3c0.3,0,0.6,0,0.6,0.2c0-0.1,0.2-0.1,0.3-0.6
			c0.1-0.4,0.1-0.6-0.3-0.7c0.2,0,0.1-0.2,0-0.3c0.1-0.4,0.2-0.4,0.2-0.7l-0.1,0.1c-0.8-0.3-0.1-0.3-0.1-0.6h0.1
			c0.8-0.5-0.1-0.4,0.8-1l-0.5-0.1c-1-0.4,0.8-0.5,0.5-1.1l-0.3,0.1c-0.3-0.3,1.6-0.3,1.8-0.5c0.1,0,0.1,0.1,0.2,0.2
			c0.8-0.5-0.6-0.3-0.7-0.7c0.4,0,0.9,0.3,1,0.1c0.2,0-0.1-0.2-0.3-0.5c-0.2-0.3-0.3-0.6,0.1-0.6c-0.3,0-0.6-0.1-0.7-0.3
			c0-0.3,1.3-0.3,0.6-1c0.1,0,0.2,0,0.2,0c-0.1-0.3,0-0.9-0.4-1.2c1.7,0.6-0.1-1.7,1.3-1l0.3-0.6l0.1,0.1c0.3-0.3,0.1-0.7-0.1-1.1
			c0.2,0,0.2,0.1,0.3,0.2C19.4,8.1,19.4,8,19,7.1l0.5,0.2C19.3,7,20.7,6.9,20.6,6c0,0,0.1,0.1,0.2,0.2c-0.1-0.4,0.4-0.6,0.6-0.7
			c0.2,0.1,0.9-0.2,0.2-1.1l0.1-0.8c-0.6,0.6-0.6-0.6-1-0.6c0-0.1,0.3-0.2,0.5-0.2s0.4,0.1,0.3,0.3h-0.1c0.3,0.3,0.5,0.2,0.7,0
			s0.4-0.8,0.4-1.3V1.3L21,0.6c-0.1-0.1-0.2-0.1-0.2-0.2c-0.9,0.1-1.3,0.3-1.7,0.4c-0.2,0.1-0.4,0.1-0.5,0.1s-0.2,0-0.3,0
			C17.7,1,17,1.1,16.4,1.3L16.8,2l-0.4,0.1C16.2,2,16,1.6,16.3,1.5C16,1.1,16,2,16,2.2c-0.7-0.1-0.1-0.9-0.3-0.9l-0.2,0.2l0.1,0.1
			c-0.1,0.4,0,0.7-0.4,0.8c-0.3,0-0.3-0.4-0.4-0.4c0-0.1-0.1-0.1-0.2,0L14,2.2l0.5,0.5c-0.1,0.4-0.5,0.2,0,0.7
			C13.7,2.6,12.4,4,12,3.8c-0.1,0.6-0.4,0.7-0.8,0.9c0.2,0.1,0.6,0.6,0.2,0.7c-0.6-1.3-0.9-0.2-1.7-0.9C10.4,5,9.1,5.2,9.9,5.8
			C9.6,5.9,9.6,5.4,9.2,5.2C8.9,6,7.7,5.7,7,6.3C7.1,6.4,7.4,6.6,7.3,7L6.4,6.4C6.3,6.6,6.9,7.4,6.2,7c0.1,0.1,0.3,0.3,0.2,0.4
			C5.5,7.5,4.7,8.2,4,8.8s-1.4,1.2-2.6,1c0.4,0.2,0.3,0.3,0.2,0.4c0.1,0,0.3,0.4,0.4,0.6c-0.3,0-0.7-0.1-1-0.2
			c0.3,0.7-0.6,0.4-0.3,1l0.1-0.2c0.2,0.8,1.3,1.3,1.9,2.1C2.5,12.6,4.3,14,4,12.6c0.2,0.1,0.1,0.3,0.3,0.5
			c-0.1-0.4-0.1-0.6,0.3-0.7v0.1C5.4,11.9,6,12,6.9,11.7l-0.3-0.4c0.2-0.1,0.3,0,0.5,0.1c-0.2-0.8-0.5,0.3-0.8-0.5
			c0.8,0.7,1.2-0.8,2,0.1c0.3-0.2-0.4-0.4-0.1-0.6l0.2,0.2l-0.1-0.4c0.2-0.1,0.5,0.2,0.7,0.5c-0.1,0-0.1,0.1-0.1,0.2
			c0.4,0.2,0.6-0.5,0.8-0.5H9.3c0.6-0.7,1.8-0.9,2.3-1.9l-0.2-0.2c0.4-0.7,0.6-0.1,1.2-0.6v0.1c0-0.3,0.1-0.5,0.3-0.6
			c0,0.3,0.6,0.3,0.5,0.7c0.4-0.8,0.1-0.5,0.1-1.5l0.3,0.3c0-0.4-0.1-0.6,0.2-0.8c-0.1,0.4,0.5,0.4,0.4,1c1,0.4,0.6-1.3,1.5-0.3
			c-0.2-1.1-0.8-0.3-0.8-0.6c-0.3-0.2-0.1-0.9,0.2-0.9c0.2-0.1,1,1.1,1.5,0.8c-0.1,0,0,0.1-0.1,0.1C17,6.2,17,5.5,17.4,5.8
			c-0.1-0.7,0.3-0.1,0.1-0.9l-0.4,0.4C17,5,16.9,4,17.6,4.2c0,0.2,0,0.4-0.1,0.6C17.7,5,17.7,4.5,18,4.7c0.3,0.8-0.6,0.4-0.6,1.1
			c0.3,0.3,0.4-0.8,0.5,0.1c-0.2-1.2,0.6-0.1,0.7-1l0.1,0.5c0-0.1,0.1-0.4,0.2-0.4v0.7C19,5.1,19.6,6,19.8,5.6
			c-0.6,0.2-0.3-0.5-0.7-0.8c0.2-0.3,0.3-0.3,0.4-0.2C19.8,4.7,20,5,20.3,5.1c0.3,0.2,0.7,0.2,0.9,0c0,0.1-0.6,0-0.5-0.4
			c0.2,0,0.5,0.1,0.7,0.3c0.2-0.2-0.2-0.5-0.3-0.8c0.2,0.3,0.2,0.2,0.1,0c0-0.1,0-0.2-0.1-0.3c0-0.1-0.1-0.4-0.1-0.6l0,0
			c0-0.2,0-0.4,0-0.5l-0.4-0.9c-0.1,0-0.1,0-0.2,0s-0.1,0-0.1,0c-0.1,0-0.1,0-0.1,0C20.1,2,20,2,19.8,2c-0.1-0.1-0.2-0.1-0.4-0.2
			c0,0,0,0-0.1,0S19,1.6,19.2,1.7c0.1,0.1,0.3,0.2,0.5,0.2c-0.2-0.1-0.4-0.2-0.6-0.3c-0.1-0.1-0.3-0.1-0.3-0.2l0,0l-0.2-0.2l0.1,0.1
			c-0.1-0.1-0.2-0.1-0.3-0.2c-0.1,0,0,0,0,0s0,0.1,0.1,0.1c0,0.1,0,0.1,0,0.1c0,0.1-0.1,0.1-0.3,0.1c0.3,0.2,0.7,0.7,0.5,0.9
			c-0.4,0-0.2-0.5-0.6,0C18,2,17.8,1.6,18.2,1.8c-0.1-0.1-0.2-0.3-0.3-0.4c-0.2,0-0.3,0-0.4,0.2c-0.1,0.1-0.2,0.4-0.3,0.5
			c0.3,0,0.4-0.1,0.5-0.1c0,0.2-0.1,0.4-0.1,0.6c0,0.2,0,0.4,0,0.6c-0.2,0-0.3-0.2-0.4-0.4c0,0.2,0.1,0.4,0,0.6
			c-0.3-0.3-0.7-0.5-0.6-0.9c0,0.3,0,0.6,0,0.9c-0.2-0.1-0.6,0-0.7-0.1c-0.4,0.2,0.2,1.2-0.4,1.5c0.1,0.1,0.1,0.1,0.1,0.3
			c-0.3,0.3-1,0.4-0.7,1.1L14.2,6c-0.1,0.4,1,0.2,0.9,0.9c0,0.5-0.6-0.2-0.9-0.1c0.2,0.4,0.6,1.2-0.1,1.4C14,7.9,14.2,7.8,14.2,7.6z
			 M12.2,12.7c-0.1-0.1-0.3-0.5,0-0.5C12.8,12.6,12.5,12.6,12.2,12.7z M13.5,21.5c0,0.1,0,0.1-0.1,0.1L12.8,22l-0.6-0.4
			c-0.4-0.2-0.6-0.7-0.5-1c0.1,0.2,0.2,0.5,0.6,0.8l0.1,0.1l1-0.1C13.3,21.5,13.4,21.5,13.5,21.5z M27.2,17.8L27.2,17.8
			C27.5,17.4,27.4,17.5,27.2,17.8z M26.9,18.6c0.1,0.1,0.1,0,0.2,0c-0.1,0-0.1-0.2,0-0.4C26.9,18.3,26.8,18.4,26.9,18.6z M14.9,2.1
			L15,2.2C14.9,2.4,14.9,2.3,14.9,2.1z"/>
		
			<linearGradient id="SVGID_62_" gradientUnits="userSpaceOnUse" x1="11.1547" y1="16.3953" x2="11.0076" y2="16.5424" gradientTransform="matrix(1 0 0 -1 0 36)">
			<stop  offset="0" style="stop-color:#00BBDB"/>
			<stop  offset="1" style="stop-color:#E53F97"/>
		</linearGradient>
		<path class="st62" d="M10.9,19.5c0.1,0,0.2,0,0.3,0C11.1,19.5,11,19.4,10.9,19.5z"/>
		
			<linearGradient id="SVGID_63_" gradientUnits="userSpaceOnUse" x1="15.5914" y1="31.2864" x2="15.5249" y2="31.353" gradientTransform="matrix(1 0 0 -1 0 36)">
			<stop  offset="0" style="stop-color:#00BBDB"/>
			<stop  offset="1" style="stop-color:#E53F97"/>
		</linearGradient>
		<path class="st63" d="M15.6,4.7L15.6,4.7C15.6,4.7,15.5,4.7,15.6,4.7L15.6,4.7z"/>
		
			<linearGradient id="SVGID_64_" gradientUnits="userSpaceOnUse" x1="22.8667" y1="19.4333" x2="22.7632" y2="19.5368" gradientTransform="matrix(1 0 0 -1 0 36)">
			<stop  offset="0" style="stop-color:#00BBDB"/>
			<stop  offset="1" style="stop-color:#E53F97"/>
		</linearGradient>
		<path class="st64" d="M22.7,16.7c0-0.1,0.1-0.3,0.2-0.4C22.8,16.5,22.7,16.7,22.7,16.7z"/>
		
			<linearGradient id="SVGID_65_" gradientUnits="userSpaceOnUse" x1="27.4791" y1="14.321" x2="27.2821" y2="14.5179" gradientTransform="matrix(1 0 0 -1 0 36)">
			<stop  offset="0" style="stop-color:#00BBDB"/>
			<stop  offset="1" style="stop-color:#E53F97"/>
		</linearGradient>
		<path class="st65" d="M27.5,21.7l-0.1-0.3c0,0.1-0.1,0.2-0.2,0.2C27.3,21.6,27.5,21.6,27.5,21.7z"/>
		
			<linearGradient id="SVGID_66_" gradientUnits="userSpaceOnUse" x1="24.4953" y1="11.756" x2="24.273" y2="11.9783" gradientTransform="matrix(1 0 0 -1 0 36)">
			<stop  offset="0" style="stop-color:#00BBDB"/>
			<stop  offset="1" style="stop-color:#E53F97"/>
		</linearGradient>
		<path class="st66" d="M24.2,24.1c0.1,0,0,0.1,0.1,0.1h0.2C24.5,24,24.4,23.9,24.2,24.1z"/>
		
			<linearGradient id="SVGID_67_" gradientUnits="userSpaceOnUse" x1="25.8657" y1="13.7342" x2="25.5143" y2="14.0857" gradientTransform="matrix(1 0 0 -1 0 36)">
			<stop  offset="0" style="stop-color:#00BBDB"/>
			<stop  offset="1" style="stop-color:#E53F97"/>
		</linearGradient>
		<path class="st67" d="M25.8,21.9c-0.4,0-0.3,0.2-0.2,0.4l0,0C26.1,22.3,26,22.1,25.8,21.9z"/>
		
			<linearGradient id="SVGID_68_" gradientUnits="userSpaceOnUse" x1="25.6818" y1="13.5182" x2="25.5324" y2="13.6676" gradientTransform="matrix(1 0 0 -1 0 36)">
			<stop  offset="0" style="stop-color:#00BBDB"/>
			<stop  offset="1" style="stop-color:#E53F97"/>
		</linearGradient>
		<path class="st68" d="M25.6,22.3c0,0.1,0,0.1,0,0.2C25.8,22.5,25.6,22.4,25.6,22.3z"/>
		
			<linearGradient id="SVGID_69_" gradientUnits="userSpaceOnUse" x1="27.4579" y1="16.3049" x2="27.0016" y2="16.7613" gradientTransform="matrix(1 0 0 -1 0 36)">
			<stop  offset="0" style="stop-color:#00BBDB"/>
			<stop  offset="1" style="stop-color:#E53F97"/>
		</linearGradient>
		<path class="st69" d="M27,19.5c-0.1,0.2,0.6,0,0.4,0.2C27.9,19.7,26.9,18.6,27,19.5z"/>
		
			<linearGradient id="SVGID_70_" gradientUnits="userSpaceOnUse" x1="24.7263" y1="13.9236" x2="24.4501" y2="14.1999" gradientTransform="matrix(1 0 0 -1 0 36)">
			<stop  offset="0" style="stop-color:#00BBDB"/>
			<stop  offset="1" style="stop-color:#E53F97"/>
		</linearGradient>
		<polygon class="st70" points="24.3,22 24.9,21.9 24.4,21.8 		"/>
		
			<linearGradient id="SVGID_71_" gradientUnits="userSpaceOnUse" x1="24.899" y1="15.2589" x2="24.6851" y2="15.4728" gradientTransform="matrix(1 0 0 -1 0 36)">
			<stop  offset="0" style="stop-color:#00BBDB"/>
			<stop  offset="1" style="stop-color:#E53F97"/>
		</linearGradient>
		<path class="st71" d="M24.8,20.4l-0.2,0.3c0.1,0,0.1,0,0.2,0.1C24.8,20.7,24.9,20.4,24.8,20.4z"/>
		
			<linearGradient id="SVGID_72_" gradientUnits="userSpaceOnUse" x1="24.9375" y1="14.9625" x2="24.7701" y2="15.1299" gradientTransform="matrix(1 0 0 -1 0 36)">
			<stop  offset="0" style="stop-color:#00BBDB"/>
			<stop  offset="1" style="stop-color:#E53F97"/>
		</linearGradient>
		<path class="st72" d="M24.8,20.8c0,0.1,0,0.2,0.1,0.3C24.9,21,24.9,20.9,24.8,20.8z"/>
		
			<linearGradient id="SVGID_73_" gradientUnits="userSpaceOnUse" x1="24.3024" y1="14.5475" x2="24.214" y2="14.636" gradientTransform="matrix(1 0 0 -1 0 36)">
			<stop  offset="0" style="stop-color:#00BBDB"/>
			<stop  offset="1" style="stop-color:#E53F97"/>
		</linearGradient>
		<polygon class="st73" points="24.2,21.6 24.3,21.5 24.3,21.2 		"/>
		
			<linearGradient id="SVGID_74_" gradientUnits="userSpaceOnUse" x1="25.3157" y1="19.3342" x2="25.1177" y2="19.5323" gradientTransform="matrix(1 0 0 -1 0 36)">
			<stop  offset="0" style="stop-color:#00BBDB"/>
			<stop  offset="1" style="stop-color:#E53F97"/>
		</linearGradient>
		<path class="st74" d="M25.4,16.5l-0.1-0.2c-0.2,0.1-0.4,0.3-0.3,0.4C25.1,16.7,25.2,16.8,25.4,16.5z"/>
		
			<linearGradient id="SVGID_75_" gradientUnits="userSpaceOnUse" x1="23.8078" y1="17.5422" x2="23.6406" y2="17.7093" gradientTransform="matrix(1 0 0 -1 0 36)">
			<stop  offset="0" style="stop-color:#00BBDB"/>
			<stop  offset="1" style="stop-color:#E53F97"/>
		</linearGradient>
		<path class="st75" d="M23.6,18.5c0.1-0.1,0.3-0.2,0.5-0.3l-0.7,0.4L23.6,18.5z"/>
		
			<linearGradient id="SVGID_76_" gradientUnits="userSpaceOnUse" x1="23.3801" y1="17.8698" x2="23.2278" y2="18.0222" gradientTransform="matrix(1 0 0 -1 0 36)">
			<stop  offset="0" style="stop-color:#00BBDB"/>
			<stop  offset="1" style="stop-color:#E53F97"/>
		</linearGradient>
		<path class="st76" d="M23.6,17.9C23.4,18,23.1,18,23,18.2C23.2,18.1,23.4,18.2,23.6,17.9z"/>
		
			<linearGradient id="SVGID_77_" gradientUnits="userSpaceOnUse" x1="25.0464" y1="22.8535" x2="24.7984" y2="23.1017" gradientTransform="matrix(1 0 0 -1 0 36)">
			<stop  offset="0" style="stop-color:#00BBDB"/>
			<stop  offset="1" style="stop-color:#E53F97"/>
		</linearGradient>
		<polygon class="st77" points="24.4,13.7 24.5,13.7 25.4,12.3 		"/>
		
			<linearGradient id="SVGID_78_" gradientUnits="userSpaceOnUse" x1="20.6871" y1="17.5515" x2="20.1932" y2="18.0455" gradientTransform="matrix(1 0 0 -1 0 36)">
			<stop  offset="0" style="stop-color:#00BBDB"/>
			<stop  offset="1" style="stop-color:#E53F97"/>
		</linearGradient>
		<path class="st78" d="M20.3,18.7c0.1,0.3,0.1-0.9,0.2-0.5c0.1-0.4-0.1-0.3,0-0.6C20.4,18,20.4,17.9,20.3,18.7z"/>
		
			<linearGradient id="SVGID_79_" gradientUnits="userSpaceOnUse" x1="20.5989" y1="18.4511" x2="20.5168" y2="18.5331" gradientTransform="matrix(1 0 0 -1 0 36)">
			<stop  offset="0" style="stop-color:#00BBDB"/>
			<stop  offset="1" style="stop-color:#E53F97"/>
		</linearGradient>
		<path class="st79" d="M20.5,17.6c0-0.1,0-0.1,0.1-0.2C20.6,17.5,20.5,17.6,20.5,17.6z"/>
		
			<linearGradient id="SVGID_80_" gradientUnits="userSpaceOnUse" x1="0.375" y1="25.475" x2="9.989981e-02" y2="25.7501" gradientTransform="matrix(1 0 0 -1 0 36)">
			<stop  offset="0" style="stop-color:#00BBDB"/>
			<stop  offset="1" style="stop-color:#E53F97"/>
		</linearGradient>
		<polygon class="st80" points="0.4,10.4 0,10.3 0.4,10.5 		"/>
		
			<linearGradient id="SVGID_81_" gradientUnits="userSpaceOnUse" x1="0.4055" y1="24.6945" x2="-8.119993e-02" y2="25.1812" gradientTransform="matrix(1 0 0 -1 0 36)">
			<stop  offset="0" style="stop-color:#00BBDB"/>
			<stop  offset="1" style="stop-color:#E53F97"/>
		</linearGradient>
		<path class="st81" d="M0.4,11.3L0,10.7l0.2,0.6C0.2,11.3,0.3,11.2,0.4,11.3z"/>
		
			<linearGradient id="SVGID_82_" gradientUnits="userSpaceOnUse" x1="10.9416" y1="22.6584" x2="10.7612" y2="22.8387" gradientTransform="matrix(1 0 0 -1 0 36)">
			<stop  offset="0" style="stop-color:#00BBDB"/>
			<stop  offset="1" style="stop-color:#E53F97"/>
		</linearGradient>
		<path class="st82" d="M10.6,13.3l0.2,0.1c0.2,0,0.2,0,0.3-0.2C10.9,13.2,10.8,13.3,10.6,13.3z"/>
		
			<linearGradient id="SVGID_83_" gradientUnits="userSpaceOnUse" x1="13.1071" y1="26.1929" x2="12.7135" y2="26.5865" gradientTransform="matrix(1 0 0 -1 0 36)">
			<stop  offset="0" style="stop-color:#00BBDB"/>
			<stop  offset="1" style="stop-color:#E53F97"/>
		</linearGradient>
		<polygon class="st83" points="12.7,9.5 12.6,9.5 13.2,9.7 		"/>
		
			<linearGradient id="SVGID_84_" gradientUnits="userSpaceOnUse" x1="13.6599" y1="29.5917" x2="13.4186" y2="29.833" gradientTransform="matrix(1 0 0 -1 0 36)">
			<stop  offset="0" style="stop-color:#00BBDB"/>
			<stop  offset="1" style="stop-color:#E53F97"/>
		</linearGradient>
		<path class="st84" d="M13.5,6c-0.1,0.1-0.1,0.3-0.2,0.4C13.5,6.1,14.2,6.4,13.5,6z"/>
	</g>
</g>
<g>
	<path class="st1" d="M205.3,16.5l-5.1-7.4h3.2l3.4,5.1l3.5-5.1h3.2l-5.1,7.4l5.1,7.3h-3.2l-3.5-5.1l-3.4,5.1h-3.2L205.3,16.5z"/>
</g>
</svg>
